<svg xmlns="http://www.w3.org/2000/svg"  viewBox="0 0 100 100" width="500px" height="500px"><path fill="#c7ede6" d="M87.215,56.71C88.35,54.555,89,52.105,89,49.5c0-6.621-4.159-12.257-10.001-14.478 C78.999,35.015,79,35.008,79,35c0-11.598-9.402-21-21-21c-9.784,0-17.981,6.701-20.313,15.757C36.211,29.272,34.638,29,33,29 c-7.692,0-14.023,5.793-14.89,13.252C12.906,43.353,9,47.969,9,53.5C9,59.851,14.149,65,20.5,65c0.177,0,0.352-0.012,0.526-0.022 C21.022,65.153,21,65.324,21,65.5C21,76.822,30.178,86,41.5,86c6.437,0,12.175-2.972,15.934-7.614C59.612,80.611,62.64,82,66,82 c4.65,0,8.674-2.65,10.666-6.518C77.718,75.817,78.837,76,80,76c6.075,0,11-4.925,11-11C91,61.689,89.53,58.727,87.215,56.71z"/><path fill="#fdfcef" d="M34.5,39.5V40h3v-0.5c0,0,4.242,0,5.5,0c2.485,0,4.5-2.015,4.5-4.5 c0-2.333-1.782-4.229-4.055-4.455C43.467,30.364,43.5,30.187,43.5,30c0-2.485-2.015-4.5-4.5-4.5 c-1.438,0-2.703,0.686-3.527,1.736C35.333,24.6,33.171,22.5,30.5,22.5c-2.761,0-5,2.239-5,5c0,0.446,0.077,0.87,0.187,1.282 C25.045,28.005,24.086,27.5,23,27.5c-1.781,0-3.234,1.335-3.455,3.055C19.364,30.533,19.187,30.5,19,30.5 c-2.485,0-4.5,2.015-4.5,4.5s2.015,4.5,4.5,4.5s9.5,0,9.5,0H34.5z"/><path fill="#472b29" d="M30.5,22c-3.033,0-5.5,2.467-5.5,5.5c0,0.016,0,0.031,0,0.047C24.398,27.192,23.71,27,23,27 c-1.831,0-3.411,1.261-3.858,3.005C19.095,30.002,19.048,30,19,30c-2.757,0-5,2.243-5,5s2.243,5,5,5h15.5 c0.276,0,0.5-0.224,0.5-0.5S34.776,39,34.5,39H19c-2.206,0-4-1.794-4-4s1.794-4,4-4c0.117,0,0.23,0.017,0.343,0.032l0.141,0.019 c0.021,0.003,0.041,0.004,0.062,0.004c0.246,0,0.462-0.185,0.495-0.437C20.232,29.125,21.504,28,23,28 c0.885,0,1.723,0.401,2.301,1.1c0.098,0.118,0.241,0.182,0.386,0.182c0.078,0,0.156-0.018,0.228-0.056 c0.209-0.107,0.314-0.346,0.254-0.573C26.054,28.218,26,27.852,26,27.5c0-2.481,2.019-4.5,4.5-4.5 c2.381,0,4.347,1.872,4.474,4.263c0.011,0.208,0.15,0.387,0.349,0.45c0.05,0.016,0.101,0.024,0.152,0.024 c0.15,0,0.296-0.069,0.392-0.192C36.638,26.563,37.779,26,39,26c2.206,0,4,1.794,4,4c0,0.117-0.017,0.23-0.032,0.343 l-0.019,0.141c-0.016,0.134,0.022,0.268,0.106,0.373c0.084,0.105,0.207,0.172,0.34,0.185C45.451,31.247,47,32.949,47,35 c0,2.206-1.794,4-4,4h-5.5c-0.276,0-0.5,0.224-0.5,0.5s0.224,0.5,0.5,0.5H43c2.757,0,5-2.243,5-5 c0-2.397-1.689-4.413-4.003-4.877C43.999,30.082,44,30.041,44,30c0-2.757-2.243-5-5-5c-1.176,0-2.293,0.416-3.183,1.164 C35.219,23.76,33.055,22,30.5,22L30.5,22z"/><path fill="#472b29" d="M29,29c-1.403,0-2.609,0.999-2.913,2.341C25.72,31.119,25.301,31,24.875,31 c-1.202,0-2.198,0.897-2.353,2.068C22.319,33.022,22.126,33,21.937,33c-1.529,0-2.811,1.2-2.918,2.732 C19.01,35.87,19.114,35.99,19.251,36c0.006,0,0.012,0,0.018,0c0.13,0,0.24-0.101,0.249-0.232 c0.089-1.271,1.151-2.268,2.419-2.268c0.229,0,0.47,0.042,0.738,0.127c0.022,0.007,0.045,0.01,0.067,0.01 c0.055,0,0.11-0.02,0.156-0.054C22.962,33.537,23,33.455,23,33.375c0-1.034,0.841-1.875,1.875-1.875 c0.447,0,0.885,0.168,1.231,0.473c0.047,0.041,0.106,0.063,0.165,0.063c0.032,0,0.063-0.006,0.093-0.019 c0.088-0.035,0.148-0.117,0.155-0.212C26.623,30.512,27.712,29.5,29,29.5c0.208,0,0.425,0.034,0.682,0.107 c0.023,0.007,0.047,0.01,0.07,0.01c0.109,0,0.207-0.073,0.239-0.182c0.038-0.133-0.039-0.271-0.172-0.309 C29.517,29.04,29.256,29,29,29L29,29z"/><path fill="#472b29" d="M42.883,30.5c-1.326,0-2.508,0.897-2.874,2.182c-0.038,0.133,0.039,0.271,0.172,0.309 C40.205,32.997,40.228,33,40.25,33c0.109,0,0.209-0.072,0.24-0.182C40.795,31.748,41.779,31,42.883,31 c0.117,0,0.23,0.014,0.342,0.029c0.012,0.002,0.023,0.003,0.035,0.003c0.121,0,0.229-0.092,0.246-0.217 c0.019-0.137-0.077-0.263-0.214-0.281C43.158,30.516,43.022,30.5,42.883,30.5L42.883,30.5z"/><path fill="#f1bc19" d="M68.625,75h-31.25C33.854,75,31,72.146,31,68.625v-31.25C31,33.854,33.854,31,37.375,31h31.25 C72.146,31,75,33.854,75,37.375v31.25C75,72.146,72.146,75,68.625,75z"/><path fill="#472b29" d="M68.625,75.7h-31.25c-3.901,0-7.075-3.174-7.075-7.075v-31.25c0-3.901,3.174-7.075,7.075-7.075 h31.25c3.901,0,7.075,3.174,7.075,7.075v31.25C75.7,72.526,72.526,75.7,68.625,75.7z M37.375,31.7 c-3.129,0-5.675,2.545-5.675,5.675v31.25c0,3.129,2.546,5.675,5.675,5.675h31.25c3.129,0,5.675-2.546,5.675-5.675v-31.25 c0-3.129-2.546-5.675-5.675-5.675H37.375z"/><path fill="#fff" d="M14.5,55h-10C4.224,55,4,54.776,4,54.5S4.224,54,4.5,54h10c0.276,0,0.5,0.224,0.5,0.5 S14.777,55,14.5,55z"/><path fill="#fff" d="M17.5,55h-1c-0.276,0-0.5-0.224-0.5-0.5s0.224-0.5,0.5-0.5h1c0.276,0,0.5,0.224,0.5,0.5 S17.777,55,17.5,55z"/><path fill="#fff" d="M22.491,57H13.5c-0.276,0-0.5-0.224-0.5-0.5s0.224-0.5,0.5-0.5h8.991c0.276,0,0.5,0.224,0.5,0.5 S22.767,57,22.491,57z"/><path fill="#fff" d="M11.5,57h-1c-0.276,0-0.5-0.224-0.5-0.5s0.224-0.5,0.5-0.5h1c0.276,0,0.5,0.224,0.5,0.5 S11.777,57,11.5,57z"/><path fill="#fff" d="M8.5,57h-2C6.224,57,6,56.776,6,56.5S6.224,56,6.5,56h2C8.776,56,9,56.224,9,56.5S8.777,57,8.5,57 z"/><path fill="#fff" d="M14.5,59h-2c-0.276,0-0.5-0.224-0.5-0.5s0.224-0.5,0.5-0.5h2c0.276,0,0.5,0.224,0.5,0.5 S14.776,59,14.5,59z"/><path fill="#fff" d="M17.5,50c-0.177,0-0.823,0-1,0c-0.276,0-0.5,0.224-0.5,0.5c0,0.276,0.224,0.5,0.5,0.5 c0.177,0,0.823,0,1,0c0.276,0,0.5-0.224,0.5-0.5C18,50.224,17.776,50,17.5,50z"/><path fill="#fff" d="M17.5,52c-0.177,0-4.823,0-5,0c-0.276,0-0.5,0.224-0.5,0.5c0,0.276,0.224,0.5,0.5,0.5 c0.177,0,4.823,0,5,0c0.276,0,0.5-0.224,0.5-0.5C18,52.224,17.776,52,17.5,52z"/><path fill="#fff" d="M22.5,54c-0.177,0-2.823,0-3,0c-0.276,0-0.5,0.224-0.5,0.5c0,0.276,0.224,0.5,0.5,0.5 c0.177,0,2.823,0,3,0c0.276,0,0.5-0.224,0.5-0.5C23,54.224,22.776,54,22.5,54z"/><path fill="#fff" d="M71.5,22h-10c-0.276,0-0.5-0.224-0.5-0.5s0.224-0.5,0.5-0.5h10c0.276,0,0.5,0.224,0.5,0.5 S71.776,22,71.5,22z"/><path fill="#fff" d="M75.5,22h-2c-0.276,0-0.5-0.224-0.5-0.5s0.224-0.5,0.5-0.5h2c0.276,0,0.5,0.224,0.5,0.5 S75.776,22,75.5,22z"/><path fill="#fff" d="M80.5,24h-10c-0.276,0-0.5-0.224-0.5-0.5s0.224-0.5,0.5-0.5h10c0.276,0,0.5,0.224,0.5,0.5 S80.777,24,80.5,24z"/><path fill="#fff" d="M68.5,24h-1c-0.276,0-0.5-0.224-0.5-0.5s0.224-0.5,0.5-0.5h1c0.276,0,0.5,0.224,0.5,0.5 S68.776,24,68.5,24z"/><path fill="#fff" d="M65.47,24H63.5c-0.276,0-0.5-0.224-0.5-0.5s0.224-0.5,0.5-0.5h1.97c0.276,0,0.5,0.224,0.5,0.5 S65.746,24,65.47,24z"/><path fill="#fff" d="M74.5,20h-5c-0.276,0-0.5-0.224-0.5-0.5s0.224-0.5,0.5-0.5h5c0.276,0,0.5,0.224,0.5,0.5 S74.777,20,74.5,20z"/><path fill="#fff" d="M71.5,26h-2c-0.276,0-0.5-0.224-0.5-0.5s0.224-0.5,0.5-0.5h2c0.276,0,0.5,0.224,0.5,0.5 S71.776,26,71.5,26z"/><g><path fill="#1fa363" d="M67.667,70H38.333C36.492,70,35,68.508,35,66.667V38.333C35,36.492,36.492,35,38.333,35h29.333 C69.508,35,71,36.492,71,38.333v28.333C71,68.508,69.508,70,67.667,70z"/></g><g><path fill="#472b29" d="M70.5,43c-0.276,0-0.5-0.224-0.5-0.5v-4.563C70,36.869,69.131,36,68.063,36H58.5 c-0.276,0-0.5-0.224-0.5-0.5s0.224-0.5,0.5-0.5h9.563C69.683,35,71,36.318,71,37.938V42.5C71,42.776,70.776,43,70.5,43z"/></g><g><path fill="#472b29" d="M53.5,36h-9c-0.276,0-0.5-0.224-0.5-0.5s0.224-0.5,0.5-0.5h9c0.276,0,0.5,0.224,0.5,0.5 S53.776,36,53.5,36z"/></g><g><path fill="#472b29" d="M35.5,63c-0.276,0-0.5-0.224-0.5-0.5V37.938C35,36.318,36.317,35,37.938,35H42.5 c0.276,0,0.5,0.224,0.5,0.5S42.776,36,42.5,36h-4.563C36.869,36,36,36.869,36,37.938V62.5C36,62.776,35.776,63,35.5,63z"/></g><g><path fill="#472b29" d="M68.063,71H37.938C36.317,71,35,69.683,35,68.063V65.5c0-0.276,0.224-0.5,0.5-0.5 s0.5,0.224,0.5,0.5v2.563C36,69.131,36.869,70,37.938,70h30.125C69.131,70,70,69.131,70,68.063V45.5c0-0.276,0.224-0.5,0.5-0.5 s0.5,0.224,0.5,0.5v22.563C71,69.683,69.683,71,68.063,71z"/></g><g><path fill="#5ebe8f" d="M44.393,55.5h-0.786c-2.75,0-5.107,1.413-5.107,2.333V59.5h11v-1.667 C49.5,56.913,47.143,55.5,44.393,55.5z"/><path fill="#472b29" d="M49.75,59.75h-11.5v-1.917c0-1.139,2.522-2.583,5.357-2.583h0.785 c2.835,0,5.357,1.444,5.357,2.583V59.75z M38.75,59.25h10.5v-1.417c0-0.704-2.199-2.083-4.857-2.083h-0.785 c-2.658,0-4.857,1.379-4.857,2.083V59.25z"/></g><g><circle cx="44" cy="51" r="2.5" fill="#5ebe8f"/><path fill="#472b29" d="M44,53.75c-1.517,0-2.75-1.233-2.75-2.75s1.233-2.75,2.75-2.75s2.75,1.233,2.75,2.75 S45.517,53.75,44,53.75z M44,48.75c-1.24,0-2.25,1.009-2.25,2.25c0,1.24,1.01,2.25,2.25,2.25s2.25-1.01,2.25-2.25 C46.25,49.759,45.24,48.75,44,48.75z"/></g><g><path fill="#5ebe8f" d="M62.393,55.5h-0.786c-2.75,0-5.107,1.413-5.107,2.333V59.5h11v-1.667 C67.5,56.913,65.143,55.5,62.393,55.5z"/><path fill="#472b29" d="M67.75,59.75h-11.5v-1.917c0-1.139,2.522-2.583,5.357-2.583h0.785 c2.835,0,5.357,1.444,5.357,2.583V59.75z M56.75,59.25h10.5v-1.417c0-0.704-2.199-2.083-4.857-2.083h-0.785 c-2.658,0-4.857,1.379-4.857,2.083V59.25z"/></g><g><circle cx="62" cy="51" r="2.5" fill="#5ebe8f"/><path fill="#472b29" d="M62,53.75c-1.517,0-2.75-1.233-2.75-2.75s1.233-2.75,2.75-2.75s2.75,1.233,2.75,2.75 S63.517,53.75,62,53.75z M62,48.75c-1.24,0-2.25,1.009-2.25,2.25c0,1.24,1.01,2.25,2.25,2.25s2.25-1.01,2.25-2.25 C64.25,49.759,63.24,48.75,62,48.75z"/></g><g><rect width="9" height="3" x="57.5" y="67.5" fill="#fff"/><path fill="#472b29" d="M66.5,71h-9c-0.276,0-0.5-0.224-0.5-0.5v-3c0-0.276,0.224-0.5,0.5-0.5h9c0.276,0,0.5,0.224,0.5,0.5 v3C67,70.776,66.776,71,66.5,71z M58,70h8v-2h-8V70z"/></g><g><path fill="#fff" d="M53,53.5h-1c-3.5,0-6.5,2.119-6.5,3.5v2.5h14V57C59.5,55.619,56.5,53.5,53,53.5z"/><path fill="#472b29" d="M59.75,59.75h-14.5V57c0-1.638,3.273-3.75,6.75-3.75h1c3.477,0,6.75,2.112,6.75,3.75V59.75z M45.75,59.25h13.5V57c0-1.225-2.921-3.25-6.25-3.25h-1c-3.329,0-6.25,2.025-6.25,3.25V59.25z"/></g><g><circle cx="52.5" cy="48.5" r="3" fill="#fff"/><path fill="#472b29" d="M52.5,51.75c-1.792,0-3.25-1.458-3.25-3.25s1.458-3.25,3.25-3.25s3.25,1.458,3.25,3.25 S54.292,51.75,52.5,51.75z M52.5,45.75c-1.517,0-2.75,1.233-2.75,2.75s1.233,2.75,2.75,2.75s2.75-1.233,2.75-2.75 S54.017,45.75,52.5,45.75z"/></g><g><path fill="#fdfcef" d="M87.5,67.5c0,0,1.567,0,3.5,0s3.5-1.567,3.5-3.5c0-1.781-1.335-3.234-3.055-3.455 C91.473,60.366,91.5,60.187,91.5,60c0-1.933-1.567-3.5-3.5-3.5c-1.032,0-1.95,0.455-2.59,1.165 c-0.384-1.808-1.987-3.165-3.91-3.165c-2.209,0-4,1.791-4,4c0,0.191,0.03,0.374,0.056,0.558C77.128,58.714,76.592,58.5,76,58.5 c-1.228,0-2.245,0.887-2.455,2.055C73.366,60.527,73.187,60.5,73,60.5c-1.933,0-3.5,1.567-3.5,3.5s1.567,3.5,3.5,3.5s7.5,0,7.5,0 V68h7V67.5z"/><path fill="#472b29" d="M89.25,63C89.112,63,89,62.888,89,62.75c0-1.223,0.995-2.218,2.218-2.218 c0.034,0.009,0.737-0.001,1.244,0.136c0.133,0.036,0.212,0.173,0.176,0.306c-0.036,0.134-0.173,0.213-0.306,0.176 c-0.444-0.12-1.1-0.12-1.113-0.118c-0.948,0-1.719,0.771-1.719,1.718C89.5,62.888,89.388,63,89.25,63z"/><circle cx="82.5" cy="67.5" r=".5" fill="#472b29"/><path fill="#472b29" d="M91,68h-3.5c-0.276,0-0.5-0.224-0.5-0.5s0.224-0.5,0.5-0.5H91c1.654,0,3-1.346,3-3 c0-1.496-1.125-2.768-2.618-2.959c-0.134-0.018-0.255-0.088-0.336-0.196s-0.115-0.244-0.094-0.377C90.975,60.314,91,60.16,91,60 c0-1.654-1.346-3-3-3c-0.85,0-1.638,0.355-2.219,1c-0.125,0.139-0.321,0.198-0.5,0.148c-0.182-0.049-0.321-0.195-0.36-0.379 C84.58,56.165,83.141,55,81.5,55c-1.93,0-3.5,1.57-3.5,3.5c0,0.143,0.021,0.28,0.041,0.418c0.029,0.203-0.063,0.438-0.242,0.54 c-0.179,0.102-0.396,0.118-0.556-0.01C76.878,59.155,76.449,59,76,59c-0.966,0-1.792,0.691-1.963,1.644 c-0.048,0.267-0.296,0.446-0.569,0.405C73.314,61.025,73.16,61,73,61c-1.654,0-3,1.346-3,3s1.346,3,3,3h7.5 c0.276,0,0.5,0.224,0.5,0.5S80.776,68,80.5,68H73c-2.206,0-4-1.794-4-4s1.794-4,4-4c0.059,0,0.116,0.002,0.174,0.006 C73.588,58.82,74.711,58,76,58c0.349,0,0.689,0.061,1.011,0.18C77.176,55.847,79.126,54,81.5,54c1.831,0,3.466,1.127,4.153,2.774 C86.333,56.276,87.155,56,88,56c2.206,0,4,1.794,4,4c0,0.048-0.001,0.095-0.004,0.142C93.739,60.59,95,62.169,95,64 C95,66.206,93.206,68,91,68z"/><path fill="#472b29" d="M85.5,67c-0.159,0-0.841,0-1,0c-0.276,0-0.5,0.224-0.5,0.5c0,0.276,0.224,0.5,0.5,0.5 c0.159,0,0.841,0,1,0c0.276,0,0.5-0.224,0.5-0.5C86,67.224,85.776,67,85.5,67z"/></g></svg>