<svg width="16.964355" height="11.566620" viewBox="0 0 16.9644 11.5666" fill="none" xmlns="http://www.w3.org/2000/svg" xmlns:xlink="http://www.w3.org/1999/xlink">
	<desc>
			Created with Pixso.
	</desc>
	<path id="ic_remove_red_eye_24px" d="M8.48218 0C4.62659 0 1.33398 2.39813 0 5.78329C1.33398 9.16846 4.62659 11.5666 8.48218 11.5666C12.3378 11.5666 15.6304 9.16846 16.9644 5.78329C15.6304 2.39813 12.3378 0 8.48218 0ZM8.48218 9.63882C6.35388 9.63882 4.62659 7.91156 4.62659 5.78329C4.62659 3.65506 6.35388 1.92776 8.48218 1.92776C10.6105 1.92776 12.3378 3.65506 12.3378 5.78329C12.3378 7.91156 10.6105 9.63882 8.48218 9.63882ZM8.48218 3.46997C7.20215 3.46997 6.16882 4.50327 6.16882 5.78329C6.16882 7.06335 7.20215 8.09662 8.48218 8.09662C9.76221 8.09662 10.7955 7.06335 10.7955 5.78329C10.7955 4.50327 9.76221 3.46997 8.48218 3.46997Z" fill-rule="evenodd" fill="#000000"/>
	<defs/>
</svg>
