<svg width="72.429688" height="91.662567" viewBox="0 0 72.4297 91.6626" fill="none" xmlns="http://www.w3.org/2000/svg" xmlns:xlink="http://www.w3.org/1999/xlink">
	<desc>
			Created with Pixso.
	</desc>
	<rect id="Rectangle 17336" x="0.500000" y="0.500000" rx="15.000000" width="71.000000" height="71.000000" fill="#1BC4B3"/>
	<path id="Marketing" d="M31.6328 84.6938L32.5391 83.7485L35.4844 87.6626L37.1797 87.6626L33.5078 82.7407L36.7969 79.2094L35.0391 79.2094L32.4062 81.9907L31.6328 82.9204L31.6328 75.6626L30.1875 75.6626L30.1875 87.6626L31.6328 87.6626L31.6328 84.6938ZM52.0586 76.3735Q51.8438 76.6157 51.8438 76.9673Q51.8438 77.3188 52.0586 77.5532Q52.2734 77.7876 52.6953 77.7876Q53.1172 77.7876 53.3359 77.5532Q53.5547 77.3188 53.5547 76.9673Q53.5547 76.6157 53.3359 76.3735Q53.1172 76.1313 52.6953 76.1313Q52.2734 76.1313 52.0586 76.3735ZM7.97656 85.5688L4.25781 76.2876L2.32031 76.2876L2.32031 87.6626L3.82031 87.6626L3.82031 83.2329L3.67188 78.4751L7.39844 87.6626L8.54688 87.6626L12.2812 78.4516L12.1406 83.2329L12.1406 87.6626L13.6406 87.6626L13.6406 76.2876L11.6953 76.2876L7.97656 85.5688ZM48.5703 79.2094L48.5703 77.1626L47.125 77.1626L47.125 79.2094L45.5859 79.2094L45.5859 80.3266L47.125 80.3266L47.125 85.5688Q47.125 86.6469 47.6172 87.2329Q48.1094 87.8188 49.0781 87.8188Q49.6172 87.8188 50.1875 87.6626L50.1875 86.4907Q49.75 86.5844 49.5 86.5844Q48.9922 86.5844 48.7812 86.3305Q48.5703 86.0766 48.5703 85.5688L48.5703 80.3266L50.1484 80.3266L50.1484 79.2094L48.5703 79.2094ZM21.0781 86.7719Q21.1562 87.4126 21.2812 87.6626L22.7969 87.6626L22.7969 87.5376Q22.5 86.8501 22.5 85.686L22.5 81.7954Q22.4688 80.5141 21.6406 79.7837Q20.8125 79.0532 19.3516 79.0532Q18.4297 79.0532 17.6602 79.3969Q16.8906 79.7407 16.4414 80.3305Q15.9922 80.9204 15.9922 81.5532L17.4453 81.5532Q17.4453 80.9985 17.9688 80.6079Q18.4922 80.2173 19.2656 80.2173Q20.1484 80.2173 20.6016 80.6665Q21.0547 81.1157 21.0547 81.8735L21.0547 82.5376L19.6484 82.5376Q17.8281 82.5376 16.8242 83.268Q15.8203 83.9985 15.8203 85.3188Q15.8203 86.4048 16.6211 87.1118Q17.4219 87.8188 18.6719 87.8188Q20.0703 87.8188 21.0781 86.7719ZM28.1406 80.4516Q28.5234 80.4516 28.8516 80.5063L28.8516 79.1626Q28.6328 79.0532 28.2109 79.0532Q26.9062 79.0532 26.1953 80.186L26.1719 79.2094L24.7656 79.2094L24.7656 87.6626L26.2109 87.6626L26.2109 81.6626Q26.7188 80.4516 28.1406 80.4516ZM38.8438 86.6899Q39.9219 87.8188 41.6406 87.8188Q43.7656 87.8188 44.8281 86.186L43.9453 85.4985Q43.5469 86.0141 43.0156 86.3266Q42.4844 86.6391 41.7188 86.6391Q40.6406 86.6391 39.9414 85.8696Q39.2422 85.1001 39.2109 83.8501L44.9375 83.8501L44.9375 83.2485Q44.9375 81.2251 44.0234 80.1391Q43.1094 79.0532 41.4609 79.0532Q40.4531 79.0532 39.5898 79.6118Q38.7266 80.1704 38.2461 81.1587Q37.7656 82.1469 37.7656 83.4048L37.7656 83.6704Q37.7656 85.561 38.8438 86.6899ZM57.1328 80.2719L57.0859 79.2094L55.7188 79.2094L55.7188 87.6626L57.1641 87.6626L57.1641 81.6391Q57.4609 81.0298 57.9922 80.6548Q58.5234 80.2798 59.2266 80.2798Q60.0938 80.2798 60.5039 80.7173Q60.9141 81.1548 60.9219 82.0688L60.9219 87.6626L62.3672 87.6626L62.3672 82.0766Q62.3438 79.0532 59.6641 79.0532Q58.1016 79.0532 57.1328 80.2719ZM65.1172 80.2212Q64.2031 81.3891 64.2031 83.3657Q64.2031 85.4282 65.1211 86.6235Q66.0391 87.8188 67.5234 87.8188Q69.0234 87.8188 69.8906 86.8188L69.8906 87.5454Q69.8906 88.6235 69.3008 89.2173Q68.7109 89.811 67.6562 89.811Q66.3125 89.811 65.3828 88.6626L64.6328 89.5298Q65.0938 90.2094 65.9688 90.6001Q66.8438 90.9907 67.7578 90.9907Q69.3984 90.9907 70.3711 90.0454Q71.3438 89.1001 71.3438 87.4594L71.3438 79.2094L70.0234 79.2094L69.9531 80.1469Q69.0859 79.0532 67.5391 79.0532Q66.0312 79.0532 65.1172 80.2212ZM51.9609 87.6626L53.4062 87.6626L53.4062 79.2094L51.9609 79.2094L51.9609 87.6626ZM39.9922 80.8774Q40.5859 80.2407 41.4609 80.2407Q42.3672 80.2407 42.8984 80.8462Q43.4297 81.4516 43.4922 82.5532L43.4922 82.6626L39.2578 82.6626Q39.3984 81.5141 39.9922 80.8774ZM66.2422 85.7758Q65.6562 84.9594 65.6562 83.5298Q65.6562 81.9204 66.25 81.1001Q66.8438 80.2798 67.8984 80.2798Q69.2266 80.2798 69.8906 81.4907L69.8906 85.3501Q69.25 86.5923 67.8828 86.5923Q66.8281 86.5923 66.2422 85.7758ZM20.1719 86.2094Q19.5625 86.561 18.8828 86.561Q18.1719 86.561 17.7188 86.1782Q17.2656 85.7954 17.2656 85.1157Q17.2656 83.561 19.9219 83.561L21.0547 83.561L21.0547 85.2954Q20.7812 85.8579 20.1719 86.2094Z" fill="#000000FF"/>
	<path id="Icon material-monetization-on" d="M36 24C29.376 24 24 29.376 24 36C24 42.624 29.376 48 36 48C42.624 48 48 42.624 48 36C48 29.376 42.624 24 36 24ZM37.6919 43.308L37.6919 45.6L34.4878 45.6L34.4878 43.284C32.436 42.852 30.6958 41.532 30.564 39.204L32.916 39.204C33.0361 40.464 33.8999 41.448 36.0962 41.448C38.4482 41.448 38.9761 40.272 38.9761 39.54C38.9761 38.544 38.4482 37.608 35.772 36.972C32.7959 36.252 30.7559 35.028 30.7559 32.568C30.7559 30.504 32.4238 29.16 34.4878 28.716L34.4878 26.4L37.6919 26.4L37.6919 28.74C39.9238 29.28 41.04 30.972 41.1118 32.808L38.7598 32.808C38.7002 31.476 37.9922 30.564 36.0962 30.564C34.2959 30.564 33.2158 31.38 33.2158 32.532C33.2158 33.54 33.9961 34.2 36.4199 34.824C38.8442 35.448 41.436 36.492 41.436 39.516C41.4238 41.712 39.7798 42.912 37.6919 43.308Z" fill-rule="evenodd" fill="#FFFFFF"/>
	<defs/>
</svg>
