<svg width="80.000000" height="99.662567" viewBox="0 0 80 99.6626" fill="none" xmlns="http://www.w3.org/2000/svg" xmlns:xlink="http://www.w3.org/1999/xlink">
	<desc>
			Created with Pixso.
	</desc>
	<g filter="url(#filter_1_1215_dd)">
		<rect id="Rectangle 17336" x="4.500000" y="0.500000" rx="15.000000" width="71.000000" height="71.000000" fill="#1BC4B3"/>
		<path id="Business" d="M36.3477 76.3735Q36.1328 76.6157 36.1328 76.9673Q36.1328 77.3188 36.3477 77.5532Q36.5625 77.7876 36.9844 77.7876Q37.4062 77.7876 37.625 77.5532Q37.8438 77.3188 37.8438 76.9673Q37.8438 76.6157 37.625 76.3735Q37.4062 76.1313 36.9844 76.1313Q36.5625 76.1313 36.3477 76.3735ZM9.32031 76.2876L9.32031 87.6626L13.2656 87.6626Q15.0781 87.6626 16.0703 86.7876Q17.0625 85.9126 17.0625 84.3813Q17.0625 83.3813 16.5273 82.6587Q15.9922 81.936 15.0703 81.6782Q15.8516 81.3423 16.3047 80.729Q16.7578 80.1157 16.7578 79.3188Q16.7578 77.8188 15.8242 77.0532Q14.8906 76.2876 13.0391 76.2876L9.32031 76.2876ZM13.0859 81.1391L10.8203 81.1391L10.8203 77.5219L13.0391 77.5219Q14.1562 77.5219 14.7031 77.9477Q15.25 78.3735 15.25 79.311Q15.25 80.1548 14.6602 80.6469Q14.0703 81.1391 13.0859 81.1391ZM32.3555 84.5102Q32.7969 84.8344 32.7969 85.4204Q32.7969 85.9751 32.3008 86.3071Q31.8047 86.6391 30.9844 86.6391Q30.0938 86.6391 29.5508 86.2133Q29.0078 85.7876 28.9688 85.061L27.5234 85.061Q27.5234 85.811 27.9648 86.4555Q28.4062 87.1001 29.1875 87.4594Q29.9688 87.8188 30.9844 87.8188Q32.4297 87.8188 33.3359 87.1352Q34.2422 86.4516 34.2422 85.3188Q34.2422 84.6391 33.918 84.1665Q33.5938 83.6938 32.9219 83.3579Q32.25 83.0219 31.168 82.7798Q30.0859 82.5376 29.6719 82.2719Q29.2578 82.0063 29.2578 81.4829Q29.2578 80.9282 29.7031 80.5844Q30.1484 80.2407 30.9375 80.2407Q31.7031 80.2407 32.207 80.6704Q32.7109 81.1001 32.7109 81.6938L34.1641 81.6938Q34.1641 80.5376 33.2695 79.7954Q32.375 79.0532 30.9375 79.0532Q29.5703 79.0532 28.6914 79.7719Q27.8125 80.4907 27.8125 81.5298Q27.8125 82.1548 28.1211 82.6079Q28.4297 83.061 29.0742 83.3891Q29.7188 83.7173 30.8164 83.9516Q31.9141 84.186 32.3555 84.5102ZM41.4219 80.2719L41.375 79.2094L40.0078 79.2094L40.0078 87.6626L41.4531 87.6626L41.4531 81.6391Q41.75 81.0298 42.2812 80.6548Q42.8125 80.2798 43.5156 80.2798Q44.3828 80.2798 44.793 80.7173Q45.2031 81.1548 45.2109 82.0688L45.2109 87.6626L46.6562 87.6626L46.6562 82.0766Q46.6328 79.0532 43.9531 79.0532Q42.3906 79.0532 41.4219 80.2719ZM49.5469 86.6899Q50.625 87.8188 52.3438 87.8188Q54.4688 87.8188 55.5312 86.186L54.6484 85.4985Q54.25 86.0141 53.7188 86.3266Q53.1875 86.6391 52.4219 86.6391Q51.3438 86.6391 50.6445 85.8696Q49.9453 85.1001 49.9141 83.8501L55.6406 83.8501L55.6406 83.2485Q55.6406 81.2251 54.7266 80.1391Q53.8125 79.0532 52.1641 79.0532Q51.1562 79.0532 50.293 79.6118Q49.4297 80.1704 48.9492 81.1587Q48.4688 82.1469 48.4688 83.4048L48.4688 83.6704Q48.4688 85.561 49.5469 86.6899ZM61.793 84.5102Q62.2344 84.8344 62.2344 85.4204Q62.2344 85.9751 61.7383 86.3071Q61.2422 86.6391 60.4219 86.6391Q59.5312 86.6391 58.9883 86.2133Q58.4453 85.7876 58.4062 85.061L56.9609 85.061Q56.9609 85.811 57.4023 86.4555Q57.8438 87.1001 58.625 87.4594Q59.4062 87.8188 60.4219 87.8188Q61.8672 87.8188 62.7734 87.1352Q63.6797 86.4516 63.6797 85.3188Q63.6797 84.6391 63.3555 84.1665Q63.0312 83.6938 62.3594 83.3579Q61.6875 83.0219 60.6055 82.7798Q59.5234 82.5376 59.1094 82.2719Q58.6953 82.0063 58.6953 81.4829Q58.6953 80.9282 59.1406 80.5844Q59.5859 80.2407 60.375 80.2407Q61.1406 80.2407 61.6445 80.6704Q62.1484 81.1001 62.1484 81.6938L63.6016 81.6938Q63.6016 80.5376 62.707 79.7954Q61.8125 79.0532 60.375 79.0532Q59.0078 79.0532 58.1289 79.7719Q57.25 80.4907 57.25 81.5298Q57.25 82.1548 57.5586 82.6079Q57.8672 83.061 58.5117 83.3891Q59.1562 83.7173 60.2539 83.9516Q61.3516 84.186 61.793 84.5102ZM70.043 84.5102Q70.4844 84.8344 70.4844 85.4204Q70.4844 85.9751 69.9883 86.3071Q69.4922 86.6391 68.6719 86.6391Q67.7812 86.6391 67.2383 86.2133Q66.6953 85.7876 66.6562 85.061L65.2109 85.061Q65.2109 85.811 65.6523 86.4555Q66.0938 87.1001 66.875 87.4594Q67.6562 87.8188 68.6719 87.8188Q70.1172 87.8188 71.0234 87.1352Q71.9297 86.4516 71.9297 85.3188Q71.9297 84.6391 71.6055 84.1665Q71.2812 83.6938 70.6094 83.3579Q69.9375 83.0219 68.8555 82.7798Q67.7734 82.5376 67.3594 82.2719Q66.9453 82.0063 66.9453 81.4829Q66.9453 80.9282 67.3906 80.5844Q67.8359 80.2407 68.625 80.2407Q69.3906 80.2407 69.8945 80.6704Q70.3984 81.1001 70.3984 81.6938L71.8516 81.6938Q71.8516 80.5376 70.957 79.7954Q70.0625 79.0532 68.625 79.0532Q67.2578 79.0532 66.3789 79.7719Q65.5 80.4907 65.5 81.5298Q65.5 82.1548 65.8086 82.6079Q66.1172 83.061 66.7617 83.3891Q67.4062 83.7173 68.5039 83.9516Q69.6016 84.186 70.043 84.5102ZM21.7969 87.8188Q23.4297 87.8188 24.2734 86.8266L24.3047 87.6626L25.6797 87.6626L25.6797 79.2094L24.2344 79.2094L24.2344 85.3579Q23.6875 86.5923 22.0312 86.5923Q20.4688 86.5923 20.4688 84.6704L20.4688 79.2094L19.0234 79.2094L19.0234 84.7094Q19.0312 86.2485 19.7383 87.0337Q20.4453 87.8188 21.7969 87.8188ZM36.25 87.6626L37.6953 87.6626L37.6953 79.2094L36.25 79.2094L36.25 87.6626ZM50.6953 80.8774Q51.2891 80.2407 52.1641 80.2407Q53.0703 80.2407 53.6016 80.8462Q54.1328 81.4516 54.1953 82.5532L54.1953 82.6626L49.9609 82.6626Q50.1016 81.5141 50.6953 80.8774ZM10.8203 86.436L10.8203 82.3423L13.3203 82.3423Q15.5547 82.3423 15.5547 84.3969Q15.5547 85.3501 14.9492 85.893Q14.3438 86.436 13.2969 86.436L10.8203 86.436Z" fill="#000000FF"/>
		<path id="Icon material-business-center" d="M37.6001 40.4445L37.6001 39.3333L29.2119 39.3333L29.2002 43.7778C29.2002 45.0111 30.2681 46 31.6001 46L48.3999 46C49.7319 46 50.7998 45.0111 50.7998 43.7778L50.7998 39.3333L42.3999 39.3333L42.3999 40.4445L37.6001 40.4445ZM49.6001 30.4445L44.7881 30.4445L44.7881 28.2222L42.3882 26L37.5879 26L35.188 28.2222L35.188 30.4445L30.3999 30.4445C29.0801 30.4445 28 31.4445 28 32.6667L28 36C28 37.2333 29.0679 38.2222 30.3999 38.2222L37.6001 38.2222L37.6001 36L42.3999 36L42.3999 38.2222L49.6001 38.2222C50.9199 38.2222 52 37.2222 52 36L52 32.6667C52 31.4445 50.9199 30.4445 49.6001 30.4445ZM42.3999 30.4445L37.6001 30.4445L37.6001 28.2222L42.3999 28.2222L42.3999 30.4445Z" fill-rule="evenodd" fill="#FFFFFF"/>
	</g>
	<defs>
		<filter id="filter_1_1215_dd" x="0.000000" y="0.000000" width="80.000000" height="99.662567" filterUnits="userSpaceOnUse" color-interpolation-filters="sRGB">
			<feFlood flood-opacity="0" result="BackgroundImageFix"/>
			<feColorMatrix in="SourceAlpha" type="matrix" values="0 0 0 0 0 0 0 0 0 0 0 0 0 0 0 0 0 0 127 0"/>
			<feOffset dx="0" dy="4"/>
			<feGaussianBlur stdDeviation="1.33333"/>
			<feColorMatrix type="matrix" values="0 0 0 0 0 0 0 0 0 0 0 0 0 0 0 0 0 0 0.25 0"/>
			<feBlend mode="normal" in2="BackgroundImageFix" result="effect_dropShadow_1"/>
			<feBlend mode="normal" in="SourceGraphic" in2="effect_dropShadow_1" result="shape"/>
		</filter>
	</defs>
</svg>
