<svg width="80.000000" height="99.662567" viewBox="0 0 80 99.6626" fill="none" xmlns="http://www.w3.org/2000/svg" xmlns:xlink="http://www.w3.org/1999/xlink">
	<desc>
			Created with Pixso.
	</desc>
	<g filter="url(#filter_1_1219_dd)">
		<rect id="Rectangle 17336" x="4.500000" y="0.500000" rx="15.000000" width="71.000000" height="71.000000" fill="#1BC4B3"/>
		<path id="Lifestyle" d="M24.2969 80.3266L24.2969 87.6626L25.7422 87.6626L25.7422 80.3266L27.5469 80.3266L27.5469 79.2094L25.7422 79.2094L25.7422 78.3188Q25.7422 77.5532 26.125 77.143Q26.5078 76.7329 27.2109 76.7329Q27.625 76.7329 27.9922 76.8032L28.0703 75.6313Q27.5781 75.4985 27.0781 75.4985Q25.75 75.4985 25.0234 76.2407Q24.2969 76.9829 24.2969 78.3423L24.2969 79.2094L22.9609 79.2094L22.9609 80.3266L24.2969 80.3266ZM58.6016 87.6626L60.0469 87.6626L60.0469 75.6626L58.6016 75.6626L58.6016 87.6626ZM19.9258 76.3735Q19.7109 76.6157 19.7109 76.9673Q19.7109 77.3188 19.9258 77.5532Q20.1406 77.7876 20.5625 77.7876Q20.9844 77.7876 21.2031 77.5532Q21.4219 77.3188 21.4219 76.9673Q21.4219 76.6157 21.2031 76.3735Q20.9844 76.1313 20.5625 76.1313Q20.1406 76.1313 19.9258 76.3735ZM18.2188 86.436L12.8281 86.436L12.8281 76.2876L11.3203 76.2876L11.3203 87.6626L18.2188 87.6626L18.2188 86.436ZM47.6406 79.2094L47.6406 77.1626L46.1953 77.1626L46.1953 79.2094L44.6562 79.2094L44.6562 80.3266L46.1953 80.3266L46.1953 85.5688Q46.1953 86.6469 46.6875 87.2329Q47.1797 87.8188 48.1484 87.8188Q48.6875 87.8188 49.2578 87.6626L49.2578 86.4907Q48.8203 86.5844 48.5703 86.5844Q48.0625 86.5844 47.8516 86.3305Q47.6406 86.0766 47.6406 85.5688L47.6406 80.3266L49.2188 80.3266L49.2188 79.2094L47.6406 79.2094ZM29.6641 86.6899Q30.7422 87.8188 32.4609 87.8188Q34.5859 87.8188 35.6484 86.186L34.7656 85.4985Q34.3672 86.0141 33.8359 86.3266Q33.3047 86.6391 32.5391 86.6391Q31.4609 86.6391 30.7617 85.8696Q30.0625 85.1001 30.0312 83.8501L35.7578 83.8501L35.7578 83.2485Q35.7578 81.2251 34.8438 80.1391Q33.9297 79.0532 32.2812 79.0532Q31.2734 79.0532 30.4102 79.6118Q29.5469 80.1704 29.0664 81.1587Q28.5859 82.1469 28.5859 83.4048L28.5859 83.6704Q28.5859 85.561 29.6641 86.6899ZM41.9102 84.5102Q42.3516 84.8344 42.3516 85.4204Q42.3516 85.9751 41.8555 86.3071Q41.3594 86.6391 40.5391 86.6391Q39.6484 86.6391 39.1055 86.2133Q38.5625 85.7876 38.5234 85.061L37.0781 85.061Q37.0781 85.811 37.5195 86.4555Q37.9609 87.1001 38.7422 87.4594Q39.5234 87.8188 40.5391 87.8188Q41.9844 87.8188 42.8906 87.1352Q43.7969 86.4516 43.7969 85.3188Q43.7969 84.6391 43.4727 84.1665Q43.1484 83.6938 42.4766 83.3579Q41.8047 83.0219 40.7227 82.7798Q39.6406 82.5376 39.2266 82.2719Q38.8125 82.0063 38.8125 81.4829Q38.8125 80.9282 39.2578 80.5844Q39.7031 80.2407 40.4922 80.2407Q41.2578 80.2407 41.7617 80.6704Q42.2656 81.1001 42.2656 81.6938L43.7188 81.6938Q43.7188 80.5376 42.8242 79.7954Q41.9297 79.0532 40.4922 79.0532Q39.125 79.0532 38.2461 79.7719Q37.3672 80.4907 37.3672 81.5298Q37.3672 82.1548 37.6758 82.6079Q37.9844 83.061 38.6289 83.3891Q39.2734 83.7173 40.3711 83.9516Q41.4688 84.186 41.9102 84.5102ZM63.0703 86.6899Q64.1484 87.8188 65.8672 87.8188Q67.9922 87.8188 69.0547 86.186L68.1719 85.4985Q67.7734 86.0141 67.2422 86.3266Q66.7109 86.6391 65.9453 86.6391Q64.8672 86.6391 64.168 85.8696Q63.4688 85.1001 63.4375 83.8501L69.1641 83.8501L69.1641 83.2485Q69.1641 81.2251 68.25 80.1391Q67.3359 79.0532 65.6875 79.0532Q64.6797 79.0532 63.8164 79.6118Q62.9531 80.1704 62.4727 81.1587Q61.9922 82.1469 61.9922 83.4048L61.9922 83.6704Q61.9922 85.561 63.0703 86.6899ZM19.8281 87.6626L21.2734 87.6626L21.2734 79.2094L19.8281 79.2094L19.8281 87.6626ZM55.6406 79.2094L53.6719 85.5454L51.5625 79.2094L49.9844 79.2094L53 87.5688L52.6797 88.4282Q52.4141 89.2173 52.0039 89.5141Q51.5938 89.811 50.8594 89.811L50.4688 89.7798L50.4688 90.9516L51.0078 91.0532L51.2812 91.0766Q53 91.0766 53.7891 88.9673L57.1875 79.2094L55.6406 79.2094ZM30.8125 80.8774Q31.4062 80.2407 32.2812 80.2407Q33.1875 80.2407 33.7188 80.8462Q34.25 81.4516 34.3125 82.5532L34.3125 82.6626L30.0781 82.6626Q30.2188 81.5141 30.8125 80.8774ZM64.2188 80.8774Q64.8125 80.2407 65.6875 80.2407Q66.5938 80.2407 67.125 80.8462Q67.6562 81.4516 67.7188 82.5532L67.7188 82.6626L63.4844 82.6626Q63.625 81.5141 64.2188 80.8774Z" fill="#000000FF"/>
		<circle id="Ellipse 28" cx="49.000000" cy="30.983948" r="7.000000" fill="#FFFFFF"/>
		<rect id="Rectangle 17337" x="31.000000" y="38.983948" rx="1.000000" width="12.000000" height="12.000000" fill="#FFFFFF"/>
		<path id="Path 5063" d="M39.5 34.9839L24.5 34.9839C24.3184 34.9839 24.1509 34.8853 24.0625 34.7263C23.9746 34.5674 23.9795 34.3731 24.0762 34.2189L31.5762 22.2189C31.6733 22.0816 31.8315 22 32 22C32.1685 22 32.3267 22.0816 32.4238 22.2189L39.9238 34.2189C40.0205 34.3731 40.0254 34.5674 39.9375 34.7263C39.8491 34.8853 39.6816 34.9839 39.5 34.9839Z" fill-rule="evenodd" fill="#FFFFFF"/>
	</g>
	<defs>
		<filter id="filter_1_1219_dd" x="0.000000" y="0.000000" width="80.000000" height="99.662567" filterUnits="userSpaceOnUse" color-interpolation-filters="sRGB">
			<feFlood flood-opacity="0" result="BackgroundImageFix"/>
			<feColorMatrix in="SourceAlpha" type="matrix" values="0 0 0 0 0 0 0 0 0 0 0 0 0 0 0 0 0 0 127 0"/>
			<feOffset dx="0" dy="4"/>
			<feGaussianBlur stdDeviation="1.33333"/>
			<feColorMatrix type="matrix" values="0 0 0 0 0 0 0 0 0 0 0 0 0 0 0 0 0 0 0.25 0"/>
			<feBlend mode="normal" in2="BackgroundImageFix" result="effect_dropShadow_1"/>
			<feBlend mode="normal" in="SourceGraphic" in2="effect_dropShadow_1" result="shape"/>
		</filter>
	</defs>
</svg>
