<?xml version="1.0" encoding="UTF-8" standalone="no"?> <svg width="64" height="64" viewBox="0 0 64 64" fill="none" xmlns="http://www.w3.org/2000/svg">
<path d="M59 2H5C4.20508 2.00237 3.4434 2.31921 2.8813 2.8813C2.31921 3.4434 2.00237 4.20508 2 5V47C2.00237 47.7949 2.31921 48.5566 2.8813 49.1187C3.4434 49.6808 4.20508 49.9976 5 50H25.56L23.31 56H20C19.2051 56.0024 18.4434 56.3192 17.8813 56.8813C17.3192 57.4434 17.0024 58.2051 17 59V61C17 61.2652 17.1054 61.5196 17.2929 61.7071C17.4804 61.8946 17.7348 62 18 62H46C46.2652 62 46.5196 61.8946 46.7071 61.7071C46.8946 61.5196 47 61.2652 47 61V59C46.9976 58.2051 46.6808 57.4434 46.1187 56.8813C45.5566 56.3192 44.7949 56.0024 44 56H40.69L38.44 50H59C59.7949 49.9976 60.5566 49.6808 61.1187 49.1187C61.6808 48.5566 61.9976 47.7949 62 47V5C61.9976 4.20508 61.6808 3.4434 61.1187 2.8813C60.5566 2.31921 59.7949 2.00237 59 2V2ZM4 5C4 4.73478 4.10536 4.48043 4.29289 4.29289C4.48043 4.10536 4.73478 4 5 4H30.95V22H27.96C27.8534 20.886 27.3771 19.8396 26.6069 19.0277C25.8367 18.2158 24.8169 17.6851 23.71 17.52L21.87 17.26C21.6296 17.2285 21.4089 17.1107 21.2488 16.9286C21.0888 16.7465 21.0004 16.5124 21 16.27V15.97C21.6197 15.5099 22.1233 14.9113 22.4705 14.222C22.8178 13.5327 22.9991 12.7718 23 12V11C23.2652 11 23.5196 10.8946 23.7071 10.7071C23.8946 10.5196 24 10.2652 24 10V9C24 7.93913 23.5786 6.92172 22.8284 6.17157C22.0783 5.42143 21.0609 5 20 5H11C10.7348 5 10.4804 5.10536 10.2929 5.29289C10.1054 5.48043 10 5.73478 10 6V7C10.0029 7.88456 10.2989 8.74321 10.8417 9.44164C11.3845 10.1401 12.1435 10.6389 13 10.86V12C13.0009 12.7718 13.1822 13.5327 13.5295 14.222C13.8767 14.9113 14.3803 15.5099 15 15.97V16.27C15 16.5109 14.9129 16.7438 14.7549 16.9256C14.5969 17.1075 14.3786 17.2263 14.14 17.26L12.29 17.52C11.1831 17.6851 10.1633 18.2158 9.3931 19.0277C8.62288 19.8396 8.14655 20.886 8.04 22H4V5ZM22.66 26.34C21.2216 24.9039 19.2915 24.0675 17.26 24H30.95V42H27.29C26.7759 40.9125 25.9865 39.9783 25 39.29V32C25.0036 30.9487 24.7987 29.9071 24.397 28.9356C23.9953 27.964 23.4049 27.0818 22.66 26.34V26.34ZM16 38V37.9C16.66 38.0333 17.34 38.0333 18 37.9V38C18.0016 38.5299 18.2128 39.0377 18.5875 39.4125C18.9623 39.7872 19.4701 39.9984 20 40H20.19C19.8768 40.5809 19.4182 41.0706 18.8591 41.4212C18.2999 41.7718 17.6593 41.9712 17 42C16.3407 41.9712 15.7001 41.7718 15.1409 41.4212C14.5818 41.0706 14.1232 40.5809 13.81 40H14C14.5299 39.9984 15.0377 39.7872 15.4125 39.4125C15.7872 39.0377 15.9984 38.5299 16 38ZM14 33V32H20V33C20 33.7956 19.6839 34.5587 19.1213 35.1213C18.5587 35.6839 17.7956 36 17 36C16.2044 36 15.4413 35.6839 14.8787 35.1213C14.3161 34.5587 14 33.7956 14 33ZM20 38V36.97C20.6197 36.5099 21.1233 35.9113 21.4705 35.222C21.8178 34.5327 21.9991 33.7718 22 33V31C22 30.7348 21.8946 30.4804 21.7071 30.2929C21.5196 30.1054 21.2652 30 21 30H13C12.7348 30 12.4804 30.1054 12.2929 30.2929C12.1054 30.4804 12 30.7348 12 31V33C12.0009 33.7718 12.1822 34.5327 12.5295 35.222C12.8767 35.9113 13.3803 36.5099 14 36.97V38H13C12.3223 38.0029 11.6487 38.1039 11 38.3V32.29C11.0018 31.431 11.1763 30.5812 11.513 29.791C11.8497 29.0008 12.3418 28.2863 12.96 27.69C13.5129 27.1323 14.1747 26.6945 14.9041 26.4038C15.6336 26.113 16.4151 25.9756 17.2 26C18.755 26.0559 20.228 26.7121 21.3094 27.8309C22.3909 28.9496 22.9969 30.444 23 32V38.3C22.3512 38.1047 21.6776 38.0036 21 38H20ZM12.8 42H9.01C9.14704 41.8098 9.301 41.6324 9.47 41.47C9.77781 41.1563 10.1278 40.887 10.51 40.67C10.8685 40.4537 11.2556 40.2888 11.66 40.18C11.9443 40.8416 12.3288 41.4555 12.8 42V42ZM15 11H21V12C21 12.7956 20.6839 13.5587 20.1213 14.1213C19.5587 14.6839 18.7956 15 18 15C17.2044 15 16.4413 14.6839 15.8787 14.1213C15.3161 13.5587 15 12.7956 15 12V11ZM14 9C13.4701 8.99842 12.9623 8.7872 12.5875 8.41247C12.2128 8.03773 12.0016 7.52995 12 7H20C20.5299 7.00158 21.0377 7.2128 21.4125 7.58753C21.7872 7.96227 21.9984 8.47005 22 9H14ZM19.81 18.31L18 19.73L16.19 18.31C16.5667 17.9127 16.8233 17.417 16.93 16.88C17.6344 17.04 18.3656 17.04 19.07 16.88C19.1767 17.417 19.4333 17.9127 19.81 18.31V18.31ZM17.38 21.79C17.558 21.9262 17.7759 22.0001 18 22.0001C18.2241 22.0001 18.442 21.9262 18.62 21.79L21.83 19.28L23.43 19.5C24.0632 19.5924 24.6503 19.8848 25.1054 20.3346C25.5606 20.7844 25.8601 21.3679 25.96 22H10.04C10.1399 21.3679 10.4394 20.7844 10.8946 20.3346C11.3497 19.8848 11.9368 19.5924 12.57 19.5L14.17 19.28L17.38 21.79ZM22.34 40.18C22.7473 40.2941 23.1374 40.4622 23.5 40.68C24.0797 41.0123 24.5838 41.4619 24.98 42H21.2C21.6712 41.4555 22.0557 40.8416 22.34 40.18V40.18ZM4 24H17.01C14.9697 24.012 13.0145 24.8192 11.56 26.25C10.7523 27.0354 10.1098 27.9743 9.67018 29.0115C9.23055 30.0488 9.00269 31.1634 9 32.29V39.28C7.99576 39.9611 7.19418 40.9009 6.68 42H4V24ZM44 58C44.2652 58 44.5196 58.1054 44.7071 58.2929C44.8946 58.4804 45 58.7348 45 59V60H19V59C19 58.7348 19.1054 58.4804 19.2929 58.2929C19.4804 58.1054 19.7348 58 20 58H44ZM38.56 56H25.44L27.69 50H36.31L38.56 56ZM60 47C60 47.2652 59.8946 47.5196 59.7071 47.7071C59.5196 47.8946 59.2652 48 59 48H5C4.73478 48 4.48043 47.8946 4.29289 47.7071C4.10536 47.5196 4 47.2652 4 47V44H60V47ZM55.18 37.38C55.4207 37.5541 55.6191 37.7802 55.7606 38.0414C55.9021 38.3026 55.9831 38.5922 55.9975 38.889C56.0119 39.1857 55.9594 39.4818 55.8438 39.7555C55.7283 40.0292 55.5527 40.2734 55.33 40.47C55.21 40.33 55.08 40.19 54.95 40.06C54.253 39.3461 53.4058 38.7961 52.47 38.45C51.6642 38.2159 50.8366 38.0651 50 38V36.97C50.6197 36.5099 51.1233 35.9113 51.4705 35.222C51.8178 34.5327 51.9991 33.7718 52 33V31C52 30.7348 51.8946 30.4804 51.7071 30.2929C51.5196 30.1054 51.2652 30 51 30H50.85C50.4788 30.0018 50.1147 29.8985 49.7997 29.7021C49.4847 29.5057 49.2317 29.2241 49.07 28.89L48.89 28.55C48.8182 28.4098 48.715 28.2881 48.5883 28.1944C48.4617 28.1007 48.3151 28.0376 48.16 28.01C48.0047 27.9843 47.8455 27.9964 47.6958 28.0451C47.5462 28.0938 47.4104 28.1778 47.3 28.29L46.74 28.84C46.3701 29.2104 45.9304 29.5036 45.4463 29.7028C44.9622 29.9019 44.4434 30.0029 43.92 30H43C42.7348 30 42.4804 30.1054 42.2929 30.2929C42.1054 30.4804 42 30.7348 42 31V33C42.0009 33.7718 42.1822 34.5327 42.5295 35.222C42.8767 35.9113 43.3803 36.5099 44 36.97V38C43.1771 38.0631 42.3628 38.2105 41.57 38.44C40.6228 38.7809 39.7648 39.3313 39.06 40.05C38.92 40.18 38.8 40.33 38.67 40.47C38.4473 40.2734 38.2717 40.0292 38.1562 39.7555C38.0406 39.4818 37.9881 39.1857 38.0025 38.889C38.0169 38.5922 38.0979 38.3026 38.2394 38.0414C38.3809 37.7802 38.5793 37.5541 38.82 37.38C39.4858 36.9171 40.0312 36.3016 40.4104 35.5848C40.7897 34.868 40.9918 34.0709 41 33.26V32C41 30.4087 41.6321 28.8826 42.7574 27.7574C43.8826 26.6321 45.4087 26 47 26C48.5913 26 50.1174 26.6321 51.2426 27.7574C52.3679 28.8826 53 30.4087 53 32V33.26C53.0082 34.0709 53.2103 34.868 53.5896 35.5848C53.9688 36.3016 54.5142 36.9171 55.18 37.38V37.38ZM48.91 39.67L47 41.59L45.09 39.67C45.37 39.4907 45.6002 39.2437 45.7593 38.9517C45.9183 38.6598 46.0011 38.3325 46 38V37.9C46.66 38.0333 47.34 38.0333 48 37.9V38C47.9989 38.3325 48.0817 38.6598 48.2407 38.9517C48.3998 39.2437 48.63 39.4907 48.91 39.67V39.67ZM47 36C46.2051 35.9976 45.4434 35.6808 44.8813 35.1187C44.3192 34.5566 44.0024 33.7949 44 33V32C45.3932 31.9829 46.737 31.4808 47.8 30.58C48.3641 31.2567 49.1386 31.725 50 31.91V33C49.9976 33.7949 49.6808 34.5566 49.1187 35.1187C48.5566 35.6808 47.7949 35.9976 47 36ZM44.59 42H40.01C40.1495 41.8086 40.3033 41.6281 40.47 41.46C40.9808 40.9426 41.6034 40.5492 42.29 40.31C42.4358 40.2481 42.5862 40.1979 42.74 40.16L44.59 42ZM53.99 42H49.41L51.26 40.16C51.4271 40.2012 51.5908 40.2547 51.75 40.32C52.4253 40.5643 53.0371 40.9573 53.54 41.47C53.7006 41.6374 53.8509 41.8144 53.99 42ZM60 42H56.62C57.075 41.6074 57.4352 41.1169 57.6735 40.5652C57.9119 40.0135 58.0222 39.415 57.9962 38.8146C57.9703 38.2142 57.8087 37.6275 57.5235 37.0984C57.2384 36.5694 56.8372 36.1118 56.35 35.76C55.9412 35.4819 55.6051 35.1097 55.3702 34.6746C55.1352 34.2395 55.0083 33.7544 55 33.26V32C55 29.8783 54.1571 27.8434 52.6569 26.3431C51.1566 24.8429 49.1217 24 47 24C44.8783 24 42.8434 24.8429 41.3431 26.3431C39.8429 27.8434 39 29.8783 39 32V33.26C38.9917 33.7544 38.8648 34.2395 38.6298 34.6746C38.3949 35.1097 38.0588 35.4819 37.65 35.76C37.1628 36.1118 36.7616 36.5694 36.4765 37.0984C36.1913 37.6275 36.0297 38.2142 36.0038 38.8146C35.9778 39.415 36.0881 40.0135 36.3265 40.5652C36.5648 41.1169 36.925 41.6074 37.38 42H32.95V24H60V42ZM50 11C50 11.7956 49.6839 12.5587 49.1213 13.1213C48.5587 13.6839 47.7956 14 47 14C46.2044 14 45.4413 13.6839 44.8787 13.1213C44.3161 12.5587 44 11.7956 44 11H50ZM43.13 9C43.3537 8.144 43.8549 7.38634 44.5552 6.84558C45.2555 6.30482 46.1152 6.01148 47 6.01148C47.8848 6.01148 48.7445 6.30482 49.4448 6.84558C50.1451 7.38634 50.6463 8.144 50.87 9H43.13ZM49.67 17.97C48.9387 18.6328 47.987 18.9999 47 18.9999C46.013 18.9999 45.0613 18.6328 44.33 17.97C44.7956 17.8905 45.2183 17.6494 45.5237 17.2891C45.8292 16.9288 45.9978 16.4723 46 16V15.9C46.66 16.0333 47.34 16.0333 48 15.9V16C48.0022 16.4723 48.1708 16.9288 48.4763 17.2891C48.7817 17.6494 49.2044 17.8905 49.67 17.97ZM47 21C48.0187 20.9983 49.0203 20.7378 49.9107 20.2427C50.8011 19.7477 51.551 19.0344 52.09 18.17C52.9248 18.4064 53.6601 18.9079 54.185 19.5987C54.7099 20.2896 54.996 21.1324 55 22H39C39.004 21.1324 39.2901 20.2896 39.815 19.5987C40.3399 18.9079 41.0752 18.4064 41.91 18.17C42.449 19.0344 43.1989 19.7477 44.0893 20.2427C44.9797 20.7378 45.9813 20.9983 47 21V21ZM60 22H57C56.9973 20.5117 56.4426 19.0773 55.4432 17.9745C54.4438 16.8717 53.0708 16.1788 51.59 16.03C51.4 16.01 50 16 50 16V14.97C50.6197 14.5099 51.1233 13.9113 51.4705 13.222C51.8178 12.5327 51.9991 11.7718 52 11C52.2652 11 52.5196 10.8946 52.7071 10.7071C52.8946 10.5196 53 10.2652 53 10C53 8.4087 52.3679 6.88258 51.2426 5.75736C50.1174 4.63214 48.5913 4 47 4C45.4087 4 43.8826 4.63214 42.7574 5.75736C41.6321 6.88258 41 8.4087 41 10C41 10.2652 41.1054 10.5196 41.2929 10.7071C41.4804 10.8946 41.7348 11 42 11C42.0009 11.7718 42.1822 12.5327 42.5295 13.222C42.8767 13.9113 43.3803 14.5099 44 14.97V16C44 16 42.6 16.01 42.41 16.03C40.9292 16.1788 39.5562 16.8717 38.5568 17.9745C37.5574 19.0773 37.0027 20.5117 37 22H32.95V4H59C59.2652 4 59.5196 4.10536 59.7071 4.29289C59.8946 4.48043 60 4.73478 60 5V22Z" fill="black"/>
<path d="M33 45H31C30.7348 45 30.4804 45.1054 30.2929 45.2929C30.1054 45.4804 30 45.7348 30 46C30 46.2652 30.1054 46.5196 30.2929 46.7071C30.4804 46.8946 30.7348 47 31 47H33C33.2652 47 33.5196 46.8946 33.7071 46.7071C33.8946 46.5196 34 46.2652 34 46C34 45.7348 33.8946 45.4804 33.7071 45.2929C33.5196 45.1054 33.2652 45 33 45Z" fill="black"/>
<path d="M6 7H7C7.26522 7 7.51957 6.89464 7.70711 6.70711C7.89464 6.51957 8 6.26522 8 6C8 5.73478 7.89464 5.48043 7.70711 5.29289C7.51957 5.10536 7.26522 5 7 5H6C5.73478 5 5.48043 5.10536 5.29289 5.29289C5.10536 5.48043 5 5.73478 5 6C5 6.26522 5.10536 6.51957 5.29289 6.70711C5.48043 6.89464 5.73478 7 6 7Z" fill="black"/>
<path d="M35 7H36C36.2652 7 36.5196 6.89464 36.7071 6.70711C36.8946 6.51957 37 6.26522 37 6C37 5.73478 36.8946 5.48043 36.7071 5.29289C36.5196 5.10536 36.2652 5 36 5H35C34.7348 5 34.4804 5.10536 34.2929 5.29289C34.1054 5.48043 34 5.73478 34 6C34 6.26522 34.1054 6.51957 34.2929 6.70711C34.4804 6.89464 34.7348 7 35 7Z" fill="black"/>
<path d="M36 25H35C34.7348 25 34.4804 25.1054 34.2929 25.2929C34.1054 25.4804 34 25.7348 34 26C34 26.2652 34.1054 26.5196 34.2929 26.7071C34.4804 26.8946 34.7348 27 35 27H36C36.2652 27 36.5196 26.8946 36.7071 26.7071C36.8946 26.5196 37 26.2652 37 26C37 25.7348 36.8946 25.4804 36.7071 25.2929C36.5196 25.1054 36.2652 25 36 25Z" fill="black"/>
<path d="M7 25H6C5.73478 25 5.48043 25.1054 5.29289 25.2929C5.10536 25.4804 5 25.7348 5 26C5 26.2652 5.10536 26.5196 5.29289 26.7071C5.48043 26.8946 5.73478 27 6 27H7C7.26522 27 7.51957 26.8946 7.70711 26.7071C7.89464 26.5196 8 26.2652 8 26C8 25.7348 7.89464 25.4804 7.70711 25.2929C7.51957 25.1054 7.26522 25 7 25Z" fill="black"/>
</svg>
