<?xml version='1.0' encoding='utf-8'?>
<svg xmlns="http://www.w3.org/2000/svg" version="1.1" width="1279px" height="960px" viewBox="-113 593 1279 960"> <g id="layer1"> <g style="fill:rgb(0,174,199); fill-opacity:1.0; stroke-linejoin: miter"> <path d="M-113.00101,592.27905C-113.19195,592.27905,-113.37506,592.35486,-113.51008,592.48987C-113.645096,592.6249,-113.72095,592.80804,-113.72095,592.99896L-113.71995,1552.9999C-113.71995,1553.3975,-113.39762,1553.7198,-113.00001,1553.7198L1166.0009,1553.7208C1166.1918,1553.7208,1166.3749,1553.6449,1166.5099,1553.5099C1166.6449,1553.3749,1166.7208,1553.1918,1166.7208,1553.0009L1166.7198,592.99994C1166.7198,592.60236,1166.3975,592.28,1165.9999,592.28L-113.00101,592.27905 Z"/> </g> <g style="fill:rgb(255,199,170); fill-opacity:0.99607843; stroke-linejoin: miter"> <path d="M936.4477,1032.4403L936.4476,1032.4404L936.4476,1032.4407L936.4477,1032.4403"/> </g> <g style="fill:rgb(0,0,0); fill-opacity:1.0; stroke-linejoin: miter"> <path d="M339.5985,1020.3005L368.70972,1020.30133L397.82123,1020.3005Q397.82092,1057.0695,397.82092,1093.8387Q368.71014,1093.8387,339.59863,1093.8394Q339.59833,1057.0695,339.5985,1020.3005 Z"/> </g> <g style="fill:rgb(0,0,0); fill-opacity:1.0; stroke-linejoin: miter"> <path d="M242.03233,866.7665L368.70984,866.76697L495.38727,866.7677Q495.3875,949.1432,495.38727,1031.5181Q368.7096,1031.5178,242.03226,1031.5184Q242.03233,949.1428,242.03233,866.7665 Z"/> </g> <g style="fill:rgb(60,70,79); fill-opacity:1.0; stroke-linejoin: miter"> <path d="M248.46112,874.2024L368.70984,874.20276L488.95795,874.20325Q488.95837,948.6956,488.95782,1023.1888Q368.7096,1023.1888,248.46112,1023.1888Q248.46112,948.6956,248.46112,874.2024 Z"/> </g> <g style="fill:rgb(0,0,0); fill-opacity:0.99607843; stroke-linejoin: miter"> <path d="M327.9082,1085.1576L368.70972,1085.1581L409.51135,1085.1589Q409.51135,1091.0118,409.51135,1096.8658Q368.70972,1096.8665,327.9082,1096.8665Q327.9082,1091.0118,327.9082,1085.1576"/> </g> <g style="fill:rgb(0,0,0); fill-opacity:0.21176471; stroke-linejoin: miter"> <path d="M1002.7304,1427.1488L998.71814,1429.8726Q970.19104,1438.1027,831.7781,1443.0374Q692.4074,1447.9679,503.54108,1447.036Q323.29285,1445.7334,215.22408,1439.413Q180.59763,1437.3699,158.1809,1434.9612L139.34018,1432.4843Q123.81373,1429.9277,123.63912,1427.1488Q128.35251,1418.6199,252.3791,1412.9568Q376.4057,1407.2935,563.1848,1407.0782Q749.9642,1407.2937,873.99066,1412.9574Q998.0171,1418.6202,1002.7304,1427.1488 Z"/> </g> <g style="fill:rgb(255,255,255); fill-opacity:0.99607843; stroke-linejoin: miter"> <path d="M288.6582,1109.2632L387.38116,1109.2643L486.10406,1109.2648Q486.10406,1169.1201,486.10406,1228.9761Q387.38116,1228.9766,288.6582,1228.9772Q288.6582,1169.1201,288.6582,1109.2632"/> </g> <g style="fill:rgb(255,255,255); fill-opacity:0.99607843; stroke-linejoin: miter"> <path d="M296.90723,1113.8429L314.66852,1113.8434L332.4295,1113.8442Q332.4295,1275.0399,332.4295,1436.2357Q314.66852,1436.2362,296.90723,1436.2369Q296.90723,1275.0399,296.90723,1113.8429"/> </g> <g style="fill:rgb(125,139,150); fill-opacity:0.99607843; stroke-linejoin: miter"> <path d="M305.12622,1142.7483L385.68152,1142.7488L466.23688,1142.7495Q466.23688,1174.6117,466.23688,1206.4738Q385.68152,1206.4746,305.12622,1206.4751Q305.12622,1174.6117,305.12622,1142.7483"/> </g> <g style="fill:rgb(255,255,255); fill-opacity:0.99607843; stroke-linejoin: miter"> <path d="M274.82257,1094.5872L554.89874,1094.5876L834.9747,1094.5879Q834.9747,1111.2029,834.9747,1127.8169Q554.89874,1127.818,274.82257,1127.8185Q274.82257,1111.2029,274.82257,1094.5872"/> </g> <g style="fill:rgb(255,255,255); fill-opacity:0.99607843; stroke-linejoin: miter"> <path d="M773.644,1122.4772L788.5178,1122.4779L803.3914,1122.4783Q803.3914,1272.8553,803.3914,1423.232Q788.5178,1423.2327,773.644,1423.2335Q773.644,1272.8553,773.644,1122.4772"/> </g> <g style="fill:rgb(0,0,0); fill-opacity:1.0; stroke-linejoin: miter"> <path d="M513.9614,979.1376L552.5539,979.1384L591.1461,979.1376Q591.1461,1027.8822,591.1461,1076.6271Q552.55365,1076.6273,513.9612,1076.6278Q513.9614,1027.8822,513.9614,979.1376 Z"/> </g> <g style="fill:rgb(0,0,0); fill-opacity:1.0; stroke-linejoin: miter"> <path d="M458.5056,1065.9501L552.55365,1065.9507L646.6018,1065.9512Q646.6018,1073.4341,646.6018,1080.917Q552.55365,1080.9175,458.5056,1080.917Q458.5056,1073.4341,458.5056,1065.9501 Z"/> </g> <g style="fill:rgb(252,233,234); fill-opacity:1.0; stroke-linejoin: miter"> <path d="M559.044,998.5127L559.044,998.5132L559.044,998.5139C559.044,998.8798,558.7467,999.1768,558.3804,999.1768C558.01373,999.1768,557.71655,998.8798,557.71655,998.5132L557.71655,998.5132L557.71655,998.5127C557.71655,998.14606,558.01373,997.8488,558.3804,997.8488C558.7467,997.8488,559.044,998.14606,559.044,998.5127 Z"/> </g> <g style="fill:rgb(0,0,0); fill-opacity:1.0; stroke-linejoin: miter"> <path d="M528.7547,1385.0366L536.13214,1419.4421Q516.64496,1423.344,508.99872,1423.4474Q501.98065,1423.994,489.13257,1421.0477L492.81976,1371.3732L528.7547,1385.0366 Z"/> </g> <g style="fill:rgb(0,0,0); fill-opacity:1.0; stroke-linejoin: miter"> <path d="M615.7199,1381.7598L620.49,1421.391Q606.30334,1425.5856,599.5331,1425.4319Q592.42377,1425.6271,579.6948,1421.6733L585.8455,1386.5332L615.7199,1381.7598 Z"/> </g> <g style="fill:rgb(60,70,79); fill-opacity:1.0; stroke-linejoin: miter"> <path d="M535.147,1230.7241L534.3206,1311.614L533.4945,1392.5043L489.21838,1393.1484Q480.28326,1312.0693,471.3485,1230.9901L535.147,1230.7241 Z"/> </g> <g style="fill:rgb(60,70,79); fill-opacity:1.0; stroke-linejoin: miter"> <path d="M575.77484,1229.2341L577.6861,1311.3872L579.59753,1393.5393Q602.5102,1393.4077,625.4229,1393.2762Q634.817,1309.5908,644.2115,1225.9056L575.77484,1229.2341 Z"/> </g> <g style="fill:rgb(0,0,0); fill-opacity:1.0; stroke-linejoin: miter"> <path d="M650.6897,1429.3394L649.8311,1431.1749Q643.7255,1436.7233,614.1019,1440.0494Q584.2736,1443.3734,543.85175,1442.7452Q505.2744,1441.8672,482.14502,1437.6066Q474.7343,1436.2294,469.9364,1434.6053L465.9041,1432.9352Q462.58118,1431.2122,462.54382,1429.3386Q463.55273,1423.5897,490.09705,1419.7721Q516.6419,1415.9545,556.6171,1415.8097Q596.59186,1415.9545,623.13666,1419.7723Q649.6812,1423.5901,650.6897,1429.3394 Z"/> </g> <g style="fill:rgb(0,0,0); fill-opacity:0.99607843; stroke-linejoin: miter"> <path d="M660.883,1226.5549L659.92114,1232.4746Q653.08075,1250.3643,619.893,1261.0901Q586.4753,1271.8071,541.19,1269.7819Q497.971,1266.9493,472.05884,1253.2129Q463.75635,1248.7722,458.38116,1243.5361L453.86365,1238.1521Q450.14093,1232.5952,450.09906,1226.5549Q451.22925,1208.017,480.96777,1195.7075Q510.70612,1183.3983,555.491,1182.9307Q600.27594,1183.3983,630.0145,1195.7075Q659.7529,1208.0175,660.883,1226.5549 Z"/> </g> <g style="fill:rgb(34,43,50); fill-opacity:1.0; stroke-linejoin: miter"> <path d="M576.88715,1382.6903L602.5333,1382.6903L628.1792,1382.6918Q628.1792,1388.5736,628.1792,1394.4553Q602.5333,1394.4568,576.88715,1394.4568Q576.88715,1388.5736,576.88715,1382.6903 Z"/> </g> <g style="fill:rgb(34,43,50); fill-opacity:1.0; stroke-linejoin: miter"> <path d="M487.16815,1384.9346L511.69476,1384.9355L536.2212,1384.9358Q536.2212,1390.7461,536.2212,1396.5559Q511.69476,1396.5566,487.16815,1396.5569Q487.16815,1390.7461,487.16815,1384.9346 Z"/> </g> <g style="fill:rgb(35,75,105); fill-opacity:0.99607843; stroke-linejoin: miter"> <path d="M315.02966,925.90295L315.02966,925.9033L315.02966,925.90356L315.02966,925.9033L315.02966,925.90295L315.02966,925.9033L315.02966,925.90356Q315.02966,925.9033,315.02966,925.90295 Z"/> </g> <g style="fill:rgb(0,0,0); fill-opacity:1.0; stroke-linejoin: miter"> <path d="M545.5851,1250.1619L556.6171,1250.1619L567.64874,1250.1626Q567.64874,1341.3329,567.64874,1432.5027Q556.6171,1432.5033,545.5851,1432.5035Q545.5851,1341.3329,545.5851,1250.1619 Z"/> </g> <g style="fill:rgb(0,0,0); fill-opacity:1.0; stroke-linejoin: miter"> <path d="M427.94824,1178.6108L552.40076,1178.6116L676.85333,1178.6122Q676.85333,1195.0962,676.85333,1211.5798Q552.40076,1211.5804,427.94824,1211.5807Q427.94824,1195.0955,427.94824,1178.6108 Z"/> </g> <g style="fill:rgb(255,191,175); fill-opacity:0.99607843; stroke-linejoin: miter"> <path d="M530.0783,898.4779L530.2678,901.034Q531.75543,917.9739,529.97986,926.0989Q528.6014,933.57794,520.33215,941.4564L591.63525,937.4049Q582.65247,926.7261,579.82623,918.59534Q576.70294,910.96277,573.7865,890.1154L530.0783,898.4779 Z"/> </g> <g style="fill:rgb(255,191,175); fill-opacity:0.99607843; stroke-linejoin: miter"> <path d="M520.0611,885.4707L520.02545,887.13184Q519.4829,892.17035,515.93884,895.32935Q512.3693,898.4868,507.33374,898.1343Q502.51727,897.5467,499.48517,893.82526Q496.45447,890.0767,496.77136,884.8083Q497.31384,879.76965,500.85803,876.611Q504.42767,873.4534,509.463,873.8059Q514.2797,874.39343,517.3115,878.11487Q518.2836,879.3181,518.94116,880.75793L519.5055,882.24335Q519.984,883.7803,520.0611,885.4707 Z"/> </g> <g style="fill:rgb(255,191,175); fill-opacity:0.99607843; stroke-linejoin: miter"> <path d="M596.83636,877.7223L596.80066,879.3835Q596.25836,884.4222,592.71405,887.5809Q589.1446,890.7384,584.10913,890.38605Q579.2924,889.7982,576.2604,886.0769Q573.2296,882.32825,573.5466,877.0599Q574.08936,872.02106,577.6332,868.8621Q581.203,865.7046,586.23834,866.0573Q591.0549,866.64453,594.0869,870.3661Q595.05896,871.56964,595.71643,873.00946L596.28076,874.4946Q596.75946,876.0319,596.83636,877.7223 Z"/> </g> <g style="fill:rgb(0,0,0); fill-opacity:1.0; stroke-linejoin: miter"> <path d="M574.06134,820.6531L576.38873,821.26263Q583.5762,822.77893,588.91547,827.1175Q590.6268,828.66797,591.92737,830.8455L593.09973,833.21924Q594.1566,835.76917,594.6485,839.1813Q596.87836,857.1415,586.33795,889.245Q583.25964,897.68506,579.80133,903.1642Q578.0642,905.9245,576.18115,908.0843Q575.3579,909.46564,570.1128,913.4608Q554.0425,922.65967,539.3723,918.938Q520.81335,914.5038,505.79065,883.95074Q500.29248,872.3187,498.05743,860.1791Q495.833,848.0453,498.62024,837.9798Q500.0644,833.02545,502.59814,828.7894L505.33282,824.7414Q508.30463,820.877,511.93695,817.7804Q515.5697,814.68396,519.5772,812.3884Q521.561,810.7155,531.7298,807.38544Q541.123,804.92316,550.21466,807.4047Q560.39075,810.2084,574.06134,820.6531 Z"/> </g> <g style="fill:rgb(212,239,240); fill-opacity:1.0; stroke-linejoin: miter"> <path d="M526.57794,923.6441L557.113,920.9815L587.6485,918.319Q592.2881,938.4594,596.9275,958.5999Q592.6227,993.45734,588.3178,1028.3152Q551.13885,1026.0631,513.9601,1023.81067L526.57794,923.6441 Z"/> </g> <g style="fill:rgb(224,77,105); fill-opacity:0.99607843; stroke-linejoin: miter"> <path d="M576.3323,1086.0948L576.3323,1086.0951Q576.3323,1086.0963,576.3323,1086.0948 Z"/> </g> <g style="fill:rgb(255,255,255); fill-opacity:0.99607843; stroke-linejoin: miter"> <path d="M682.10876,1122.2441L736.1541,1122.2449L790.19965,1122.2455Q790.19965,1229.6974,790.19965,1337.1498Q736.1543,1337.15,682.10876,1337.1505Q682.10876,1229.6974,682.10876,1122.2441"/> </g> <g style="fill:rgb(125,139,150); fill-opacity:0.99607843; stroke-linejoin: miter"> <path d="M707.3004,1208.7516L739.5648,1208.7523L771.8293,1208.7529Q771.8293,1256.033,771.8293,1303.313Q739.565,1303.3137,707.3004,1303.3142Q707.3004,1256.033,707.3004,1208.7516"/> </g> <g style="fill:rgb(125,139,150); fill-opacity:0.99607843; stroke-linejoin: miter"> <path d="M694.88965,1131.9142L737.1481,1131.9147L779.4063,1131.915Q779.4063,1152.0648,779.4063,1172.2146Q737.1481,1172.2151,694.88965,1172.2158Q694.88965,1152.0648,694.88965,1131.9142"/> </g> <g style="fill:rgb(212,239,240); fill-opacity:0.99607843; stroke-linejoin: miter"> <path d="M582.4459,929.2467L590.0407,931.3774Q613.29297,937.0512,632.338,949.1596Q638.5305,953.434,643.78815,959.13824L648.7535,965.28925Q653.456,971.8429,656.873,980.36194Q660.25134,988.94086,662.34375,999.4858L664.17334,1010.4326Q665.71075,1021.8268,666.31335,1034.6505Q668.05347,1066.3522,663.98706,1134.4254L570.4677,1097.2375L582.4459,929.2467"/> </g> <g style="fill:rgb(212,239,240); fill-opacity:0.99607843; stroke-linejoin: miter"> <path d="M550.2841,932.4964L542.4963,933.6913Q507.3487,938.8782,492.2829,949.87897Q486.1081,954.00867,480.85522,959.81665L475.88397,966.1366Q471.1756,972.9474,467.66803,981.8981Q460.73486,1000.2413,457.90234,1022.8086Q453.82336,1057.6433,455.91357,1084.2721Q457.10822,1104.6559,462.5562,1113.7777Q466.9314,1120.4138,476.37384,1118.0264L545.567,1100.8475L550.2841,932.4964"/> </g> <g style="fill:rgb(34,43,50); fill-opacity:1.0; stroke-linejoin: miter"> <path d="M647.3736,1114.539L660.18506,1114.5397L672.9963,1114.5405Q672.996,1177.7296,672.996,1240.919Q660.1848,1240.9192,647.3734,1240.9197Q647.3734,1177.7296,647.3736,1114.539 Z"/> </g> <g style="fill:rgb(34,43,50); fill-opacity:1.0; stroke-linejoin: miter"> <path d="M437.27887,1113.0107L450.09015,1113.0115L462.90143,1113.0117Q462.90143,1176.2018,462.90143,1239.3907Q450.09015,1239.3915,437.2787,1239.3917Q437.27887,1176.2009,437.27887,1113.0107 Z"/> </g> <g style="fill:rgb(0,0,0); fill-opacity:1.0; stroke-linejoin: miter"> <path d="M453.15515,1001.4451L556.6171,1001.4454L660.079,1001.4456Q660.079,1118.5935,660.0788,1235.7422Q556.6169,1235.7423,453.15503,1235.7423Q453.15503,1118.5933,453.15515,1001.4451 Z"/> </g> <g style="fill:rgb(212,239,240); fill-opacity:0.99607843; stroke-linejoin: miter"> <path d="M731.7176,1101.8446Q730.8547,1102.516,727.4369,1106.5719 Z"/> </g> <g style="fill:rgb(217,226,231); fill-opacity:0.99607843; stroke-linejoin: miter"> <path d="M733.8115,1069.5544L773.8807,1069.5544L813.9497,1069.5554Q813.9497,1082.5315,813.9497,1095.509Q773.8807,1095.509,733.8115,1095.509Q733.8115,1082.5315,733.8115,1069.5544"/> </g> <g style="fill:rgb(217,226,231); fill-opacity:0.99607843; stroke-linejoin: miter"> <path d="M780.54193,1056.3685L793.54425,1056.369L806.5463,1056.3695Q806.5463,1063.6881,806.5463,1071.0073Q793.54425,1071.0073,780.54193,1071.0076Q780.54193,1063.6884,780.54193,1056.3685"/> </g> <g style="fill:rgb(108,41,24); fill-opacity:1.0; stroke-linejoin: miter"> <path d="M343.4901,953.62366L344.58728,955.7205Q348.02435,962.06573,350.1505,967.9188Q350.81055,969.8517,351.17938,971.6753L351.4572,973.4645L351.55286,975.1855L351.44812,976.8315L351.13104,978.39746L350.61365,979.8885L349.91418,981.31116Q349.12366,982.69965,348.04187,983.9787Q345.40997,987.2039,338.42926,992.16724L343.4901,953.62366"/> </g> <g style="fill:rgb(108,41,24); fill-opacity:1.0; stroke-linejoin: miter"> <path d="M319.9931,912.3092Q302.95392,912.5606,299.67975,925.0726Q298.65405,928.37195,298.17413,932.5507Q297.87018,934.0613,297.2212,946.8851Q297.01746,949.41296,296.56055,951.4875Q295.16278,957.5859,292.08783,959.75415L298.10797,956.19543Q296.95557,957.97974,295.77173,959.1584L291.52136,962.86884Q291.01886,963.4282,294.40723,961.9779L293.50348,965.49274Q289.64,975.02673,290.21118,974.5615Q290.1801,975.1736,295.36572,965.66034L289.83502,976.8332L294.1339,995.10706L344.07043,984.697Q342.2395,969.52856,343.29694,957.13635Q345.16833,958.08185,345.79797,960.50714Q346.39124,962.4602,346.50214,969.78906Q350.71313,964.15515,350.3294,959.5813Q350.20593,957.4404,349.31024,954.963L344.92352,944.35583Q343.7882,941.4006,343.23346,939.1717Q342.44495,937.23645,341.75903,926.0889Q341.49,924.0984,340.9677,922.54205Q338.20972,913.1801,320.09033,912.3093"/> </g> <g style="fill:rgb(255,188,148); fill-opacity:1.0; stroke-linejoin: miter"> <path d="M324.4914,928.35364Q313.2149,929.89667,309.4734,932.0031Q305.39508,933.9439,302.838,940.6068Q302.9626,954.45514,304.12677,957.0878Q304.6928,959.1049,310.64862,966.97766Q313.95557,974.27026,314.71808,978.3005Q315.95538,983.93365,314.17627,992.70654L332.50287,990.41565L332.51855,990.3204L332.02966,963.43726Q334.20044,959.27075,336.1233,956.18005Q336.34253,955.7633,336.52576,955.06244Q336.88324,953.6536,337.27905,942.5557Q335.02338,940.53766,334.17206,939.1253Q333.67236,938.31146,331.77106,933.6913Q331.0835,932.35803,330.35742,931.59906Q328.79297,929.86743,324.50226,928.3575"/> </g> <g style="fill:rgb(255,29,0); fill-opacity:1.0; stroke-linejoin: miter"> <path d="M326.13867,958.2622L318.5993,959.1377L312.2567,959.00305Q316.36865,964.2163,319.18512,964.06213Q320.59332,963.99164,322.19122,962.6498Q323.57452,961.5387,326.13477,958.26746"/> </g> <g style="fill:rgb(255,255,255); fill-opacity:1.0; stroke-linejoin: miter"> <path d="M325.0738,958.8887L318.9264,960.0479L313.4234,959.523Q315.81982,961.2465,317.04065,961.79254Q318.458,962.4577,319.58057,962.3953Q320.69147,962.34344,321.96826,961.5279Q323.0641,960.8543,325.07123,958.89154"/> </g> <g style="fill:rgb(255,255,255); fill-opacity:1.0; stroke-linejoin: miter"> <path d="M326.9057,943.29443Q325.43622,943.22455,324.33148,943.9434Q323.48907,944.51483,323.83954,945.44464L329.19922,945.056L329.99945,944.5612Q329.73657,944.0491,328.99518,943.75964Q327.98682,943.3616,326.91705,943.2953"/> </g> <g style="fill:rgb(0,0,0); fill-opacity:1.0; stroke-linejoin: miter"> <path d="M326.6479,943.2882Q326.10516,943.2882,325.61462,943.40076L325.61584,943.4009Q325.35114,943.74066,325.3377,944.19305Q325.33813,944.7432,325.7118,945.1372Q325.80054,945.2261,325.89752,945.29535L327.58044,945.1734L327.58173,945.17365Q327.58435,945.17114,327.5869,945.16876Q327.9757,944.7826,327.99255,944.24066Q327.995,943.7559,327.7072,943.3912L327.7085,943.3914Q327.31702,943.31995,326.91705,943.2953L326.9057,943.29443Q326.77533,943.2882,326.6479,943.2882 Z"/> </g> <g style="fill:rgb(255,255,255); fill-opacity:1.0; stroke-linejoin: miter"> <path d="M310.8484,943.40686Q312.31628,943.31036,313.43384,944.0092Q314.28644,944.5652,313.95288,945.5012L308.5869,945.20966L307.7779,944.7293Q308.03162,944.2126,308.76758,943.9097Q309.76855,943.49347,310.8369,943.4077"/> </g> <g style="fill:rgb(0,0,0); fill-opacity:1.0; stroke-linejoin: miter"> <path d="M311.10602,943.396Q311.64856,943.3863,312.1411,943.48987L312.13983,943.49Q312.4107,943.82495,312.43225,944.27686Q312.44183,944.82715,312.07538,945.2276Q311.98816,945.3181,311.89246,945.38947L310.2077,945.2977L310.20642,945.2977Q310.20367,945.29535,310.2011,945.29297Q309.80542,944.91406,309.77863,944.3725Q309.76764,943.888,310.0487,943.518L310.04736,943.51825Q310.43744,943.4399,310.8369,943.4077L310.8484,943.40686Q310.97852,943.39813,311.10602,943.396 Z"/> </g> <g style="fill:rgb(255,0,0); fill-opacity:0.2509804; stroke-linejoin: miter"> <path d="M314.3222,976.41296L315.4308,985.6634L326.43335,968.8491L326.43195,968.8492Q321.6579,971.7687,318.5918,971.7687Q318.2072,971.7687,317.8495,971.7228Q314.93866,971.5062,310.58203,966.85486L310.5808,966.8552 Z"/> </g> <g style="fill:rgb(255,0,0); fill-opacity:0.2509804; stroke-linejoin: miter"> <path d="M310.58038,966.85345L310.5807,966.8545L310.5816,966.85474L310.58038,966.85345L310.58038,966.85376 Z"/> </g> <g style="fill:rgb(255,244,246); fill-opacity:1.0; stroke-linejoin: miter"> <path d="M290.53455,975.8397L289.2896,976.1212Q281.36853,977.6878,281.71606,979.53577Q280.0929,978.2203,278.5711,978.96204Q277.44,979.3131,274.5266,983.41364Q270.1131,990.7585,268.9876,994.04456Q259.20062,1022.9329,258.38953,1022.7831L371.7812,1022.78284Q369.83594,989.46875,369.47687,987.6082Q369.07477,983.2259,367.3745,982.3498Q366.3308,981.8072,364.10095,981.7638Q364.43732,981.0809,359.51294,979.9313Q356.59253,979.23816,343.10193,977.03973Q334.68176,986.63477,330.1878,988.3104Q323.65613,991.0678,315.45416,990.4687Q306.26752,989.09625,303.5492,987.1629Q298.5374,984.62427,290.53455,975.8397 Z"/> </g> <g style="fill:rgb(255,0,0); fill-opacity:0.18431373; stroke-linejoin: miter"> <path d="M322.4546,953.34515L318.76355,954.78784L315.73193,953.7921L319.00128,956.21533L322.44635,953.352"/> </g> <g style="fill:rgb(108,41,24); fill-opacity:1.0; stroke-linejoin: miter"> <path d="M308.73242,964.9997L290.81848,976.4175L297.549,993.9538Q297.40344,996.4197,296.38397,997.2996Q295.48633,998.233,292.12207,999.2308L304.59888,999.00946L301.53925,1002.8351Q308.9524,1001.9115,312.67578,1000.40656Q316.09442,999.09827,317.21326,996.688Q318.85022,993.45734,316.98352,986.80273Q315.471,980.7912,308.7428,965.0244"/> </g> <g style="fill:rgb(108,41,24); fill-opacity:1.0; stroke-linejoin: miter"> <path d="M332.221,963.2587Q329.40314,966.8046,328.83374,971.4207Q328.5592,973.60944,328.6692,976.76746Q328.72083,978.2934,328.85712,980.1555Q329.65833,989.359,329.67896,990.69135Q329.87872,994.522,329.7079,997.3347Q329.51257,1002.6587,326.62335,1006.9734Q331.00122,1004.42847,332.25183,1001.6679Q333.63617,999.11084,334.20844,991.6182L342.5373,1003.4244L346.7373,979.48035L332.23633,963.27563"/> </g> <g style="fill:rgb(67,62,62); fill-opacity:1.0; stroke-linejoin: miter"> <path d="M386.62286,883.25415L386.62244,883.2545L386.6233,883.25464Q386.62305,883.25415,386.62286,883.25415 Z"/> </g> <g style="fill:rgb(255,188,148); fill-opacity:1.0; stroke-linejoin: miter"> <path d="M329.56152,962.9952Q329.1836,963.2646,329.86572,964.15326Q330.65985,965.20917,332.7022,967.1644L339.12476,965.0104Q334.5105,963.6165,332.12866,963.11365Q329.98334,962.6498,329.56348,962.9938"/> </g> <g style="fill:rgb(8,3,0); fill-opacity:1.0; stroke-linejoin: miter"> <path d="M328.98065,940.4421L328.94745,940.4445L323.2741,941.2079Q323.10297,941.2561,323.10394,941.4382Q323.1325,941.6143,323.31384,941.6336L323.34772,941.63135L329.02148,940.86835Q329.1958,940.81915,329.1949,940.64075Q329.1654,940.4612,328.98865,940.4422"/> </g> <g style="fill:rgb(8,3,0); fill-opacity:1.0; stroke-linejoin: miter"> <path d="M308.1371,940.8145Q307.9585,940.8272,307.92346,941.0065Q307.91876,941.1887,308.09198,941.2396L313.799,941.97473Q313.98285,941.96454,314.0177,941.78143Q314.02283,941.59924,313.84418,941.5483L308.14697,940.81464"/> </g> <g style="fill:rgb(108,41,24); fill-opacity:1.0; stroke-linejoin: miter"> <path d="M336.872,955.91174L336.41425,956.54443Q333.36798,960.7189,332.03796,962.9295Q330.8003,964.94275,329.85553,967.6341L331.66907,971.5117L341.11682,965.3973L336.872,955.91174"/> </g> <g style="fill:rgb(0,0,0); fill-opacity:1.0; stroke-linejoin: miter"> <path d="M343.79797,941.652L343.7801,942.8934Q343.653,946.6456,343.03656,948.8951Q342.4159,951.1429,341.5747,950.71814Q340.7719,950.12427,340.2906,947.2429Q340.13635,946.3117,340.0365,945.2134L339.95258,944.08417Q339.88348,942.9189,339.88263,941.652Q339.90363,937.76373,340.45605,935.18207Q341.00842,932.60034,341.8404,932.50214Q342.67212,932.60034,343.22455,935.18207Q343.77698,937.76373,343.79797,941.652"/> </g> <g style="fill:rgb(255,255,255); fill-opacity:1.0; stroke-linejoin: miter"> <path d="M345.02844,941.61456L345.01056,942.8561Q344.9823,943.68994,344.93,944.4495Q344.91895,944.87573,344.71844,946.56134Q344.54108,947.85803,344.2671,948.8578Q343.9912,949.8568,343.6718,950.328Q343.5121,950.5635,343.3415,950.66705Q342.90546,950.8104,342.80524,950.6807Q342.44843,950.41693,342.1551,949.7012Q342.00848,949.34326,341.87775,948.87244Q341.56458,947.5964,341.52112,947.2056Q341.04346,944.10754,341.1244,940.76666Q341.15997,939.1031,341.30048,937.6976Q341.3708,936.9949,341.46735,936.3568Q341.50073,935.9901,341.81274,934.6016Q342.33136,932.552,343.0708,932.46484Q343.52087,932.6266,343.59442,932.80634Q343.75848,933.012,343.9088,933.34045Q344.2096,933.99725,344.45508,935.1448Q344.70068,936.2922,344.84125,937.6976Q344.91138,938.4004,344.95544,939.1677Q345.04254,941.14215,345.02844,941.61456"/> </g> <g style="fill:rgb(0,0,0); fill-opacity:1.0; stroke-linejoin: miter"> <path d="M296.48108,943.3882L296.4989,944.6297Q296.62598,948.3816,297.24255,950.6313Q297.86316,952.8792,298.70435,952.4542Q299.50708,951.8606,299.98834,948.97925Q300.1427,948.0478,300.2425,946.9497L300.32642,945.8205Q300.3955,944.65497,300.39636,943.3882Q300.3753,939.49994,299.82294,936.9183Q299.27057,934.33655,298.43866,934.23834Q297.6068,934.33655,297.05444,936.9183Q296.50208,939.49994,296.48108,943.3882"/> </g> <g style="fill:rgb(255,255,255); fill-opacity:1.0; stroke-linejoin: miter"> <path d="M295.25055,943.35077L295.26843,944.5924Q295.29663,945.42615,295.349,946.18585Q295.36017,946.61194,295.5606,948.29755Q295.7379,949.59424,296.01196,950.5941Q296.28784,951.59314,296.60718,952.06433Q296.76697,952.2998,296.9375,952.40326Q297.37354,952.54663,297.47382,952.41705Q297.83063,952.153,298.1239,951.4374Q298.27057,951.07935,298.4013,950.6085Q298.7143,949.3326,298.75793,948.94196Q299.2354,945.84375,299.15454,942.50287Q299.11902,940.8394,298.97845,939.4339Q298.90814,938.7311,298.81165,938.0929Q298.77832,937.7264,298.46625,936.33795Q297.94757,934.2883,297.20813,934.2012Q296.75812,934.3629,296.6847,934.5424Q296.52045,934.74835,296.37012,935.07666Q296.0694,935.7336,295.8239,936.881Q295.57843,938.0285,295.4378,939.4339Q295.3676,940.1366,295.3235,940.90393Q295.23645,942.87836,295.25055,943.35077"/> </g> <g style="fill:rgb(255,255,255); fill-opacity:1.0; stroke-linejoin: miter"> <path d="M320.29358,912.2636C307.24115,912.2636,296.66003,922.8449,296.66003,935.89746C296.66003,936.3229,296.67126,936.7456,296.69348,937.1656L296.69348,937.16583Q297.84155,937.1656,298.98962,937.16547L298.99084,937.16583C298.96613,936.7461,298.95367,936.3231,298.95367,935.89746C298.95367,924.1116,308.5078,914.5574,320.29358,914.5574C332.07935,914.5574,341.63348,924.1116,341.63348,935.89734C341.63348,936.323,341.62103,936.74585,341.59637,937.16534L341.59637,937.1657Q342.74426,937.16534,343.89215,937.16534L343.89368,937.1657C343.91595,936.7456,343.92712,936.32263,343.92712,935.89734C343.92712,922.8448,333.34607,912.26373,320.29358,912.2636 Z"/> </g> <g style="fill:rgb(0,0,0); fill-opacity:1.0; stroke-linejoin: miter"> <path d="M515.06,718.0717L515.06,718.0717L515.06,718.0717L515.06,718.0717L515.06,718.0717L515.06,718.0717L515.06,718.0717L515.06,718.0717L515.06,718.0717L515.06,718.0717 M515.24054,720.7999L515.24054,720.7999L515.24054,720.7999L515.24054,720.7999L515.24054,720.7999L515.24054,720.7999L515.24054,720.7999L515.24054,720.7999L515.24054,720.7999 Z"/> </g> <g style="fill:rgb(0,0,0); fill-opacity:1.0; stroke-linejoin: miter"> <path d="M586.8345,856.89825L586.4331,856.90125Q584.83356,856.92535,583.3281,857.1427L585.8231,894.677Q589.42926,894.6754,592.51044,893.7352Q594.0592,893.2647,595.4934,892.55914Q598.9786,890.5894,599.53796,889.91315Q600.8674,888.79,601.94006,887.53015Q602.6369,886.98566,604.5807,883.44324Q605.9561,880.51373,606.3048,877.03735Q606.6957,868.87054,601.3935,863.21375Q595.0555,856.9378,586.8345,856.89825 Z"/> </g> <g style="fill:rgb(0,0,0); fill-opacity:1.0; stroke-linejoin: miter"> <path d="M505.878,861.38116L506.27582,861.32825Q507.86316,861.1292,509.3841,861.1349L512.14056,898.6508Q508.56934,899.15137,505.38727,898.6495Q503.7881,898.3993,502.26965,897.9004Q498.54395,896.435,497.89594,895.8433Q496.42297,894.9161,495.18536,893.81793Q494.41943,893.37585,492.00128,890.1388Q490.23138,887.42944,489.40192,884.0353Q487.87756,876.0025,492.34033,869.6625Q497.7426,862.5651,505.878,861.38116 Z"/> </g> <g style="fill:rgb(0,0,0); fill-opacity:1.0; stroke-linejoin: miter"> <path d="M499.33264,868.47833L499.33264,868.47833L499.33264,868.4786L495.42572,868.4103C496.1657,847.2761,496.79376,824.4843,513.4774,813.47687L513.4774,813.47687C521.6742,808.0687,533.5118,805.66034,545.2093,805.66034L545.2093,805.66034C557.1657,805.66034,569.36053,808.176,577.8861,812.9644L577.8861,812.9644C595.04205,822.60004,596.6892,841.04333,598.33374,858.0805C598.43756,859.1548,597.6507,860.10974,596.5765,860.2135C595.5023,860.3171,594.5474,859.53033,594.4437,858.45605L594.4437,858.45605C592.75385,840.94995,591.0664,824.84955,575.9724,816.3721L575.9724,816.3721C568.2062,812.01013,556.7298,809.5686,545.2093,809.5686L545.2093,809.5686C533.91113,809.5686,522.9387,811.9166,515.62976,816.73883L515.62976,816.73883C500.97717,826.4065,500.09833,846.64777,499.33136,868.54694C499.29413,869.6122,498.4101,870.451,497.34436,870.43243C496.2787,870.4136,495.4245,869.5445,495.4245,868.4786L495.4245,868.4786L495.4245,868.47833C495.4245,867.3993,496.29938,866.5243,497.37854,866.5243C498.45782,866.5243,499.33264,867.3993,499.33264,868.47833 Z"/> </g> <g style="fill:rgb(165,179,188); fill-opacity:1.0; stroke-linejoin: miter"> <path d="M450.93152,879.8857L467.8971,879.88654L484.8626,879.8859Q484.86273,895.91,484.86273,911.93427Q467.8971,911.93427,450.93158,911.9345Q450.93158,895.91,450.93152,879.8857"/> </g> <g style="fill:rgb(255,252,252); fill-opacity:1.0; stroke-linejoin: miter"> <path d="M477.37567,897.9618L477.09894,899.49835Q476.82397,900.5203,476.4276,901.4341Q476.30554,901.9584,474.9652,903.9329Q473.80804,905.4375,472.1645,906.51056Q470.51074,907.58136,468.69495,907.96655Q467.787,908.15936,466.83862,908.1805Q466.38965,908.2982,463.9018,907.85785Q461.59918,907.0501,461.26245,906.7315Q460.4599,906.25793,459.76062,905.65344Q458.36212,904.4443,457.37616,902.71265Q455.20935,898.5478,456.1339,894.4337Q456.5686,892.38184,457.54034,890.7185Q458.02612,889.8869,458.6463,889.15247Q458.88208,888.71625,460.78992,887.1828Q463.92334,884.9556,467.9823,885.3148Q468.5448,885.29694,470.7981,886.0721Q471.66663,886.4325,472.44208,886.93713Q473.99298,887.9463,475.17096,889.5328Q476.50977,891.571,476.59412,892.055Q476.95367,892.9438,477.1604,893.89636Q477.57385,895.80164,477.37567,897.9618"/> </g> <g style="fill:rgb(0,0,0); fill-opacity:1.0; stroke-linejoin: miter"> <path d="M462.3374,898.03467L462.19385,897.84766C461.53925,897.03906,461.1808,896.3404,461.07806,895.7583C460.9865,895.238,460.16125,893.6097,460.66608,892.5257C460.56262,890.5592,462.20258,889.1402,462.20258,889.1402C462.86267,888.2924,463.5902,888.1868,465.4005,887.6719C466.82257,887.26685,468.3739,887.73694,469.0923,887.9416C471.47345,888.61975,472.62762,891.79364,472.62762,891.79364C472.97797,892.6412,472.50928,894.34656,472.51074,894.94293C472.5121,895.5087,472.3659,896.5289,472.021,898.00543L462.3374,898.03467 Z"/> </g> <g style="fill:rgb(183,107,77); fill-opacity:1.0; stroke-linejoin: miter"> <path d="M465.963,910.2109L465.963,910.21124L465.963,910.212L465.91095,910.1544C465.67694,909.9217,465.53156,909.6552,465.46094,909.358C465.40015,909.10114,466.7373,909.5251,466.79547,908.74445C466.1505,908.53345,464.96967,909.03955,464.67865,908.69434C464.40625,908.37146,462.75574,908.79663,462.2746,907.67224L463.0711,902.266C462.49982,901.3578,462.17987,900.37286,462.11133,899.3111C461.58966,899.6989,461.1798,899.5094,460.88226,898.7417C460.5124,897.7871,460.36847,897.0806,460.4889,896.63165C460.6029,896.2065,460.83197,896.0414,461.14014,896.1111C461.33496,896.15515,461.54932,896.4565,461.78058,897.0274L462.0954,896.09894C461.9629,895.4354,461.91815,894.9001,461.97876,894.4957C462.02783,894.1685,462.16583,893.80524,462.37506,893.4032C464.0277,892.75446,465.31763,892.40894,466.23798,892.30164C467.1463,892.1951,468.59796,892.2196,470.60175,892.4407L471.636,894.3078L471.76312,896.92596C471.95752,896.1854,472.16797,895.73364,472.35577,895.53314C472.6391,895.23114,472.86047,895.18896,472.9812,895.4803C473.15253,895.89453,473.0868,896.68787,472.841,897.82434C472.66614,898.6333,472.25208,899.04083,471.6242,899.0529C471.65576,900.12854,471.4535,900.9403,471.01746,901.48895L471.04816,904.43616C471.07574,907.0807,471.56274,907.97595,470.3073,907.7442C469.05176,907.5124,469.58215,906.911,468.94214,908.4133C468.09967,910.39087,469.13953,908.25806,468.112,908.6958L467.11725,909.5993L465.963,910.2109L465.963,910.21124L465.963,910.2109 Z"/> </g> <g style="fill:rgb(255,0,0); fill-opacity:0.08627451; stroke-linejoin: miter"> <path d="M463.1551,902.3898L463.38184,902.5719Q464.7437,903.6722,465.51385,904.06445Q466.24933,904.4491,467.0005,904.37787Q467.16565,904.3576,467.3343,904.3124Q467.41638,904.3053,467.8482,904.12103Q468.1961,903.9563,468.55798,903.6921Q469.0479,903.3952,470.95654,901.4887L467.04004,906.1197L463.1551,902.3898 Z"/> </g> <g style="fill:rgb(255,255,255); fill-opacity:0.99607843; stroke-linejoin: miter"> <path d="M465.4666,903.4693L465.4666,903.46967L465.4666,903.4703L465.4666,903.4693 Z"/> </g> <g style="fill:rgb(255,255,255); fill-opacity:0.99607843; stroke-linejoin: miter"> <path d="M468.46844,895.83887L468.53436,895.8054Q468.89783,895.6143,469.12317,895.5739Q469.18744,895.56195,469.25116,895.5593L469.33386,895.5607L469.39832,895.5677Q469.46252,895.5775,469.52618,895.5954Q469.5583,895.6005,469.71606,895.66364Q469.8106,895.70233,470.02936,895.81793Q469.75714,896.0186,469.60278,896.0908Q469.47968,896.1518,469.35303,896.17126L469.27606,896.17737L469.2107,896.1744L469.14478,896.16534Q469.0127,896.1386,468.87732,896.07367Q468.6742,895.9727,468.46844,895.83887 Z"/> </g> <g style="fill:rgb(0,0,0); fill-opacity:0.99607843; stroke-linejoin: miter"> <path d="M469.04053,895.5797L469.02722,895.59753Q468.93634,895.7125,468.9214,895.8177Q468.90472,895.90955,468.96582,896.14343Q469.1532,896.1799,469.2782,896.17737Q469.38666,896.17737,469.62006,896.1305Q469.70947,895.9598,469.7107,895.87213Q469.7196,895.78503,469.65057,895.60596Q469.3955,895.54956,469.29633,895.54767Q469.19647,895.54034,469.04053,895.5797 Z"/> </g> <g style="fill:rgb(0,0,0); fill-opacity:1.0; stroke-linejoin: miter"> <path d="M468.56708,895.1243L468.5669,895.1252Q468.78827,895.00073,468.91577,894.95514Q468.96674,894.9362,469.0183,894.92303L469.0705,894.91125L469.1233,894.9028L469.17676,894.8983Q469.2434,894.89545,469.3152,894.9038L469.36328,894.91064Q469.4115,894.9187,469.4604,894.93054Q469.55762,894.94916,469.85907,895.0616L468.56708,895.1243 Z"/> </g> <g style="fill:rgb(255,255,255); fill-opacity:0.99607843; stroke-linejoin: miter"> <path d="M465.3438,896.0083L465.27643,895.9777Q464.90448,895.8039,464.6776,895.7737Q464.61273,895.76447,464.54895,895.76514L464.4665,895.7701L464.4024,895.7803Q464.33868,895.79285,464.27594,895.8137Q464.24402,895.82043,464.08936,895.89105Q463.9967,895.9341,463.78345,896.05963Q464.0647,896.2476,464.22223,896.3124Q464.34814,896.3674,464.47546,896.3809L464.5528,896.3837L464.6178,896.37805L464.68323,896.3656Q464.81415,896.333,464.94617,896.2614Q465.1446,896.1511,465.3438,896.0083 Z"/> </g> <g style="fill:rgb(0,0,0); fill-opacity:0.99607843; stroke-linejoin: miter"> <path d="M464.76044,895.7758L464.77448,895.7931Q464.87054,895.9035,464.89026,896.00793Q464.91125,896.09894,464.86108,896.33527Q464.67554,896.3805,464.5506,896.3837Q464.44244,896.3886,464.2068,896.3528Q464.10974,896.18646,464.10443,896.09894Q464.09143,896.0124,464.15204,895.83Q464.40442,895.76215,464.50323,895.75555Q464.60278,895.74384,464.76044,895.7758 Z"/> </g> <g style="fill:rgb(0,0,0); fill-opacity:1.0; stroke-linejoin: miter"> <path d="M465.2121,895.2989L465.2121,895.29974Q464.98523,895.1856,464.8559,895.146Q464.8042,895.1296,464.75183,895.1186L464.69922,895.1093L464.64618,895.1032L464.59247,895.1017Q464.52576,895.1017,464.45447,895.11316L464.40674,895.12213Q464.35883,895.13257,464.31055,895.14636Q464.21442,895.1696,463.91846,895.2959L465.2121,895.2989 Z"/> </g> <g style="fill:rgb(255,0,0); fill-opacity:0.07058824; stroke-linejoin: miter"> <path d="M465.23212,901.0798L465.33136,901.04175Q466.0871,900.75183,466.35895,900.7389Q466.5182,900.71735,466.73596,900.7549Q466.891,900.78375,467.1219,900.86743Q467.38977,900.7109,467.54578,900.65125Q467.76257,900.57275,467.87878,900.59717Q468.02795,900.62054,468.15552,900.71625Q468.30743,900.82574,468.5371,901.086Q468.05597,901.3171,467.93707,901.35614Q467.3485,901.591,466.81714,901.5326Q466.49976,901.49725,466.16168,901.3981Q465.60046,901.22473,465.23212,901.0798 Z"/> </g> <g style="fill:rgb(255,0,0); fill-opacity:0.07058824; stroke-linejoin: miter"> <path d="M465.89276,898.2259L466.4087,898.72644L466.92456,899.22705Q467.3388,898.70404,467.75323,898.1814Q467.31952,898.4647,466.8858,898.7484L465.89276,898.2259 Z"/> </g> <g style="fill:rgb(242,226,226); fill-opacity:0.99607843; stroke-linejoin: miter"> <path d="M467.7387,895.59985L467.7387,895.6005L467.7387,895.59985L467.7387,895.6005 Z"/> </g> <g style="fill:rgb(255,0,0); fill-opacity:0.07058824; stroke-linejoin: miter"> <path d="M465.3089,903.1717L465.30884,903.17206Q465.86865,903.1084,466.1432,903.08765Q466.41272,903.06836,466.45563,903.06885Q466.5528,903.0655,466.63818,903.0669Q466.72345,903.0681,466.79675,903.07385L466.86792,903.0807Q466.93616,903.0886,466.99615,903.0999Q467.14795,903.1269,467.35608,903.2011L465.3089,903.1717 Z"/> </g> <g style="fill:rgb(9,1,4); fill-opacity:0.99607843; stroke-linejoin: miter"> <path d="M472.30115,895.6505L472.33685,895.46313Q472.4148,895.0501,472.41425,894.9554Q472.42493,894.8594,472.37115,894.9038Q472.29327,894.96484,471.72266,896.3579L471.82214,895.35046Q470.8745,900.6123,470.25507,901.2697Q469.95142,901.7024,469.49323,901.7567Q469.25055,901.82135,468.01892,901.59076Q467.72308,901.56067,467.53058,901.65814Q467.20776,901.76294,466.9516,902.62976Q466.53662,901.7915,465.89655,901.7013Q465.43695,901.65924,465.13885,901.7617Q464.91992,901.79504,464.20258,902.2104L464.0027,902.2626Q463.74963,902.2875,463.54236,902.00824Q463.2802,901.70276,462.9699,900.4857Q462.76587,899.76227,461.95917,895.5274Q461.79932,894.8395,461.7209,895.1851Q461.66187,895.47345,461.64197,896.59326Q461.82684,897.9631,462.05084,899.28Q462.58844,902.19855,463.2364,903.3518Q464.58734,905.8974,466.94873,906.16046Q467.432,906.1654,467.67352,906.08624L467.98987,905.97595Q468.29626,905.8407,468.56464,905.6296Q469.28442,905.1024,470.0265,903.6826Q470.74353,902.23895,471.01514,901.1787Q471.19482,900.608,472.30115,895.6505"/> </g> <g style="fill:rgb(9,1,4); fill-opacity:0.99607843; stroke-linejoin: miter"> <path d="M466.93463,899.9071L466.93463,899.9079L464.83588,900.27936Q464.6422,901.6498,464.44873,903.02026Q464.7743,901.97,465.09998,900.9195L466.93463,899.9071"/> </g> <g style="fill:rgb(9,1,4); fill-opacity:0.99607843; stroke-linejoin: miter"> <path d="M467.13965,899.88367L467.13965,899.8845Q468.17908,900.0924,469.2185,900.30176L469.46686,903.21655Q469.0464,901.94244,468.6258,900.6683L467.13965,899.88367"/> </g> <g style="fill:rgb(165,179,188); fill-opacity:1.0; stroke-linejoin: miter"> <path d="M482.47528,896.13434L482.47528,896.13513C482.47528,904.73083,475.50665,911.6999,466.91022,911.6999L466.91022,911.70087C458.31378,911.6999,451.3451,904.73096,451.3451,896.13434L451.3451,896.13513C451.34503,887.538,458.31378,880.56934,466.91022,880.56934L466.91022,880.57007C475.50635,880.56934,482.47522,887.5379,482.47528,896.13434L482.47528,896.13513 M456.7951,896.13434L456.7951,896.13513C456.7951,901.72107,461.32385,906.2497,466.91022,906.2497L466.91022,906.2505C472.49652,906.2497,477.02527,901.72107,477.02527,896.13434L477.02527,896.13513C477.02527,890.5483,472.49652,886.01935,466.91022,886.01935L466.91022,886.02026C461.32373,886.01935,456.7951,890.54803,456.7951,896.13434 Z"/> </g> <g style="fill:rgb(165,179,188); fill-opacity:1.0; stroke-linejoin: miter"> <path d="M379.45544,879.841L396.42102,879.84125L413.38666,879.8419Q413.38678,895.86566,413.38678,911.8899Q396.42102,911.89,379.45544,911.89Q379.45544,895.86566,379.45544,879.841"/> </g> <g style="fill:rgb(255,252,252); fill-opacity:1.0; stroke-linejoin: miter"> <path d="M406.987,897.3551L406.70062,898.90796Q405.40472,903.5525,401.4439,905.9684Q397.45837,908.3794,392.56354,907.2703Q387.91937,905.97424,385.50323,902.01385Q384.73035,900.7344,384.30225,899.2817L383.97235,897.8007Q383.73486,896.2843,383.91486,894.68634Q384.60565,889.79913,388.2373,886.9201Q391.86884,884.04126,396.78534,884.48456Q401.67303,885.17523,404.5517,888.80725Q407.43024,892.4388,406.987,897.3551"/> </g> <g style="fill:rgb(165,179,188); fill-opacity:1.0; stroke-linejoin: miter"> <path d="M392.28815,903.11414L392.33313,903.60236L392.33307,903.6032L392.3319,903.6021L392.33246,903.60297L392.3319,903.60236L392.33142,903.6032Q392.33173,903.6021,392.3319,903.6021L392.3319,903.60236L392.3319,903.6021L392.33307,903.60236L392.28815,903.11414 Z"/> </g> <g style="fill:rgb(0,0,0); fill-opacity:1.0; stroke-linejoin: miter"> <path d="M391.4353,899.6475L391.20795,899.21C390.52136,897.8964,390.07068,896.8911,389.8839,896.1854C389.625,895.20667,389.57867,894.52234,389.63898,894.12476C389.76154,893.31915,389.979,892.58563,390.38037,891.94226C390.92236,891.07294,391.5061,890.4972,392.11304,890.19385C392.63,889.93524,393.28046,889.79114,394.07196,889.7766C394.99487,889.201,395.61884,888.91406,395.92615,888.83386C396.3935,888.7116,396.8628,888.70715,397.36804,888.8684C397.91138,889.0413,398.659,889.5752,399.59332,890.5106C400.61578,891.53534,401.32983,892.4639,401.74915,893.28656C401.97876,893.73724,402.1192,894.18396,402.1645,894.6299L402.17242,894.96063C402.16364,895.1798,402.13104,895.3976,402.07483,895.6134C401.878,896.36835,401.58722,898.24554,400.70978,899.3873L401.14514,899.591L391.4353,899.6475 Z"/> </g> <g style="fill:rgb(255,194,157); fill-opacity:1.0; stroke-linejoin: miter"> <path d="M392.84015,907.399L392.5451,907.4062L392.83978,903.69684C392.28027,902.9456,391.7926,902.10114,391.38196,901.1939C391.16528,900.7154,390.9782,899.6943,391.02332,898.51965C391.0952,896.65875,391.41138,895.2769,391.69763,894.36633C391.8954,893.7382,392.06464,893.4014,392.11932,893.31067C392.35907,892.91187,392.6266,892.58276,392.9176,892.2963C393.2173,892.0013,393.89832,891.5858,395.0144,891.10156C396.7074,892.9576,398.24304,894.24524,399.6211,894.9637L400.3017,897.1465L400.70825,898.8465L400.98547,897.31396C401.19012,897.64307,401.32355,897.95544,401.38312,898.25165C401.48926,898.781,401.4195,899.47473,401.16162,900.3276C401.0078,900.836,400.76093,901.05853,400.43555,901.0002C400.45673,901.6248,400.1255,902.5708,399.66888,903.3807L399.8761,905.8872L399.5855,907.91705C398.54382,908.66595,397.511,908.9334,396.47577,908.7975C395.55823,908.6773,394.74762,908.52576,394.05957,908.24774C393.524,908.0313,393.11993,907.7425,392.84015,907.399 Z"/> </g> <g style="fill:rgb(255,0,0); fill-opacity:0.11764706; stroke-linejoin: miter"> <path d="M394.92896,899.7505L395.9112,900.51025L396.79376,899.51166L395.8853,900.032L394.92896,899.7505"/> </g> <g style="fill:rgb(255,0,0); fill-opacity:0.08235294; stroke-linejoin: miter"> <path d="M392.52563,903.18225L392.70294,903.341Q393.56842,904.16864,394.44348,904.56036Q395.3329,904.94183,396.45612,904.8739Q397.54926,904.79065,398.22528,904.39404Q398.85156,904.03906,399.51227,903.0031L396.55774,907.32697L392.52563,903.18225"/> </g> <g style="fill:rgb(0,0,0); fill-opacity:1.0; stroke-linejoin: miter"> <path d="M392.98553,897.07935L393.0334,897.0917Q393.24823,897.1477,393.36664,897.1726Q393.44373,897.1906,393.5902,897.2134Q393.81818,897.2453,393.9696,897.23267Q394.04816,897.2274,394.12512,897.21436L394.20178,897.1991Q394.27795,897.1823,394.35315,897.1592Q394.5412,897.1032,394.8709,896.95715L392.98553,897.07935"/> </g> <g style="fill:rgb(0,0,0); fill-opacity:1.0; stroke-linejoin: miter"> <path d="M397.10553,896.89026L397.15344,896.90234Q397.3958,896.9651,397.50452,896.9876Q397.58008,897.0039,397.71014,897.0244Q397.7379,897.02936,397.8537,897.04047Q397.89862,897.0443,397.93982,897.0458Q398.0136,897.04974,398.10706,897.0422Q398.2072,897.03485,398.32172,897.0099Q398.42657,896.9861,398.51666,896.95667Q398.69788,896.8978,398.9909,896.7675L397.10553,896.89026"/> </g> <g style="fill:rgb(0,0,0); fill-opacity:1.0; stroke-linejoin: miter"> <path d="M393.02698,895.36066L393.02698,895.3613Q393.43677,895.4314,393.6513,895.45514Q393.73755,895.4651,393.82068,895.4712L393.90283,895.47595L393.98285,895.4785L394.06104,895.47894L394.13696,895.47644L394.21063,895.47144L394.2826,895.4641Q394.35358,895.45605,394.4214,895.4436Q394.5918,895.41425,394.87506,895.33344L393.02698,895.36066"/> </g> <g style="fill:rgb(0,0,0); fill-opacity:1.0; stroke-linejoin: miter"> <path d="M396.94922,895.0109L396.94922,895.0116Q397.13153,895.04254,397.27502,895.06464Q397.39362,895.0838,397.57373,895.10547Q397.71228,895.1212,397.825,895.1266L397.90533,895.12933L397.98346,895.1296L398.05927,895.12683L398.13306,895.1217Q398.2343,895.1134,398.3438,895.0939Q398.56525,895.05225,398.7975,894.9838L396.94922,895.0109"/> </g> <g style="fill:rgb(255,0,0); fill-opacity:0.11764706; stroke-linejoin: miter"> <path d="M394.38367,901.7137L394.46082,901.6933Q395.1618,901.5101,395.3474,901.5016Q395.59503,901.4735,395.9438,901.4877Q396.22992,901.45996,396.37372,901.4583Q396.6676,901.45386,396.97852,901.48596Q397.35846,901.52325,398.1324,901.6354Q397.06567,901.7842,396.75134,901.8132Q396.466,901.8416,396.26782,901.8573Q396.05328,901.8707,395.88727,901.8742Q395.68542,901.87683,395.64526,901.8747Q395.56464,901.87274,395.48407,901.8687Q395.32288,901.8604,395.16223,901.843Q395.01617,901.8267,394.84625,901.7994Q394.54053,901.7478,394.38367,901.7137"/> </g> <g style="fill:rgb(165,179,188); fill-opacity:1.0; stroke-linejoin: miter"> <path d="M411.27637,896.3693L411.27637,896.37006C411.27637,904.9657,404.30762,911.9345,395.71118,911.9345L395.71118,911.93536C387.11487,911.9345,380.14612,904.96594,380.14612,896.3693L380.14612,896.37006C380.14612,887.7727,387.11487,880.804,395.71118,880.804L395.71118,880.8048C404.3073,880.804,411.27637,887.7727,411.27637,896.3693L411.27637,896.37006 M385.59613,896.3693L385.59613,896.37006C385.59613,901.9561,390.12494,906.48456,395.71118,906.48456L395.71118,906.4854C401.2975,906.48456,405.8263,901.9559,405.8263,896.3693L405.8263,896.37006C405.8263,890.783,401.29755,886.2541,395.71118,886.2541L395.71118,886.25494C390.12476,886.2541,385.59613,890.783,385.59613,896.3693 Z"/> </g> <g style="fill:rgb(165,179,188); fill-opacity:1.0; stroke-linejoin: miter"> <path d="M415.19348,879.88556L449.12457,879.8857L449.12463,911.93427L415.1936,911.9345L415.19348,879.88556"/> </g> <g style="fill:rgb(255,252,252); fill-opacity:1.0; stroke-linejoin: miter"> <path d="M442.77765,896.7469L442.50348,898.2688Q441.279,902.8221,437.61688,905.21344Q433.93164,907.60004,429.43347,906.5482Q425.16742,905.3116,422.9704,901.4524Q422.26758,900.2054,421.88336,898.78687L421.5899,897.3394Q421.3816,895.85736,421.55823,894.2925Q422.22736,889.5047,425.58978,886.66315Q428.9522,883.82104,433.47467,884.22174Q437.96912,884.86426,440.59412,888.3987Q443.21912,891.93256,442.77765,896.7469"/> </g> <g style="fill:rgb(0,0,0); fill-opacity:1.0; stroke-linejoin: miter"> <path d="M437.2625,898.66614L437.46674,898.2637Q438.1156,897.0713,438.4416,895.73914Q438.62268,894.58984,438.56567,894.31995Q438.54797,893.8208,438.43152,893.2796Q438.04388,891.887,437.84717,891.59064Q437.57837,891.0179,437.2218,890.4736Q436.50378,889.36633,435.49548,888.59875Q433.73633,887.2456,431.4226,887.8964Q429.13263,888.59937,427.90588,890.762Q427.04858,892.454,427.3297,894.87146Q427.50757,896.82263,428.65894,900.7412L437.2625,898.66614"/> </g> <g style="fill:rgb(189,122,92); fill-opacity:1.0; stroke-linejoin: miter"> <path d="M435.15387,905.86804L435.15387,905.8688L434.8329,903.8587L436.4795,901.7608C436.71075,901.41833,436.86517,901.1653,436.96027,901.0119C437.27307,900.507,437.49603,899.90576,437.60474,899.19635C437.68134,898.69684,437.68402,898.00073,437.7362,897.1127C437.77386,896.4693,437.87683,895.85535,437.90393,895.2585C437.9344,894.58374,437.90656,894.1322,437.86664,893.90125C437.71655,893.03094,437.30402,892.2655,436.60834,891.6089L434.29065,894.17224C433.99225,894.4872,433.77966,894.67365,433.66675,894.75397C433.51233,894.86304,433.3448,894.94794,433.14874,894.9873C433.13232,895.0212,432.78052,894.96423,432.08386,894.90717C431.89453,894.89185,431.74664,894.96497,431.63733,895.0306C431.45746,895.1379,431.26776,895.2887,431.08887,895.5027C430.34454,896.39294,429.98328,896.824,429.98737,896.7807C429.7176,897.02826,429.453,897.1961,429.19342,897.2839C428.9339,897.3714,428.67603,897.4329,428.41998,897.4672C428.44647,896.2184,428.38934,895.39526,428.21857,895.0115C427.98895,894.4955,427.65344,894.44244,427.29218,894.8818C426.9021,895.3561,426.84247,896.3216,427.088,897.73206C427.32623,899.1015,427.78345,899.4095,428.43304,898.66174C428.60468,899.8896,428.68488,901.0913,428.687,902.26843C428.6883,903.0396,428.59473,904.36597,428.4339,904.92316C427.84833,906.95337,428.9474,905.7305,429.83594,907.02386L433.12372,909.6094L435.15387,905.86804L435.15387,905.8688 Z"/> </g> <g style="fill:rgb(255,255,255); fill-opacity:1.0; stroke-linejoin: miter"> <path d="M433.31824,896.72327L433.2597,896.66675Q433.08502,896.4933,432.89996,896.35754Q432.83795,896.31335,432.77356,896.2781L432.70837,896.24524L432.64178,896.2178Q432.55463,896.18896,432.54364,896.1883Q432.40833,896.1541,432.1944,896.17175Q432.02295,896.18445,431.66254,896.2745Q431.93365,896.4877,432.09247,896.5796Q432.15582,896.6174,432.22107,896.6482L432.28687,896.6774Q432.3532,896.7049,432.42212,896.72375L432.47162,896.73596Q432.52167,896.7469,432.57275,896.7537Q432.67523,896.7669,432.78174,896.7669Q432.9449,896.7705,433.31824,896.72327"/> </g> <g style="fill:rgb(0,0,0); fill-opacity:1.0; stroke-linejoin: miter"> <path d="M432.26953,896.15216L432.25482,896.1735Q432.15527,896.3124,432.13263,896.40063Q432.1092,896.4795,432.15326,896.6216Q432.30847,896.7182,432.40668,896.74316Q432.48883,896.7709,432.7318,896.78394Q432.85303,896.7067,432.88214,896.659Q432.9146,896.61316,432.92303,896.5518Q432.9322,896.5132,432.92676,896.3754Q432.75745,896.24615,432.6455,896.2114Q432.52167,896.16895,432.26953,896.15216"/> </g> <g style="fill:rgb(0,0,0); fill-opacity:1.0; stroke-linejoin: miter"> <path d="M433.739,895.8755L433.68457,895.8244Q433.5244,895.6664,433.3371,895.5358Q433.27362,895.49347,433.20435,895.4569L433.13287,895.422Q433.05975,895.38855,432.97845,895.36365Q432.8969,895.3387,432.8072,895.32227L432.71545,895.30725Q432.62195,895.29407,432.52252,895.28656Q432.27533,895.26697,431.78394,895.2774L433.739,895.8755"/> </g> <g style="fill:rgb(255,255,255); fill-opacity:1.0; stroke-linejoin: miter"> <path d="M435.87726,897.20294L435.9541,897.1762Q436.1855,897.09155,436.41028,897.0458Q436.48517,897.0321,436.5584,897.0266L436.63135,897.02405L436.7032,897.0269Q436.7945,897.0371,436.80487,897.04144Q436.94202,897.0668,437.12885,897.17224Q437.2791,897.25604,437.56897,897.4879Q437.2334,897.5684,437.05072,897.58563Q436.97754,897.5932,436.90527,897.59406L436.83325,897.5932Q436.76154,897.5902,436.69098,897.57855L436.64093,897.569Q436.591,897.5575,436.5417,897.5425Q436.4431,897.51154,436.3465,897.46686Q436.19672,897.4021,435.87726,897.20294"/> </g> <g style="fill:rgb(0,0,0); fill-opacity:1.0; stroke-linejoin: miter"> <path d="M437.06873,897.1231L437.07312,897.1486Q437.10547,897.31635,437.08923,897.4063Q437.07745,897.4875,436.97803,897.59827Q436.7965,897.62103,436.69702,897.6023Q436.61078,897.59296,436.38446,897.50366Q436.30664,897.38306,436.3003,897.32715Q436.28998,897.27203,436.30817,897.21265Q436.31604,897.1738,436.37836,897.051Q436.5863,897.00415,436.70245,897.01996Q436.83276,897.03284,437.06873,897.1231"/> </g> <g style="fill:rgb(0,0,0); fill-opacity:1.0; stroke-linejoin: miter"> <path d="M435.85004,896.2565L435.92096,896.2327Q436.1322,896.15674,436.357,896.1166Q436.43256,896.1041,436.5108,896.0998L436.59015,896.0983Q436.6704,896.09894,436.75482,896.1102Q436.83917,896.1217,436.92773,896.1443L437.01727,896.1688Q437.10767,896.19604,437.20105,896.2312Q437.43378,896.3169,437.8758,896.5318L435.85004,896.2565"/> </g> <g style="fill:rgb(140,80,53); fill-opacity:0.5529412; stroke-linejoin: miter"> <path d="M435.68665,899.89734L434.58826,900.3362L433.77972,899.3998L434.6994,899.9759L435.68665,899.89734"/> </g> <g style="fill:rgb(140,80,53); fill-opacity:0.34901962; stroke-linejoin: miter"> <path d="M434.8335,903.8742L434.74084,903.9482C434.32092,904.3099,433.91254,904.5262,433.51367,904.58527C433.01904,904.65796,432.56384,904.5798,432.14624,904.36957C431.76605,904.1786,431.37775,903.8848,430.98157,903.4856C430.50684,903.00696,429.87256,902.2599,429.0818,901.241L434.3022,908.28143L435.1563,905.877L434.8335,903.8742 Z"/> </g> <g style="fill:rgb(154,58,58); fill-opacity:1.0; stroke-linejoin: miter"> <path d="M427.80023,896.4061L427.80023,896.4061L427.80023,896.4061L427.80023,896.4061"/> </g> <g style="fill:rgb(158,226,255); fill-opacity:0.99607843; stroke-linejoin: miter"> <path d="M433.88525,904.2503L433.88525,904.25104L433.88525,904.2503L433.88525,904.25104"/> </g> <g style="fill:rgb(158,226,255); fill-opacity:0.99607843; stroke-linejoin: miter"> <path d="M434.0061,900.40106L434.0061,900.4012L434.0061,900.40106L434.0061,900.4012"/> </g> <g style="fill:rgb(255,0,0); fill-opacity:0.99607843; stroke-linejoin: miter"> <path d="M432.7209,900.8147L432.54767,900.8285Q432.8874,901.01746,433.2304,901.1787Q433.51746,901.3037,433.57605,901.3197Q433.69208,901.3606,433.8092,901.3916Q434.07788,901.4602,434.34082,901.4728Q434.43872,901.4802,434.62677,901.4781Q434.70972,901.47687,434.79303,901.4728Q434.8346,901.47217,435.04327,901.4566Q435.21063,901.44293,435.37823,901.427L434.61584,901.0614L432.7209,900.8147"/> </g> <g style="fill:rgb(255,0,0); fill-opacity:0.99607843; stroke-linejoin: miter"> <path d="M433.12018,901.53345L433.12018,901.53406L433.12018,901.53345L433.12018,901.53406"/> </g> <g style="fill:rgb(236,122,94); fill-opacity:0.99607843; stroke-linejoin: miter"> <path d="M430.89545,893.8448L430.89545,893.8455L430.89545,893.8448L430.89545,893.8455"/> </g> <g style="fill:rgb(255,255,255); fill-opacity:0.99607843; stroke-linejoin: miter"> <path d="M435.237,901.3115L433.06628,900.881L432.5288,900.846L433.28027,901.58057L434.50012,901.9906L435.40753,901.39954L435.237,901.3115"/> </g> <g style="fill:rgb(255,88,171); fill-opacity:1.0; stroke-linejoin: miter"> <path d="M435.41602,901.43805L435.41602,901.4382Q434.97375,901.0012,434.7447,900.89404Q434.6327,900.8392,434.50836,900.82104Q434.38116,900.8035,434.20483,900.81384Q434.01147,900.7135,433.84155,900.6744Q433.6468,900.62775,433.36053,900.6649Q433.08038,900.70044,432.55524,900.8274L434.0702,901.29126L435.41602,901.43805"/> </g> <g style="fill:rgb(255,88,171); fill-opacity:1.0; stroke-linejoin: miter"> <path d="M435.3629,901.448L435.3069,901.50946Q434.88678,901.9893,434.53766,902.15643Q434.18268,902.3245,433.74103,902.2268Q433.30652,902.125,433.03027,901.8006Q432.81464,901.57733,432.55383,900.8238Q433.04657,901.2179,433.32733,901.3793Q433.43933,901.44556,433.55304,901.4982L433.66748,901.5464Q433.78217,901.591,433.89923,901.61725Q434.01636,901.64307,434.13562,901.6507L434.25543,901.65393Q434.37567,901.65356,434.49768,901.63947Q434.80225,901.6078,435.3629,901.448"/> </g> <g style="fill:rgb(0,0,0); fill-opacity:0.99607843; stroke-linejoin: miter"> <path d="M427.63995,888.7119L427.63312,889.06323Q427.7088,890.13354,428.46466,890.8371Q429.22632,891.5404,430.34296,891.51654Q431.41345,891.4411,432.11682,890.6852Q432.3423,890.44073,432.50043,890.1429L432.6383,889.8348Q432.75775,889.5145,432.78967,889.1581Q432.8568,888.0613,432.19318,887.272Q431.52966,886.48236,430.43787,886.36017Q429.3413,886.2928,428.55194,886.9563Q427.7624,887.61993,427.63995,888.7119"/> </g> <g style="fill:rgb(0,0,0); fill-opacity:1.0; stroke-linejoin: miter"> <path d="M424.3147,890.8406L424.31458,890.8412L424.3147,890.8406L424.31458,890.8412L424.3147,890.8406 Z"/> </g> <g style="fill:rgb(0,0,0); fill-opacity:1.0; stroke-linejoin: miter"> <path d="M424.3147,890.8406L424.31458,890.8412L424.3147,890.8406L424.31458,890.8412L424.3147,890.8406 Z"/> </g> <g style="fill:rgb(244,67,54); fill-opacity:1.0; stroke-linejoin: miter"> <path d="M432.64752,906.68475L432.64746,906.6855L432.64746,906.685L432.64752,906.68475"/> </g> <g style="fill:rgb(165,179,188); fill-opacity:1.0; stroke-linejoin: miter"> <path d="M447.51172,895.52704L447.51172,895.5279C447.51172,904.12354,440.54315,911.09247,431.94666,911.09247L431.94666,911.0933C423.35028,911.09247,416.3816,904.12354,416.3816,895.52704L416.3816,895.5279C416.38153,886.93054,423.35034,879.962,431.94653,879.962L431.94653,879.9627C440.5428,879.962,447.51166,886.9303,447.51172,895.52704L447.51172,895.5279 M421.83173,895.52704L421.83173,895.5279C421.83173,901.1137,426.3604,905.6424,431.94666,905.6424L431.94666,905.6431C437.53296,905.6424,442.0617,901.1137,442.0617,895.52704L442.0617,895.5279C442.0617,889.94086,437.53308,885.4119,431.94653,885.4119L431.94653,885.41266C426.36023,885.4119,421.83173,889.94073,421.83173,895.52704 Z"/> </g> <g style="fill:rgb(165,179,188); fill-opacity:1.0; stroke-linejoin: miter"> <path d="M403.66327,911.93427L403.66327,911.9351L403.66327,911.9345L403.66327,911.93427L403.66327,911.9351L403.66327,911.93427L403.66327,911.9345Q403.66327,911.93427,403.66327,911.93427"/> </g> <g style="fill:rgb(0,0,0); fill-opacity:1.0; stroke-linejoin: miter"> <path d="M317.64795,889.6524L324.63275,889.6535C325.91852,889.6524,326.96094,890.6949,326.96094,891.9808L326.96094,896.63715C326.96094,897.92316,325.91852,898.96576,324.63275,898.96576L317.64795,898.967C316.36206,898.96576,315.31976,897.92316,315.31976,896.63715L315.31976,891.9808C315.31976,890.6949,316.36206,889.6524,317.64795,889.6524 Z M326.96094,893.14484L329.75488,891.04944C330.26923,890.6638,330.99884,890.76825,331.38458,891.2823L331.38458,895.93915C331.38458,896.5818,330.86353,897.10284,330.22052,897.10284C329.96863,897.10284,329.72345,897.0212,329.52203,896.87024L326.7281,894.77484 Z"/> </g> <g style="fill:rgb(0,0,0); fill-opacity:1.0; stroke-linejoin: miter"> <path d="M317.64795,889.6524L317.64795,889.65326L324.63275,889.6535L324.63275,889.6544C325.91785,889.6524,326.95978,890.6937,326.96094,891.97876L326.96094,891.97955C326.96094,891.97955,326.96094,891.9798,326.96094,891.9808L326.96094,891.9815L326.96094,896.63715L326.96094,896.638C326.96094,897.92316,325.91852,898.96576,324.63275,898.96576L324.63275,898.9665L317.64795,898.967L317.64795,898.96783C316.36206,898.96576,315.31976,897.92316,315.31976,896.63715L315.31976,896.638L315.31976,891.9808L315.31976,891.9815C315.31976,890.6949,316.36206,889.6524,317.64795,889.6524L317.64795,889.65326 M317.64795,889.6524L317.64795,889.65326C316.36206,889.6524,315.31976,890.6949,315.31976,891.9808L315.31976,891.9815L315.31976,896.63715L315.31976,896.638C315.31976,897.92316,316.36206,898.96576,317.64795,898.967L317.64795,898.96783L324.63275,898.96576L324.63275,898.9665C325.91852,898.96576,326.96094,897.92316,326.96094,896.63715L326.96094,896.638L326.96094,891.9808L326.96094,891.9815C326.96094,891.9798,326.96094,891.97955,326.96094,891.97876L326.96094,891.97955C326.95978,890.6937,325.91785,889.6524,324.63275,889.6535L324.63275,889.6544L317.64795,889.6524 Z M326.96094,893.14484L326.96094,893.1457L329.75488,891.04944L329.75488,891.0502C330.26923,890.6638,330.99884,890.76825,331.38458,891.2823L331.38458,891.2831L331.38458,895.93915L331.38458,895.93976C331.38458,896.5818,330.86353,897.10284,330.22052,897.10284L330.22052,897.1038C329.96863,897.10284,329.72345,897.0212,329.52203,896.87024L329.52203,896.871L326.7281,894.77484L326.7281,894.77563L326.96094,893.14484L326.96094,893.1457 M326.96094,893.14484L326.96094,893.1457L326.7281,894.77484L326.7281,894.77563L329.52203,896.87024L329.52203,896.871C329.72345,897.0212,329.96863,897.10284,330.22052,897.10284L330.22052,897.1038C330.86353,897.10284,331.38458,896.5818,331.38458,895.93915L331.38458,895.93976L331.38458,891.2823L331.38458,891.2831C330.99884,890.76825,330.26923,890.6638,329.75488,891.04944L329.75488,891.0502L326.96094,893.14484 Z"/> </g> <g style="fill:rgb(0,0,0); fill-opacity:1.0; stroke-linejoin: miter"> <path d="M341.47437,889.7662C342.2257,889.7662,342.83728,890.37787,342.83728,891.12915L342.83728,893.8551C342.83728,894.6064,342.2257,895.21796,341.47437,895.21796C340.72296,895.21796,340.1114,894.6064,340.1114,893.8551L340.1114,891.12915C340.1114,890.37787,340.72296,889.7662,341.47437,889.7662 Z M341.47437,888.8577C340.22504,888.8577,339.2027,889.87994,339.2027,891.12915L339.2027,893.8551C339.2027,895.10443,340.22504,896.1264,341.47437,896.1264C342.72375,896.1264,343.74597,895.10443,343.74597,893.8551L343.74597,891.12915C343.74597,889.87994,342.72375,888.8577,341.47437,888.8577 Z"/> </g> <g style="fill:rgb(0,0,0); fill-opacity:1.0; stroke-linejoin: miter"> <path d="M345.5631,892.9464L345.5631,893.8551C345.5631,895.94946,343.96405,897.68964,341.92865,897.9167L341.92865,898.85236L343.74597,898.8527C343.99573,898.85236,344.2002,899.057,344.2002,899.3069C344.2002,899.55664,343.99573,899.76105,343.74597,899.76105L339.2027,899.76154C338.95288,899.76105,338.74847,899.55664,338.74847,899.3069C338.74847,899.057,338.95288,898.85236,339.2027,898.85236L341.01996,898.8527L341.01996,897.9167C338.98474,897.68964,337.38556,895.94946,337.38556,893.8551L337.38556,892.9464C337.38556,892.6964,337.58997,892.49225,337.83984,892.49225C338.08966,892.49225,338.2942,892.6964,338.2942,892.9464L338.2942,893.8551C338.2942,895.6087,339.7207,897.0351,341.47437,897.0351C343.22797,897.0351,344.65454,895.6087,344.65454,893.8551L344.65454,892.9464C344.65454,892.6964,344.85907,892.49225,345.1089,892.49225C345.35876,892.49225,345.5631,892.6964,345.5631,892.9464 Z"/> </g> <g style="fill:rgb(0,0,0); fill-opacity:1.0; stroke-linejoin: miter"> <path d="M341.47437,889.75745C340.71826,889.75745,340.10266,890.3726,340.10266,891.12915L340.10266,893.8551C340.10266,894.61115,340.71826,895.2267,341.47437,895.2267C342.23053,895.2267,342.84595,894.61115,342.84595,893.8551L342.84595,891.12915C342.84595,890.3726,342.23035,889.75745,341.47437,889.75745 Z"/> </g> <g style="fill:rgb(0,0,0); fill-opacity:1.0; stroke-linejoin: miter"> <path d="M306.85815,898.1916L299.23724,898.19244C297.88452,898.1916,296.77673,897.0839,296.77673,895.73114L296.77673,892.8881C296.77673,891.53534,297.88452,890.42755,299.23724,890.42755L306.85815,890.42834C308.21088,890.42755,309.31866,891.53534,309.31866,892.8881L309.31866,895.73114C309.31866,897.0867,308.21088,898.1916,306.85815,898.1916 Z"/> </g> <g style="fill:rgb(255,255,255); fill-opacity:1.0; stroke-linejoin: miter"> <path d="M298.73645,892.65137L301.6808,892.6522L304.62506,892.65137L304.62506,893.2386Q301.6808,893.2386,298.73645,893.2386Q298.73645,892.9449,298.73645,892.65137"/> </g> <g style="fill:rgb(255,255,255); fill-opacity:1.0; stroke-linejoin: miter"> <path d="M298.75677,894.01807L304.64532,894.01886L304.64532,894.6049L298.75677,894.6059L298.75677,894.01807"/> </g> <g style="fill:rgb(255,255,255); fill-opacity:1.0; stroke-linejoin: miter"> <path d="M298.8073,895.3847L301.75165,895.38544L304.69592,895.3847L304.69592,895.9716Q301.75165,895.9716,298.8073,895.9716Q298.8073,895.6781,298.8073,895.3847"/> </g> <g style="fill:rgb(165,179,188); fill-opacity:0.15686275; stroke-linejoin: miter"> <path d="M271.65222,886.22375L311.57263,886.2241L351.4931,886.22437Q351.4931,894.30963,351.4931,902.3949Q311.57263,902.39526,271.65222,902.3954Q271.65222,894.30963,271.65222,886.22375"/> </g> <g style="fill:rgb(51,202,35); fill-opacity:1.0; stroke-linejoin: miter"> <path d="M285.40295,894.94617L285.36664,895.48535Q285.10883,897.1142,283.8579,898.091Q282.59833,899.06683,280.89142,898.8823Q279.26233,898.62445,278.2857,897.37354Q277.97272,896.96906,277.77014,896.49243L277.59985,896.0022Q277.45953,895.4962,277.45795,894.94617Q277.50055,893.2581,278.62146,892.13727Q279.74243,891.01636,281.43042,890.97363Q283.11847,891.01636,284.23944,892.13727Q285.36035,893.2581,285.40295,894.94617"/> </g> <g style="fill:rgb(155,166,173); fill-opacity:1.0; stroke-linejoin: miter"> <path d="M418.7613,926.6611L435.46332,926.6637C438.53796,926.6611,441.03046,929.15356,441.03046,932.22925L441.0304,943.3632C441.0304,946.439,438.53796,948.9316,435.46332,948.9316L418.76123,948.93384C415.68646,948.9316,413.19385,946.439,413.19385,943.3632L413.19385,932.22925C413.19385,929.15356,415.68646,926.6611,418.7613,926.6611 Z"/> </g> <g style="fill:rgb(155,166,173); fill-opacity:1.0; stroke-linejoin: miter"> <path d="M441.03046,935.01263L447.71124,930.00134C448.94128,929.0791,450.68622,929.3296,451.60858,930.55896L451.60846,941.6939C451.60846,943.231,450.36224,944.4772,448.8249,944.4772C448.22253,944.4772,447.63647,944.2812,447.1546,943.9208L440.474,938.9101 Z"/> </g> <g style="fill:rgb(0,0,0); fill-opacity:1.0; stroke-linejoin: miter"> <path d="M418.7613,926.6611L418.7613,926.6618L435.46332,926.6637L435.46332,926.6647C438.53625,926.6611,441.02765,929.1513,441.03046,932.22375L441.03046,932.2246C441.03046,932.2259,441.03046,932.22675,441.03046,932.22925L441.03046,932.23L441.0304,943.3632L441.0304,943.3641C441.0304,946.439,438.53796,948.9316,435.46332,948.9316L435.46332,948.9324L418.76123,948.93384L418.76123,948.9347C415.68646,948.9316,413.19385,946.439,413.19385,943.3632L413.19385,943.3641L413.19385,932.22925L413.19385,932.23C413.19385,929.15356,415.68646,926.6611,418.7613,926.6611L418.7613,926.6618 M418.7613,926.6611L418.7613,926.6618C415.68646,926.6611,413.19385,929.15356,413.19385,932.22925L413.19385,932.23L413.19385,943.3632L413.19385,943.3641C413.19385,946.439,415.68646,948.9316,418.76123,948.93384L418.76123,948.9347L435.46332,948.9316L435.46332,948.9324C438.53796,948.9316,441.0304,946.439,441.0304,943.3632L441.0304,943.3641L441.03046,932.22925L441.03046,932.23C441.03046,932.22675,441.03046,932.2259,441.03046,932.22375L441.03046,932.2246C441.02765,929.1513,438.53625,926.6611,435.46332,926.6637L435.46332,926.6647L418.7613,926.6611 Z M441.03046,935.01263L441.03046,935.0135L447.71124,930.00134L447.71124,930.0022C448.94128,929.0791,450.68622,929.3296,451.60858,930.55896L451.60858,930.5597L451.60846,941.6939L451.60846,941.69464C451.60846,943.231,450.36224,944.4772,448.8249,944.4772L448.8249,944.4778C448.22253,944.4772,447.63647,944.2812,447.1546,943.9208L447.1546,943.92145L440.474,938.9101L440.474,938.9108L441.03046,935.01263L441.03046,935.0135 M441.03046,935.01263L441.03046,935.0135L440.474,938.9101L440.474,938.9108L447.1546,943.9208L447.1546,943.92145C447.63647,944.2812,448.22253,944.4772,448.8249,944.4772L448.8249,944.4778C450.36224,944.4772,451.60846,943.231,451.60846,941.6939L451.60846,941.69464L451.60858,930.55896L451.60858,930.5597C450.68622,929.3296,448.94128,929.0791,447.71124,930.00134L447.71124,930.0022L441.03046,935.01263 Z"/> </g> <g style="fill:rgb(124,133,138); fill-opacity:1.0; stroke-linejoin: miter"> <path d="M419.96204,928.2625L434.2625,928.2648C436.89508,928.2625,439.02905,930.39655,439.02905,933.0299L439.02905,942.5628C439.02905,945.1965,436.89508,947.3307,434.2625,947.3307L419.96204,947.3325C417.32935,947.3307,415.19513,945.1965,415.19513,942.5628L415.19513,933.0299C415.19513,930.39655,417.32935,928.2625,419.96204,928.2625 Z"/> </g> <g style="fill:rgb(0,0,0); fill-opacity:0.1882353; stroke-linejoin: miter"> <path d="M395.07104,963.3378L447.33893,963.3382L447.33893,1021.98456L395.07104,1021.9854L395.07104,963.3378"/> </g> <g style="fill:rgb(165,179,188); fill-opacity:1.0; stroke-linejoin: miter"> <path d="M398.87335,970.06665L414.5111,970.0668L430.14893,970.0668Q430.14893,971.8369,430.14893,973.60693Q414.5111,973.60693,398.87335,973.60706Q398.87335,971.8369,398.87335,970.06665"/> </g> <g style="fill:rgb(165,179,188); fill-opacity:1.0; stroke-linejoin: miter"> <path d="M401.14172,975.6802L404.9745,975.68036L408.80725,975.6805Q408.80725,976.1252,408.80725,976.5701Q404.9745,976.5701,401.14172,976.57025Q401.14172,976.1252,401.14172,975.6802"/> </g> <g style="fill:rgb(165,179,188); fill-opacity:1.0; stroke-linejoin: miter"> <path d="M399.2782,985.51074L410.50128,985.51074L421.72424,985.51074Q421.72424,985.76495,421.72424,986.0191Q410.50128,986.0191,399.2782,986.0192Q399.2782,985.76495,399.2782,985.51074"/> </g> <g style="fill:rgb(165,179,188); fill-opacity:1.0; stroke-linejoin: miter"> <path d="M398.26184,993.9003L414.01642,993.90045L429.771,993.90045Q429.771,998.51904,429.771,1003.1376Q414.01642,1003.1377,398.26184,1003.1377Q398.26184,998.5189,398.26184,993.9003"/> </g> <g style="fill:rgb(165,179,188); fill-opacity:1.0; stroke-linejoin: miter"> <path d="M399.10883,1010.6797L412.36475,1010.6797L425.6206,1010.6798Q425.6206,1013.39166,425.6206,1016.10345Q412.36475,1016.10345,399.10883,1016.10345Q399.10883,1013.39166,399.10883,1010.6797"/> </g> </g> </svg>