<svg width="309.004639" height="298.187683" viewBox="0 0 309.005 298.188" fill="none" xmlns="http://www.w3.org/2000/svg" xmlns:xlink="http://www.w3.org/1999/xlink">
	<desc>
			Created with Pixso.
	</desc>
	<path id="Path 4899" d="M124.787 291.594C39.5828 275.751 50.9812 228.918 24.1663 174.856C-2.64868 120.794 -5.81909 98.7891 20.7395 52.4481C47.2981 6.10704 104.747 -19.9551 158.284 18.8088C211.822 57.5727 250.897 45.5522 283.283 75.7473C315.669 105.942 320.015 148.09 281.623 185.643C243.232 223.195 229.845 311.109 124.787 291.594Z" fill-rule="evenodd" fill="#352D49"/>
	<g opacity="0.700000">
		<path id="Path 4900" d="M124.787 291.594C39.5828 275.751 50.9812 228.918 24.1663 174.856C-2.64868 120.794 -5.81909 98.7891 20.7395 52.4481C47.2981 6.10704 104.747 -19.9551 158.284 18.8088C211.822 57.5727 250.897 45.5522 283.283 75.7473C315.669 105.942 320.015 148.09 281.623 185.643C243.232 223.195 229.845 311.109 124.787 291.594Z" fill-rule="evenodd" fill="#FFFFFF"/>
	</g>
	<path id="Path 4901" d="M21.1384 168.959L21.1384 36.9077L31.7107 36.9077" stroke="#263238" stroke-linejoin="round" stroke-linecap="round"/>
	<path id="Line 6" d="M21.1458 190.548L21.1458 185.733" stroke="#263238" stroke-linejoin="round" stroke-linecap="round"/>
	<path id="Path 4902" d="M58.8892 36.9077L167.93 36.9077L167.93 207.451L21.1387 207.451" stroke="#263238" stroke-linejoin="round" stroke-linecap="round"/>
	<path id="Line 7" d="M45.5171 36.9077L55.0989 36.9077" stroke="#263238" stroke-linejoin="round" stroke-linecap="round"/>
	<rect id="Rectangle 17324" x="26.659668" y="42.766571" width="135.749329" height="158.832748" stroke="#263238" stroke-linejoin="round"/>
	<path id="Path 4903" d="M156.097 53.909L156.097 115.684L32.9717 115.684L32.9717 110.053" stroke="#263238" stroke-linejoin="round" stroke-linecap="round"/>
	<path id="Path 4904" d="M32.9717 96.8362L32.9717 48.8979L156.097 48.8979" stroke="#263238" stroke-linejoin="round" stroke-linecap="round"/>
	<path id="Line 8" d="M32.9788 105.715L32.9788 100.235" stroke="#263238" stroke-linejoin="round" stroke-linecap="round"/>
	<path id="Line 9" d="M135.309 122.179L162.409 122.179" stroke="#263238" stroke-linejoin="round" stroke-linecap="round"/>
	<path id="Line 10" d="M125.67 122.179L129.503 122.179" stroke="#263238" stroke-linejoin="round" stroke-linecap="round"/>
	<path id="Line 11" d="M26.6597 122.179L121.089 122.179" stroke="#263238" stroke-linejoin="round" stroke-linecap="round"/>
	<path id="Path 4905" d="M87.7131 115.684L87.7131 112.717L99.0618 112.717L99.0618 114.405L94.5381 114.405L94.5381 115.684" stroke="#263238" stroke-linejoin="round" stroke-linecap="round"/>
	<path id="Path 4906" d="M26.8948 175.416C26.8948 175.416 28.7756 176.93 30.1006 186.089C30.1006 186.089 32.3804 171.457 35.1445 171.23C37.9087 171.003 37.3245 180.753 37.3245 180.753C37.3245 180.753 37.7803 175.946 39.946 176.165C42.1118 176.385 39.946 186.089 39.946 186.089C39.946 186.089 42.5464 178.52 45.0042 178.656C47.4619 178.792 43.3728 192.364 43.3728 192.364C43.3728 192.364 49.6848 187.505 52.2422 189.882C54.7998 192.258 50.8174 198.254 50.8174 198.254C50.8174 198.254 59.8721 196.164 61.2756 201.804" stroke="#263238" stroke-linejoin="round" stroke-linecap="round"/>
	<path id="Path 4907" d="M61.2969 196.338C61.2969 196.338 65.2437 193.591 68.3425 194.87C68.3425 194.87 66.3691 191.676 68.3425 189.723C70.3159 187.77 72.8521 194.87 72.8521 194.87C72.8521 194.87 73.1372 182.978 77.0837 183.576C81.0305 184.174 77.0837 194.87 77.0837 194.87C77.0837 194.87 84.1296 188.239 85.8179 190.548C87.5063 192.856 84.6924 196.338 84.6924 196.338C84.6924 196.338 88.917 194.9 92.0159 198.254C92.0159 198.254 96.7393 193.129 101.99 192.395C101.99 192.395 98.4988 181.631 100.194 179.458C101.89 177.286 104.953 188.852 104.953 188.852C104.953 188.852 106.3 181.328 110.709 180.753C110.709 180.753 107.033 178.626 108.124 175.416C109.213 172.207 114.286 176.173 114.286 176.173C114.286 176.173 112.198 170.519 115.497 168.967C118.795 167.415 120.17 173.698 120.17 173.698C120.17 173.698 121.089 167.112 124.965 167.476C128.84 167.839 127.586 175.424 127.586 175.424C127.586 175.424 131.241 169.368 133.2 170.011C137.111 171.238 135.922 180.76 135.922 180.76C135.922 180.76 141.386 176.726 142.789 178.58C144.307 180.586 137.09 185.741 137.09 185.741C137.09 185.741 142.511 186.377 145.881 189.73" stroke="#263238" stroke-linejoin="round" stroke-linecap="round"/>
	<path id="Path 4908" d="M162.409 177.589C162.409 177.589 161.789 171.533 156.097 171.23C150.405 170.927 157.664 184.477 157.664 184.477C157.664 184.477 152.969 180.352 151.288 181.623C149.607 182.895 156.097 189.882 156.097 189.882C156.097 189.882 152.984 186.854 149.685 187.77C146.387 188.686 151.559 198.443 151.559 198.443C146.684 197.397 141.622 198.025 137.104 200.237" stroke="#263238" stroke-linejoin="round" stroke-linecap="round"/>
	<path id="Path 4909" d="M219.031 258.81L219.031 183.357L298.992 183.357" stroke="#263238" stroke-linejoin="round" stroke-linecap="round"/>
	<path id="Path 4910" d="M296.085 191.161L225.464 191.161L225.464 261.445" stroke="#263238" stroke-linejoin="round" stroke-linecap="round"/>
	<path id="Path 4911" d="M239.598 229.493L239.598 198.254L244.222 198.254L244.222 204.695L250.391 204.695L250.391 201.804L255.906 201.804L255.906 205.308L263.35 205.308L263.35 198.254L270.966 198.254L270.966 202.992L275.069 202.992L275.069 200.237L282.421 200.237L282.421 218.638" stroke="#263238" stroke-linejoin="round" stroke-linecap="round"/>
	<path id="Line 12" d="M275.069 202.992L275.069 229.493" stroke="#263238" stroke-linejoin="round" stroke-linecap="round"/>
	<path id="Line 13" d="M271.557 206.959L271.557 211.69" stroke="#263238" stroke-linejoin="round" stroke-linecap="round"/>
	<path id="Line 14" d="M271.557 215.081L271.557 234.512" stroke="#263238" stroke-linejoin="round" stroke-linecap="round"/>
	<path id="Line 15" d="M263.35 205.316L263.35 222.771" stroke="#263238" stroke-linejoin="round" stroke-linecap="round"/>
	<path id="Line 16" d="M263.635 228.524L263.635 233.959" stroke="#263238" stroke-linejoin="round" stroke-linecap="round"/>
	<path id="Line 17" d="M255.906 205.316L255.906 215.081" stroke="#263238" stroke-linejoin="round" stroke-linecap="round"/>
	<path id="Line 18" d="M255.906 221.083L255.906 241.658" stroke="#263238" stroke-linejoin="round" stroke-linecap="round"/>
	<path id="Line 19" d="M250.391 204.695L250.391 228.948" stroke="#263238" stroke-linejoin="round" stroke-linecap="round"/>
	<path id="Line 20" d="M244.222 204.695L244.222 213.87" stroke="#263238" stroke-linejoin="round" stroke-linecap="round"/>
	<path id="Line 21" d="M244.222 218.638L244.222 240.446" stroke="#263238" stroke-linejoin="round" stroke-linecap="round"/>
	<path id="Line 22" d="M239.598 233.959L239.598 243.807" stroke="#263238" stroke-linejoin="round" stroke-linecap="round"/>
	<path id="Line 23" d="M230.059 243.807L286.183 243.807" stroke="#263238" stroke-linejoin="round" stroke-linecap="round"/>
	<path id="Line 24" d="M275.069 243.807L275.069 237.502" stroke="#263238" stroke-linejoin="round" stroke-linecap="round"/>
	<path id="Line 25" d="M263.635 239.167L263.635 243.512" stroke="#263238" stroke-linejoin="round" stroke-linecap="round"/>
	<path id="Line 26" d="M283.048 208.329L288.491 208.329" stroke="#263238" stroke-linejoin="round" stroke-linecap="round"/>
	<path id="Line 27" d="M230.273 249.303L282.421 249.303" stroke="#263238" stroke-linejoin="round" stroke-linecap="round"/>
	<path id="Path 4912" d="M241.465 265.328L241.465 257.985L251.125 257.985L251.125 262.716L258.897 262.716L258.897 271.944L263.35 271.944L263.35 258.265L273.217 258.265L273.217 261.445L279.28 261.445" stroke="#263238" stroke-linejoin="round" stroke-linecap="round"/>
	<path id="Line 28" d="M273.217 261.444L273.217 269.317" stroke="#263238" stroke-linejoin="round" stroke-linecap="round"/>
	<path id="Line 29" d="M263.635 275.274L263.635 280.573" stroke="#263238" stroke-linejoin="round" stroke-linecap="round"/>
	<path id="Line 30" d="M258.898 271.944L258.898 278.923" stroke="#263238" stroke-linejoin="round" stroke-linecap="round"/>
	<path id="Line 31" d="M251.125 262.716L251.125 266.72" stroke="#263238" stroke-linejoin="round" stroke-linecap="round"/>
	<rect id="Rectangle 17325" x="125.605957" y="22.298370" width="170.721451" height="125.329727" fill="#FFD141"/>
	<rect id="Rectangle 17325" x="125.605957" y="22.298370" width="170.721451" height="125.329727" stroke="#263238" stroke-linejoin="round"/>
	<rect id="Rectangle 17326" x="125.605957" y="22.298386" width="170.721451" height="12.391421" fill="#263238"/>
	<path id="Path 4913" d="M194.766 108.228L190.763 102.309C190.762 101.073 190.702 99.8373 190.585 98.6075C190.435 98.0549 188.006 93.99 187.949 93.0287C187.94 92.5696 187.885 92.1129 187.785 91.6662C187.785 91.6661 186.538 91.9992 186.552 92.8092C186.567 93.6191 186.702 96.3517 186.702 96.3517C186.702 96.3517 183.453 94.3382 183.09 93.8083C182.727 93.2785 178.766 90.1901 178.395 89.7283C178.025 89.2666 176.515 89.2363 176.336 89.7283L176.55 90.2961L175.303 90.9243L176.137 93.551C175.898 94.1423 175.754 94.7715 175.709 95.4131C175.845 95.7386 176.287 97.684 176.287 97.684C176.287 97.684 176.016 97.9792 176.052 99.0087C176.087 100.038 181.409 105.299 182.463 105.867C183.722 106.429 185.012 106.912 186.324 107.312L189.666 111.907L194.766 108.228Z" fill-rule="evenodd" fill="#FFFFFF"/>
	<path id="Path 4913" d="M190.763 102.309C190.762 101.073 190.702 99.8373 190.585 98.6075C190.435 98.0549 188.006 93.99 187.949 93.0287C187.94 92.5696 187.885 92.1129 187.785 91.6662C187.785 91.6661 186.538 91.9992 186.552 92.8092C186.567 93.6191 186.702 96.3517 186.702 96.3517C186.702 96.3517 183.453 94.3382 183.09 93.8083C182.727 93.2785 178.766 90.1901 178.395 89.7283C178.025 89.2666 176.515 89.2363 176.336 89.7283L176.55 90.2961L175.303 90.9243L176.137 93.551C175.898 94.1423 175.754 94.7715 175.709 95.4131C175.845 95.7386 176.287 97.684 176.287 97.684C176.287 97.684 176.016 97.9792 176.052 99.0087C176.087 100.038 181.409 105.299 182.463 105.867C183.722 106.429 185.012 106.912 186.324 107.312L189.666 111.907L194.766 108.228L190.763 102.309Z" stroke="#263238" stroke-linejoin="round"/>
	<path id="Path 4914" d="M186.695 96.3517C186.073 97.8558 185.914 99.5298 186.239 101.136" stroke="#263238" stroke-linejoin="round" stroke-linecap="round"/>
	<path id="Path 4915" d="M176.543 90.296C177.619 90.735 178.965 92.8697 179.585 93.5282C180.146 94.0655 180.746 94.554 181.38 94.9891" stroke="#263238" stroke-linejoin="round" stroke-linecap="round"/>
	<path id="Path 4916" d="M176.13 93.5282C177.013 93.3314 177.612 93.6948 177.591 94.6107C177.569 95.5266 179.479 96.9194 179.479 96.9194" stroke="#263238" stroke-linejoin="round" stroke-linecap="round"/>
	<path id="Path 4917" d="M176.28 97.6613C176.28 97.6613 176.899 96.488 177.391 97.0254C177.883 97.5629 178.039 98.9405 178.944 99.2281" stroke="#263238" stroke-linejoin="round" stroke-linecap="round"/>
	<path id="Path 4918" d="M246.829 101.794C246.829 101.794 232.774 102.718 229.675 104.065C227.131 105.178 209.243 117.69 209.243 117.69C209.243 117.69 198.72 109.258 195.664 106.336C195.075 106.033 194.441 105.839 193.791 105.761L192.188 104.678L188.248 110.575L189.352 112.202C189.352 112.202 189.531 114.829 190.022 115.488C196.562 124.215 209.086 136.433 210.967 137.636C212.847 138.84 229.532 128.348 229.532 128.348L232.631 147.651L282.393 147.651C282.393 147.651 282.264 113.777 280.17 111.18C278.075 108.584 254.067 98.403 254.067 98.403L246.829 101.794Z" fill-rule="evenodd" fill="#757575"/>
	<path id="Path 4918" d="M229.675 104.065C227.131 105.178 209.243 117.69 209.243 117.69C209.243 117.69 198.72 109.258 195.664 106.336C195.075 106.033 194.441 105.839 193.791 105.761L192.188 104.678L188.248 110.575L189.352 112.202C189.352 112.202 189.531 114.829 190.022 115.488C196.562 124.215 209.086 136.433 210.967 137.636C212.847 138.84 229.532 128.348 229.532 128.348L232.631 147.651L282.393 147.651C282.393 147.651 282.264 113.777 280.17 111.18C278.075 108.584 254.067 98.403 254.067 98.403L246.829 101.794C246.829 101.794 232.774 102.718 229.675 104.065Z" stroke="#263238" stroke-linejoin="round"/>
	<path id="Path 4919" d="M263.635 89.5391C263.635 89.5391 259.176 92.7183 261.541 102.877C261.541 102.877 254.823 107.979 248.176 102.831C248.176 102.831 249.708 94.7318 248.176 93.1043L263.635 89.5391Z" fill-rule="evenodd" fill="#FFFFFF"/>
	<path id="Path 4919" d="M261.541 102.877C261.541 102.877 254.823 107.979 248.176 102.831C248.176 102.831 249.708 94.7318 248.176 93.1043L263.635 89.5391C263.635 89.5391 259.176 92.7183 261.541 102.877Z" stroke="#263238" stroke-linejoin="round"/>
	<path id="Path 4920" d="M279.28 112.755C279.28 112.755 273.217 120.166 272.511 132.852" stroke="#263238" stroke-linejoin="round" stroke-linecap="round"/>
	<path id="Path 4921" d="M252.6 69.1844C252.6 69.1844 248.625 68.5486 247.235 73.7262C246.426 76.8972 246.754 80.2743 248.155 83.2033L255.464 75.9138L252.6 69.1844Z" fill-rule="evenodd" fill="#263238"/>
	<path id="Path 4922" d="M262.275 92.6274C267.397 86.1328 271.015 75.3082 263.322 70.986C248.475 62.6443 243.567 78.9417 246.06 94.0808C246.829 98.7513 252.799 96.6696 257.167 94.9816L262.275 92.6274Z" fill-rule="evenodd" fill="#FFFFFF"/>
	<path id="Path 4922" d="M263.322 70.986C248.475 62.6443 243.567 78.9417 246.06 94.0808C246.829 98.7513 252.799 96.6696 257.167 94.9816L262.275 92.6274C267.397 86.1328 271.015 75.3082 263.322 70.986Z" stroke="#263238" stroke-linejoin="round"/>
	<path id="Path 4923" d="M251.902 78.5102C251.902 78.5102 254.352 79.2141 254.972 80.6069" stroke="#263238" stroke-linejoin="round" stroke-linecap="round"/>
	<path id="Path 4924" d="M248.354 77.8214C247.766 77.5139 247.069 77.5541 246.516 77.9273" stroke="#263238" stroke-linejoin="round" stroke-linecap="round"/>
	<path id="Path 4925" d="M251.859 82.0981C251.816 82.5599 252.009 82.9611 252.286 82.9914C252.564 83.0216 252.828 82.6659 252.871 82.2344C252.913 81.8029 252.721 81.3639 252.443 81.3336C252.165 81.3033 251.902 81.6288 251.859 82.0981Z" fill-rule="evenodd" fill="#263238"/>
	<path id="Path 4926" d="M246.544 80.6978C246.509 81.1671 246.701 81.5683 246.979 81.5986C247.257 81.6288 247.521 81.2731 247.563 80.8416C247.606 80.4102 247.414 79.9787 247.129 79.9484C246.844 79.9182 246.587 80.236 246.544 80.6978Z" fill-rule="evenodd" fill="#263238"/>
	<path id="Path 4927" d="M259.988 85.1335C259.988 85.1335 257.686 88.6761 256.141 89.8116C255.142 90.4912 253.938 90.7453 252.771 90.5231C252.771 90.5231 250.798 87.9343 247.919 87.8965C247.174 87.3925 246.327 87.0837 245.447 86.9957L245.611 83.0443C245.611 83.0443 243.424 91.5147 243.631 94.5501C243.837 97.5855 250.862 99.6899 254.374 98.8421C257.886 97.9943 259.674 92.1884 260.743 86.7307C260.821 86.2766 259.988 85.1335 259.988 85.1335Z" fill-rule="evenodd" fill="#263238"/>
	<path id="Path 4928" d="M245.875 89.8494C245.875 89.8494 248.653 91.2649 251.125 90.9318" stroke="#FFFFFF" stroke-linejoin="round" stroke-linecap="round"/>
	<path id="Path 4929" d="M262.289 74.3394C263.2 73.5824 260.864 70.3275 259.553 70.3956C258.242 70.4637 251.809 70.7211 251.809 70.7211C251.809 70.7211 250.456 63.1969 261.284 67.2617C263.058 67.9279 263.628 69.6916 265.217 70.5923C266.805 71.4932 268.957 76.2317 268.344 80.2739C267.732 84.316 265.701 91.4088 262.018 93.5358C262.018 93.5358 260.75 93.3995 261.519 92.4685C265.146 88.1311 261.348 79.9711 260.743 86.7156L259.468 85.9056C259.458 85.165 259.53 84.4257 259.681 83.7029C259.952 81.8484 258.022 78.056 262.289 74.3394Z" fill-rule="evenodd" fill="#263238"/>
	<path id="Path 4930" d="M261.733 84.6415C261.733 84.6415 264.063 81.7045 265.473 82.7037C266.884 83.7029 265.936 87.2455 265.181 88.1311C264.426 89.0168 263.813 89.2136 262.766 90.6291C261.719 92.0446 260.401 91.5677 260.629 90.4323L261.733 84.6415Z" fill-rule="evenodd" fill="#FFFFFF"/>
	<path id="Path 4930" d="M265.473 82.7037C266.884 83.7029 265.936 87.2455 265.181 88.1311C264.426 89.0168 263.813 89.2136 262.766 90.6291C261.719 92.0446 260.401 91.5677 260.629 90.4323L261.733 84.6415C261.733 84.6415 264.063 81.7045 265.473 82.7037Z" stroke="#263238" stroke-linejoin="round"/>
	<path id="Path 4931" d="M252.472 85.5726C251.197 85.6407 250.156 84.369 250.078 82.7264C250 81.0838 250.94 79.6986 252.215 79.6305C253.49 79.5623 254.516 80.834 254.609 82.4766C254.687 84.1192 253.747 85.5045 252.472 85.5726Z" stroke="#263238" stroke-width="0.500000"/>
	<path id="Path 4932" d="M245.939 84.089C244.699 84.1647 243.624 82.8778 243.538 81.2352C243.452 79.5926 244.407 78.2074 245.675 78.1393C246.943 78.0711 247.962 79.3428 248.041 80.9854C248.126 82.628 247.178 84.0132 245.939 84.089Z" stroke="#263238" stroke-width="0.500000"/>
	<path id="Path 4933" d="M248.717 79.5775C248.717 80.3344 245.027 84.8081 244.984 85.7921C244.942 86.7762 248.418 86.8367 248.418 86.8367L248.717 79.5775Z" fill-rule="evenodd" fill="#FFFFFF"/>
	<path id="Path 4933" d="M244.984 85.7921C244.942 86.7762 248.418 86.8367 248.418 86.8367L248.717 79.5775C248.717 80.3344 245.027 84.8081 244.984 85.7921Z" stroke="#263238" stroke-linejoin="round"/>
	<path id="Path 4934" d="M248.041 80.9854C248.041 80.9854 249.145 80.6902 250.071 82.2723" stroke="#263238" stroke-width="0.500000"/>
	<path id="Path 4935" d="M254.623 83.0519L255.82 83.2412L262.538 83.7408" stroke="#263238" stroke-width="0.500000"/>
	<path id="Path 4936" d="M275.069 116.79L273.73 115.026C273.73 115.026 262.446 116.396 257.459 123.542C257.459 123.542 248.197 118.894 239.862 121.157L239.62 124.329L257.85 135.918L264.974 132.769L275.069 116.79Z" fill-rule="evenodd" fill="#FFFFFF"/>
	<path id="Path 4936" d="M273.73 115.026C273.73 115.026 262.446 116.396 257.459 123.542C257.459 123.542 248.197 118.894 239.862 121.157L239.62 124.329L257.85 135.918L264.974 132.769L275.069 116.79L273.73 115.026Z" stroke="#263238" stroke-linejoin="round"/>
	<path id="Path 4937" d="M276.9 115.722L274.977 129.348C274.977 129.348 264.362 134.298 262.154 138.28L261.626 138.355L259.133 138.726L257.786 138.302C254.492 137.283 251.136 136.504 247.741 135.971C246.563 135.778 245.368 135.729 244.179 135.827L236.998 123.935C236.998 123.935 248.105 122.3 255.784 125.093L259.461 124.821L259.596 124.7C260.7 123.738 268.437 117.206 276.9 115.722Z" fill-rule="evenodd" fill="#352D49"/>
	<mask id="mask1_1101" mask-type="alpha" maskUnits="userSpaceOnUse" x="236.998291" y="115.722290" width="39.901855" height="23.003998">
		<path id="Path 4940" d="M276.9 115.722L274.977 129.348C274.977 129.348 264.362 134.298 262.154 138.28L261.626 138.355L259.133 138.726L257.786 138.302C254.492 137.283 251.136 136.504 247.741 135.971C246.563 135.778 245.368 135.729 244.179 135.827L236.998 123.935C236.998 123.935 248.105 122.3 255.784 125.093L259.461 124.821L259.596 124.7C260.7 123.738 268.437 117.206 276.9 115.722Z" fill-rule="evenodd" fill="#352D49"/>
		<path id="Path 4940" d="M274.977 129.348C274.977 129.348 264.362 134.298 262.154 138.28L261.626 138.355L259.133 138.726L257.786 138.302C254.492 137.283 251.136 136.504 247.741 135.971C246.563 135.778 245.368 135.729 244.179 135.827L236.998 123.935C236.998 123.935 248.105 122.3 255.784 125.093L259.461 124.821L259.596 124.7C260.7 123.738 268.437 117.206 276.9 115.722L274.977 129.348Z" stroke="#263238" stroke-linejoin="round"/>
	</mask>
	<g mask="url(#mask1_1101)">
		<g opacity="0.300000">
			<path id="Path 4938" d="M261.484 135.176L259.596 124.692C260.693 123.738 268.43 117.206 276.893 115.722L274.97 129.348C274.97 129.348 264.355 134.298 262.146 138.28L261.619 138.355L261.484 135.176Z" fill-rule="evenodd" fill="#000000"/>
		</g>
	</g>
	<g mask="url(#mask1_1101)">
		<g opacity="0.300000">
			<path id="Path 4939" d="M257.829 135.918L257.779 138.295C254.485 137.276 251.128 136.497 247.734 135.963C248.044 131.023 251.404 126.902 255.962 125.873L257.829 135.918Z" fill-rule="evenodd" fill="#000000"/>
		</g>
	</g>
	<path id="Path 4941" d="M274.977 129.348C274.977 129.348 264.362 134.298 262.154 138.28L261.626 138.355L259.133 138.726L257.786 138.302C254.492 137.283 251.136 136.504 247.741 135.971C246.563 135.778 245.368 135.729 244.179 135.827L236.998 123.935C236.998 123.935 248.105 122.3 255.784 125.093L259.461 124.821L259.596 124.7C260.7 123.738 268.437 117.206 276.9 115.722L274.977 129.348Z" stroke="#263238" stroke-linejoin="round"/>
	<path id="Path 4942" d="M261.441 141.603C257.636 141.345 250.399 135.153 250.399 135.153C249.963 133.998 249.352 132.926 248.589 131.982C247.556 130.884 248.931 129.968 248.931 129.968C248.931 129.968 247.727 129.143 247.043 128.689C246.359 128.235 247.556 127.039 247.556 127.039C247.556 127.039 252.721 127.796 253.255 127.591C253.79 127.387 258.748 130.793 259.517 130.884C260.562 130.904 261.593 130.619 262.495 130.059C263.008 129.605 264.597 126.766 265.63 126.214C266.663 125.661 268.479 125.669 267.611 126.857C266.741 128.046 266.898 130.695 266.47 131.066C266.043 131.437 265.338 135.418 265.338 136.788L270.966 142.254L267.76 146.894L261.441 141.603Z" fill-rule="evenodd" fill="#FFFFFF"/>
	<path id="Path 4942" d="M250.399 135.153C249.963 133.998 249.352 132.926 248.589 131.982C247.556 130.884 248.931 129.968 248.931 129.968C248.931 129.968 247.727 129.143 247.043 128.689C246.359 128.235 247.556 127.039 247.556 127.039C247.556 127.039 252.721 127.796 253.255 127.591C253.79 127.387 258.748 130.793 259.517 130.884C260.562 130.904 261.593 130.619 262.495 130.059C263.008 129.605 264.597 126.766 265.63 126.214C266.663 125.661 268.479 125.669 267.611 126.857C266.741 128.046 266.898 130.695 266.47 131.066C266.043 131.437 265.338 135.418 265.338 136.788L270.966 142.254L267.76 146.894L261.441 141.603C257.636 141.345 250.399 135.153 250.399 135.153Z" stroke="#263238" stroke-linejoin="round"/>
	<path id="Path 4943" d="M248.91 129.968C249.921 130.088 250.908 130.382 251.831 130.839" stroke="#263238" stroke-linejoin="round" stroke-linecap="round"/>
	<path id="Path 4944" d="M252.742 132.133C252.742 132.133 252.422 133.518 252.336 133.73C252.251 133.942 253.398 135.297 253.234 135.918C253.07 136.539 254.395 138.189 254.395 138.189" stroke="#263238" stroke-linejoin="round" stroke-linecap="round"/>
	<path id="Path 4945" d="M251.446 133.73C250.456 133.224 249.503 132.64 248.596 131.982" stroke="#263238" stroke-linejoin="round" stroke-linecap="round"/>
	<path id="Path 4946" d="M248.689 99.2584L251.154 104.534L261.284 98.5696L263.514 103.853L253.177 110.825L251.189 105.367L247.172 109.477L245.811 102.831L248.689 99.2584Z" fill-rule="evenodd" fill="#757575"/>
	<path id="Path 4946" d="M251.154 104.534L261.284 98.5696L263.514 103.853L253.177 110.825L251.189 105.367L247.172 109.477L245.811 102.831L248.689 99.2584L251.154 104.534Z" stroke="#263238" stroke-linejoin="round"/>
	<path id="Path 4947" d="M280.198 111.158C282.656 113.951 291.398 134.434 292.239 147.628L265.609 147.628L265.609 146.447L262.702 144.638C262.702 144.638 264.504 137.901 269.641 138.953L271.137 141.224L274.449 143.874C274.449 143.874 280.263 144.033 281.951 145.811L280.198 111.158Z" fill-rule="evenodd" fill="#757575"/>
	<path id="Path 4947" d="M292.239 147.628L265.609 147.628L265.609 146.447L262.702 144.638C262.702 144.638 264.504 137.901 269.641 138.953L271.137 141.224L274.449 143.874C274.449 143.874 280.263 144.033 281.951 145.811L280.198 111.158C282.656 113.951 291.398 134.434 292.239 147.628Z" stroke="#263238" stroke-linejoin="round"/>
	<path id="Path 4948" d="M274.449 143.904C274.449 143.904 277.677 138.961 282.421 141.05" stroke="#263238" stroke-linejoin="round" stroke-linecap="round"/>
	<path id="Path 4949" d="M273.217 135.918C274.253 137.961 275.176 140.066 275.981 142.223" stroke="#263238" stroke-linejoin="round" stroke-linecap="round"/>
	<path id="Path 4950" d="M229.532 128.326C229.532 128.326 227.559 116.108 228.107 111.885L229.532 128.326Z" fill-rule="evenodd" fill="#757575"/>
	<path id="Path 4950" d="M228.107 111.885L229.532 128.326C229.532 128.326 227.559 116.108 228.107 111.885Z" stroke="#263238" stroke-linejoin="round"/>
	<path id="Path 4951" d="M225.585 116.646C225.585 116.646 226.683 122.648 229.147 125.866L225.585 116.646Z" fill-rule="evenodd" fill="#757575"/>
	<path id="Path 4951" d="M229.147 125.866L225.585 116.646C225.585 116.646 226.683 122.648 229.147 125.866Z" stroke="#263238" stroke-linejoin="round"/>
	<path id="Path 4952" d="M209.243 117.698C209.243 117.698 212.342 120.423 210.368 127.22L209.243 117.698Z" fill-rule="evenodd" fill="#757575"/>
	<path id="Path 4952" d="M210.368 127.22L209.243 117.698C209.243 117.698 212.342 120.423 210.368 127.22Z" stroke="#263238" stroke-linejoin="round"/>
	<path id="Path 4953" d="M250.684 109.689C250.684 109.978 250.52 110.238 250.269 110.347C250.017 110.457 249.729 110.395 249.538 110.19C249.347 109.985 249.291 109.677 249.397 109.412C249.503 109.146 249.75 108.975 250.021 108.978C250.198 108.978 250.368 109.053 250.492 109.187C250.616 109.32 250.686 109.501 250.684 109.689Z" fill-rule="evenodd" fill="#263238"/>
	<ellipse id="Ellipse 23" cx="248.931152" cy="119.393555" rx="0.669663" ry="0.711542" fill="#263238"/>
	<ellipse id="Ellipse 24" cx="247.919434" cy="141.246979" rx="0.669663" ry="0.711542" fill="#263238"/>
	<path id="Path 4954" d="M169.633 77.0341L173.836 69.3055L169.633 61.5846L161.241 61.5846L157.045 69.3055L161.241 77.0341L169.633 77.0341Z" stroke="#263238" stroke-linejoin="round"/>
	<path id="Path 4955" d="M160.023 93.9749L155.826 86.2539L147.434 86.2539" stroke="#263238" stroke-linejoin="round" stroke-linecap="round"/>
	<path id="Path 4956" d="M156.952 69.3055L161.148 61.5845L156.952 53.856L148.56 53.856L144.364 61.5845L148.56 69.3055L156.952 69.3055Z" stroke="#263238" stroke-linejoin="round"/>
	<path id="Path 4957" d="M169.633 61.5845L173.836 53.856L169.633 46.135L161.241 46.135L157.045 53.856L161.241 61.5845L169.633 61.5845Z" stroke="#263238" stroke-linejoin="round"/>
	<path id="Path 4958" d="M160.022 61.5846C160.02 61.0964 160.294 60.6548 160.719 60.4665C161.142 60.2783 161.631 60.3808 161.956 60.726C162.281 61.0712 162.377 61.5907 162.2 62.0411C162.023 62.4915 161.607 62.7836 161.148 62.7806C160.526 62.7806 160.022 62.2451 160.022 61.5846Z" fill-rule="evenodd" fill="#263238"/>
	<ellipse id="Ellipse 25" cx="143.622803" cy="45.370499" rx="1.125605" ry="1.195995" fill="#263238"/>
	<path id="Path 4959" d="M158.897 93.9748C158.897 93.3143 159.401 92.7788 160.022 92.7788C160.644 92.7788 161.148 93.3143 161.148 93.9748C161.148 94.6353 160.644 95.1708 160.022 95.1708C159.401 95.1708 158.897 94.6353 158.897 93.9748Z" fill-rule="evenodd" fill="#263238"/>
	<ellipse id="Ellipse 26" cx="147.434082" cy="86.253845" rx="1.125605" ry="1.195995" fill="#263238"/>
	<path id="Path 4960" d="M181.943 54.0604C181.943 53.5729 182.22 53.1336 182.644 52.9477C183.068 52.7619 183.556 52.8662 183.88 53.212C184.203 53.5578 184.298 54.0768 184.121 54.5262C183.943 54.9757 183.528 55.267 183.069 55.2639C182.769 55.2639 182.482 55.1369 182.271 54.911C182.059 54.685 181.941 54.3789 181.943 54.0604Z" fill-rule="evenodd" fill="#263238"/>
	<ellipse id="Ellipse 27" cx="155.740723" cy="86.253845" rx="1.125605" ry="1.195995" fill="#263238"/>
	<path id="Path 4961" d="M172.682 54.0604C172.682 53.3957 173.189 52.8568 173.815 52.8568C174.44 52.8568 174.947 53.3957 174.947 54.0604C174.947 54.7251 174.44 55.2639 173.815 55.2639C173.189 55.2639 172.682 54.7251 172.682 54.0604Z" fill-rule="evenodd" fill="#263238"/>
	<path id="Path 4962" d="M160.022 77.0341C160.02 76.5459 160.294 76.1042 160.719 75.916C161.142 75.7278 161.631 75.8303 161.956 76.1755C162.281 76.5207 162.377 77.0402 162.2 77.4906C162.023 77.941 161.607 78.2332 161.148 78.2301C160.528 78.226 160.026 77.6929 160.022 77.0341Z" fill-rule="evenodd" fill="#263238"/>
	<path id="Line 32" d="M173.836 54.0604L183.076 54.0604" stroke="#263238" stroke-linejoin="round" stroke-linecap="round"/>
	<path id="Line 33" d="M161.148 77.0341L155.741 86.2539" stroke="#263238" stroke-linejoin="round" stroke-linecap="round"/>
	<path id="Line 34" d="M148.56 53.856L143.623 45.3705" stroke="#263238" stroke-linejoin="round" stroke-linecap="round"/>
	<path id="Path 4963" d="M138.885 114.36C139.642 113.636 140.491 113.029 141.407 112.558C141.484 113.063 141.919 113.415 142.397 113.361C142.903 113.277 143.473 112.747 143.822 113.133C143.965 113.285 143.993 113.527 144.143 113.671C144.599 114.118 145.375 113.156 145.888 113.52C146.024 113.618 146.095 113.784 146.237 113.883C146.465 113.987 146.722 113.987 146.95 113.883C148.222 113.575 149.529 113.455 150.832 113.527L156.809 113.573L156.354 113.323" stroke="#263238" stroke-linejoin="round" stroke-linecap="round"/>
	<path id="Path 4964" d="M138.565 119.658C138.667 119.145 139.1 118.783 139.594 118.796C140.087 118.809 140.502 119.193 140.581 119.711C140.88 119.563 141.107 119.289 141.208 118.954C141.593 119.87 142.782 119.946 143.73 119.878L147.954 119.56C149.222 119.462 150.704 119.219 151.274 118.046C151.9 119.26 152.15 120.654 151.987 122.028C152.378 121.039 152.888 120.108 153.504 119.257C153.632 119.742 153.76 120.226 153.882 120.711C156.824 118.523 160.849 119.954 164.411 119.477" stroke="#263238" stroke-linejoin="round" stroke-linecap="round"/>
	<path id="Path 4965" d="M138.942 126.676C138.915 126.387 139.096 126.123 139.363 126.062C139.443 126.34 139.628 126.57 139.874 126.697C140.119 126.825 140.404 126.839 140.659 126.736C141.167 126.509 141.603 126.131 141.913 125.646C142.128 125.831 142.407 125.909 142.68 125.86C142.953 125.811 143.193 125.639 143.338 125.389C143.656 125.936 143.918 126.517 144.122 127.122C144.506 126.078 145.81 125.911 146.871 125.919L155.42 125.919" stroke="#263238" stroke-linejoin="round" stroke-linecap="round"/>
	<path id="Path 4966" d="M205.025 44.2881C202.985 44.2354 200.983 44.8919 199.326 46.1577C197.274 47.5505 195.322 49.8971 195.835 52.4254C196.348 54.9536 199.155 56.2934 201.627 56.8006C203.753 57.2405 205.916 57.4435 208.081 57.4062C208.916 57.4195 209.748 57.3254 210.561 57.1261C211.382 56.8788 212.179 56.5467 212.94 56.1345L218.454 53.3791C219.209 53.0006 220.057 52.5162 220.264 51.6533C220.52 50.5859 219.658 49.5943 218.839 48.9509C215.744 46.599 211.927 45.5769 208.153 46.0896" stroke="#263238" stroke-linejoin="round" stroke-linecap="round"/>
	<path id="Path 4967" d="M198.478 49.9501C198.802 49.5632 199.222 49.2801 199.689 49.1326C199.596 49.4221 199.596 49.7362 199.689 50.0258C199.818 50.2983 200.209 50.4345 200.402 50.2074C200.594 49.9803 200.637 49.617 200.851 49.7306L201.107 50.3361C201.456 50.2075 201.727 49.9047 202.069 49.7457C202.458 49.6069 202.873 49.5655 203.28 49.6246C206.339 49.7914 209.405 49.6927 212.448 49.3294" stroke="#263238" stroke-linejoin="round" stroke-linecap="round"/>
	<path id="Path 4968" d="M203.465 53.205C203.555 52.8913 203.78 52.6415 204.071 52.5313C203.907 52.7206 204.106 53.0461 204.348 53.0915C204.594 53.0962 204.838 53.0418 205.061 52.9325C205.331 52.8584 205.608 52.8177 205.887 52.8114L211.081 52.4329" stroke="#263238" stroke-linejoin="round" stroke-linecap="round"/>
	<path id="Path 4969" d="M205.681 60.8957C202.603 72.5521 192.985 80.913 181.623 81.8105" stroke="#263238" stroke-linejoin="round" stroke-linecap="round"/>
	<path id="Path 4970" d="M181.708 80.1679C180.701 80.8293 179.803 81.6631 179.051 82.6356C179.958 82.4338 180.894 82.7909 181.473 83.5591" stroke="#263238" stroke-linejoin="round" stroke-linecap="round"/>
	<path id="Path 4971" d="M203.971 81.9695L204.619 83.4834L205.545 82.3177C205.719 82.455 205.84 82.6537 205.887 82.8779C205.958 83.0898 206.065 83.3245 206.265 83.385C206.464 83.4456 206.714 83.1579 206.564 82.999C206.829 83.1898 207.16 83.2478 207.469 83.1579C207.604 83.1579 207.725 83.0519 207.861 83.0141C208.022 82.9765 208.187 82.9612 208.352 82.9687L217.977 82.9687" stroke="#263238" stroke-linejoin="round" stroke-linecap="round"/>
	<path id="Path 4972" d="M204.42 90.296C204.512 90.0494 204.719 89.8721 204.965 89.8287C205.212 89.7853 205.461 89.8822 205.624 90.0841C205.655 90.181 205.704 90.2708 205.766 90.349C205.944 90.4824 206.188 90.4496 206.329 90.2733C206.486 90.1219 206.585 89.9175 206.749 89.7813C207.198 89.4104 207.839 89.6981 208.388 89.857C209.09 90.0131 209.811 90.054 210.525 89.9781L215.989 89.6754" stroke="#263238" stroke-linejoin="round" stroke-linecap="round"/>
	<path id="Path 4973" d="M204.591 96.7302C204.965 96.7407 205.297 96.4781 205.396 96.0944C205.581 96.1275 205.728 96.2777 205.766 96.4728C206.028 96.301 206.251 96.0712 206.422 95.7991C209.941 95.8445 213.465 95.8445 216.994 95.7991" stroke="#263238" stroke-linejoin="round" stroke-linecap="round"/>
	<path id="Path 4974" d="M204.583 101.537C205.035 101.735 205.555 101.539 205.787 101.083C206.011 101.275 206.166 101.542 206.229 101.84C206.513 101.635 206.864 101.567 207.198 101.65C207.333 101.65 207.469 101.749 207.604 101.787C207.946 101.88 208.3 101.913 208.651 101.885L220.933 101.696" stroke="#263238" stroke-linejoin="round" stroke-linecap="round"/>
	<path id="Path 4975" d="M177.184 131.565C177.295 131.581 177.405 131.536 177.477 131.445C177.549 131.355 177.573 131.232 177.541 131.119L177.541 127.334C177.554 127.208 177.524 127.082 177.455 126.978C177.362 126.888 177.239 126.842 177.113 126.85C175.902 126.736 173.173 126.093 172.126 126.963C171.079 127.834 171.613 130.846 171.606 132.141L177.184 131.565Z" stroke="#263238" stroke-linejoin="round"/>
	<path id="Path 4976" d="M173.202 128.765C173.273 129.12 173.337 129.476 173.409 129.84C174.254 129.652 175.121 129.604 175.98 129.696" stroke="#263238" stroke-linejoin="round" stroke-linecap="round"/>
	<path id="Path 4977" d="M176.044 133.776C175.938 133.95 175.934 134.173 176.034 134.351C176.134 134.53 176.32 134.632 176.515 134.616C176.892 134.54 177.191 134.003 177.541 134.169" stroke="#263238" stroke-linejoin="round" stroke-linecap="round"/>
	<path id="Path 4978" d="M172.205 125.048C172.348 124.818 172.607 124.7 172.864 124.747C173.12 124.795 173.325 124.999 173.387 125.268L174.727 125.101" stroke="#263238" stroke-linejoin="round" stroke-linecap="round"/>
	<path id="Path 4979" d="M189.018 137.598C190.494 137.619 191.97 137.525 193.434 137.318C193.599 137.309 193.755 137.239 193.876 137.122C193.977 136.967 194.02 136.778 193.997 136.592L193.997 127.387C193.997 127.281 185.27 126.986 184.251 127.735C182.2 129.264 183.318 135.244 183.318 137.598C185.218 137.598 187.118 137.598 189.018 137.598Z" stroke="#263238" stroke-linejoin="round"/>
	<path id="Path 4980" d="M186.41 130.112L187.771 130.15C187.526 131.133 187.139 132.07 186.624 132.928C186.439 133.193 186.218 133.526 186.353 133.821C187.065 133.942 187.899 134.01 188.348 133.428C188.932 132.671 188.419 131.482 188.861 130.634L189.032 132.428L189.623 133.026C189.777 133.209 189.97 133.349 190.186 133.435C190.409 133.518 190.656 133.423 190.777 133.208" stroke="#263238" stroke-linejoin="round" stroke-linecap="round"/>
	<path id="Path 4981" d="M190.371 139.143C190.82 138.969 191.005 139.862 191.468 139.99C191.931 140.119 192.181 139.468 192.573 139.18C192.957 138.91 193.47 138.981 193.776 139.347" stroke="#263238" stroke-linejoin="round" stroke-linecap="round"/>
	<path id="Path 4982" d="M186.695 124.579C187.123 124.692 186.951 125.449 187.272 125.775C187.593 126.1 188.127 125.775 188.49 125.464C188.854 125.154 189.516 125.018 189.652 125.464" stroke="#263238" stroke-linejoin="round" stroke-linecap="round"/>
	<rect id="Rectangle 17327" x="125.605957" y="147.453979" width="170.721451" height="12.807749" fill="#BFBFBF"/>
	<rect id="Rectangle 17327" x="125.605957" y="147.453979" width="170.721451" height="12.807749" stroke="#263238" stroke-linejoin="round"/>
	<rect id="Rectangle 17328" x="153.190430" y="152.495361" width="111.548836" height="2.725053" fill="#263238"/>
	<path id="Path 4983" d="M216.452 153.881C216.452 154.98 215.614 155.871 214.579 155.871C213.544 155.871 212.705 154.98 212.705 153.881C212.705 152.781 213.544 151.89 214.579 151.89C215.614 151.89 216.452 152.781 216.452 153.881Z" fill-rule="evenodd" fill="#352D49"/>
	<path id="Path 4983" d="M214.579 155.871C213.544 155.871 212.705 154.98 212.705 153.881C212.705 152.781 213.544 151.89 214.579 151.89C215.614 151.89 216.452 152.781 216.452 153.881C216.452 154.98 215.614 155.871 214.579 155.871Z" stroke="#263238" stroke-linejoin="round"/>
	<rect id="Rectangle 17329" x="286.182861" y="151.405334" width="4.616403" height="4.905095" stroke="#263238" stroke-linejoin="round"/>
	<rect id="Rectangle 17330" x="278.438721" y="151.405334" width="4.616403" height="4.905095" stroke="#263238" stroke-linejoin="round"/>
	<rect id="Rectangle 17331" x="130.892090" y="151.352356" width="8.043086" height="5.011069" stroke="#263238" stroke-linejoin="round"/>
	<path id="Line 35" d="M130.8 28.4903L161.148 28.4903" stroke="#FFFFFF" stroke-linejoin="round" stroke-linecap="round"/>
	<path id="Path 4984" d="M290.903 30.1382C290.234 30.4342 289.463 30.2722 288.951 29.7278C288.438 29.1834 288.286 28.3644 288.565 27.6537C288.843 26.9431 289.498 26.4813 290.222 26.4844C291.206 26.4844 292.003 27.3316 292.003 28.3768C292.006 29.1466 291.572 29.8422 290.903 30.1382Z" stroke="#FFFFFF" stroke-linejoin="round"/>
	<path id="Path 4985" d="M283.176 30.3827C282.193 30.3827 281.395 29.5355 281.395 28.4903C281.395 27.4452 282.193 26.5979 283.176 26.5979C284.16 26.5979 284.957 27.4452 284.957 28.4903C284.957 29.5355 284.16 30.3827 283.176 30.3827Z" stroke="#FFFFFF" stroke-linejoin="round"/>
	<path id="Path 4986" d="M276.126 30.4962C275.143 30.4935 274.348 29.6455 274.35 28.6014C274.351 27.5572 275.148 26.7115 276.131 26.7115C276.604 26.7115 277.058 26.9119 277.393 27.2684C277.727 27.625 277.914 28.1082 277.912 28.6114C277.908 29.6556 277.109 30.499 276.126 30.4962Z" stroke="#FFFFFF" stroke-linejoin="round"/>
	<path id="Path 4987" d="M142.597 278.93L125.727 278.93L116.594 275.857L113.744 274.896L112.911 284.032L13.0171 284.229C13.0171 284.229 14.5417 280.141 17.0278 274.146C22.3923 261.21 32.2236 239.364 40.8223 230.439C47.804 223.195 65.2437 222.991 65.2437 222.991C67.0242 221.737 69.113 221.068 71.2493 221.068C74.4551 221.235 98.6912 224.028 100.194 224.853C101.241 225.498 102.139 226.382 102.823 227.442C102.823 227.442 111.315 223.453 119.657 227.048C128 230.644 142.597 278.93 142.597 278.93Z" fill-rule="evenodd" fill="#BFBFBF"/>
	<mask id="mask1_1156" mask-type="alpha" maskUnits="userSpaceOnUse" x="13.017090" y="221.068298" width="129.579834" height="63.160675">
		<path id="Path 4989" d="M142.597 278.93L125.727 278.93L116.594 275.857L113.744 274.896L112.911 284.032L13.0171 284.229C13.0171 284.229 14.5417 280.141 17.0278 274.146C22.3923 261.21 32.2236 239.364 40.8223 230.439C47.804 223.195 65.2437 222.991 65.2437 222.991C67.0242 221.737 69.113 221.068 71.2493 221.068C74.4551 221.235 98.6912 224.028 100.194 224.853C101.241 225.498 102.139 226.382 102.823 227.442C102.823 227.442 111.315 223.453 119.657 227.048C128 230.644 142.597 278.93 142.597 278.93Z" fill-rule="evenodd" fill="#BFBFBF"/>
		<path id="Path 4989" d="M125.727 278.93L116.594 275.857L113.744 274.896L112.911 284.032L13.0171 284.229C13.0171 284.229 14.5417 280.141 17.0278 274.146C22.3923 261.21 32.2236 239.364 40.8223 230.439C47.804 223.195 65.2437 222.991 65.2437 222.991C67.0242 221.737 69.113 221.068 71.2493 221.068C74.4551 221.235 98.6912 224.028 100.194 224.853C101.241 225.498 102.139 226.382 102.823 227.442C102.823 227.442 111.315 223.453 119.657 227.048C128 230.644 142.597 278.93 142.597 278.93L125.727 278.93Z" stroke="#263238" stroke-linejoin="round"/>
	</mask>
	<g mask="url(#mask1_1156)">
		<g opacity="0.200000">
			<path id="Path 4988" d="M116.594 275.857L113.744 274.896L112.911 284.032L13.0171 284.229C13.0171 284.229 14.5417 280.141 17.0278 274.146C20.8821 274.048 25.2278 273.836 25.2278 273.836L27.4646 266.062C27.4646 266.062 30.9768 262.118 35.3652 264.442C35.0652 263.236 35.5205 261.961 36.498 261.27C38.1936 260.074 45.1467 263.912 45.1467 263.912C45.1467 263.912 48.4949 257.1 49.6348 252.641C50.7747 248.183 51.5298 258.947 51.5298 258.947C51.5298 258.947 54.3794 253.996 54.3794 252.641C54.3794 251.286 59.637 266.062 59.637 266.062C59.637 266.062 66.5901 266.948 68.4709 267.705C70.3516 268.462 89.0737 269.218 95.1008 267.705C101.128 266.191 90.8262 275.274 90.8262 275.274C90.8262 275.274 101.413 279.059 107.397 276.576C113.381 274.093 116.06 271.436 116.06 271.436C116.06 271.436 116.281 273.276 116.594 275.857Z" fill-rule="evenodd" fill="#000000"/>
		</g>
	</g>
	<path id="Path 4990" d="M125.727 278.93L116.594 275.857L113.744 274.896L112.911 284.032L13.0171 284.229C13.0171 284.229 14.5417 280.141 17.0278 274.146C22.3923 261.21 32.2236 239.364 40.8223 230.439C47.804 223.195 65.2437 222.991 65.2437 222.991C67.0242 221.737 69.113 221.068 71.2493 221.068C74.4551 221.235 98.6912 224.028 100.194 224.853C101.241 225.498 102.139 226.382 102.823 227.442C102.823 227.442 111.315 223.453 119.657 227.048C128 230.644 142.597 278.93 142.597 278.93L125.727 278.93Z" stroke="#263238" stroke-linejoin="round"/>
	<path id="Path 4991" d="M111.094 255.586C109.611 257.808 107.918 259.865 106.043 261.725" stroke="#263238" stroke-linejoin="round" stroke-linecap="round"/>
	<path id="Path 4992" d="M101.106 266.138C93.8484 271.834 85.3181 275.421 76.3572 276.546" stroke="#263238" stroke-linejoin="round" stroke-linecap="round"/>
	<path id="Path 4993" d="M132.303 263.556C132.303 263.556 134.896 261.846 137.168 262.406C139.441 262.966 141.322 265.35 141.322 265.35C141.322 265.35 160.186 263.693 164.468 263.836C168.749 263.98 178.331 266.963 178.331 266.963C178.331 266.963 182.976 265.964 183.475 266.168C183.974 266.372 182.47 283.169 182.47 283.169L121.203 283.169C118.197 283.169 115.967 278.544 113.709 274.911C117.599 260.453 119.589 245.492 119.622 230.455L132.303 263.556Z" fill-rule="evenodd" fill="#BFBFBF"/>
	<mask id="mask1_1158" mask-type="alpha" maskUnits="userSpaceOnUse" x="113.708740" y="230.454590" width="69.867432" height="52.714630">
		<path id="Path 4995" d="M132.303 263.556C132.303 263.556 134.896 261.846 137.168 262.406C139.441 262.966 141.322 265.35 141.322 265.35C141.322 265.35 160.186 263.693 164.468 263.836C168.749 263.98 178.331 266.963 178.331 266.963C178.331 266.963 182.976 265.964 183.475 266.168C183.974 266.372 182.47 283.169 182.47 283.169L121.203 283.169C118.197 283.169 115.967 278.544 113.709 274.911C117.599 260.453 119.589 245.492 119.622 230.455L132.303 263.556Z" fill-rule="evenodd" fill="#BFBFBF"/>
		<path id="Path 4995" d="M137.168 262.406C139.441 262.966 141.322 265.35 141.322 265.35C141.322 265.35 160.186 263.693 164.468 263.836C168.749 263.98 178.331 266.963 178.331 266.963C178.331 266.963 182.976 265.964 183.475 266.168C183.974 266.372 182.47 283.169 182.47 283.169L121.203 283.169C118.197 283.169 115.967 278.544 113.709 274.911C117.599 260.453 119.589 245.492 119.622 230.455L132.303 263.556C132.303 263.556 134.896 261.846 137.168 262.406Z" stroke="#263238" stroke-linejoin="round"/>
	</mask>
	<g mask="url(#mask1_1158)">
		<g opacity="0.200000">
			<path id="Path 4994" d="M149.115 283.154L121.218 283.154C118.211 283.154 115.981 278.529 113.723 274.896C115.957 266.739 117.546 258.399 118.475 249.961C118.475 249.961 121.438 254.632 119.636 260.044L121.438 254.632C121.438 254.632 123.17 260.43 121.438 265.343C119.707 270.255 118.475 271.663 118.475 271.663C118.475 271.663 120.612 274.631 122.878 273.836C125.143 273.041 127.608 277.855 127.608 277.855C127.608 277.855 133.051 278.075 134.184 277.855C134.704 277.757 141.749 280.338 149.115 283.154Z" fill-rule="evenodd" fill="#000000"/>
		</g>
	</g>
	<path id="Path 4996" d="M132.303 263.556C132.303 263.556 134.896 261.846 137.168 262.406C139.441 262.966 141.322 265.35 141.322 265.35C141.322 265.35 160.186 263.693 164.468 263.836C168.749 263.98 178.331 266.963 178.331 266.963C178.331 266.963 182.976 265.964 183.475 266.168C183.974 266.372 182.47 283.169 182.47 283.169L121.203 283.169C118.197 283.169 115.967 278.544 113.709 274.911C117.599 260.453 119.589 245.492 119.622 230.455" stroke="#263238" stroke-linejoin="round" stroke-linecap="round"/>
	<path id="Path 4997" d="M97.2808 211.251L97.2808 227.419C95.3518 228.815 93.3542 230.101 91.2966 231.272C87.1433 233.611 81.8145 235.927 78.6443 234.61C72.895 232.211 69.1692 222.991 69.1692 222.991C75.3743 217.965 76.1223 211.251 77.0627 208.056L97.2808 211.251Z" fill-rule="evenodd" fill="#FFFFFF"/>
	<path id="Path 4997" d="M97.2808 227.419C95.3518 228.815 93.3542 230.101 91.2966 231.272C87.1433 233.611 81.8145 235.927 78.6443 234.61C72.895 232.211 69.1692 222.991 69.1692 222.991C75.3743 217.965 76.1223 211.251 77.0627 208.056L97.2808 211.251L97.2808 227.419Z" stroke="#263238" stroke-linejoin="round"/>
	<path id="Path 4998" d="M66.1628 224.225C66.1628 224.225 71.4275 236.404 77.8179 238.607C84.2083 240.81 95.0295 232.211 95.0295 232.211" stroke="#263238" stroke-linejoin="round" stroke-linecap="round"/>
	<path id="Path 4999" d="M37.417 238.963C37.417 238.963 47.3906 247.214 49.0649 249.992C50.739 252.77 49.0649 278.93 49.0649 278.93" stroke="#263238" stroke-linejoin="round" stroke-linecap="round"/>
	<path id="Path 5000" d="M23.8386 265.585C29.7161 261.558 33.8481 265.964 37.4172 266.758C40.9863 267.553 48.8799 263.269 54.8 266.758C60.72 270.248 60.72 269.029 60.72 269.029C60.72 269.029 66.918 274.055 63.7192 284.115L12.9958 284.214C12.9958 284.214 9.61182 276.531 20.7327 265.57L23.8386 265.585Z" fill-rule="evenodd" fill="#BFBFBF"/>
	<path id="Path 5000" d="M37.4172 266.758C40.9863 267.553 48.8799 263.269 54.8 266.758C60.72 270.248 60.72 269.029 60.72 269.029C60.72 269.029 66.918 274.055 63.7192 284.115L12.9958 284.214C12.9958 284.214 9.61182 276.531 20.7327 265.57L23.8386 265.585C29.7161 261.558 33.8481 265.964 37.4172 266.758Z" stroke="#263238" stroke-linejoin="round"/>
	<path id="Path 5001" d="M73.5432 250.014L86.9294 276.031L87.3496 278.953L85.2124 276.932L71.406 251.104C71.8225 250.289 72.6841 249.85 73.5432 250.014Z" fill-rule="evenodd" fill="#352D49"/>
	<path id="Path 5001" d="M86.9294 276.031L87.3496 278.953L85.2124 276.932L71.406 251.104C71.8225 250.289 72.6841 249.85 73.5432 250.014L86.9294 276.031Z" stroke="#263238" stroke-linejoin="round"/>
	<path id="Path 5002" d="M60.834 270.392C61.8447 270.08 62.8833 269.88 63.9329 269.794C65.0657 269.794 72.033 264.321 74.3982 263.912C76.7632 263.503 81.0164 267.25 83.1821 267.848C85.3479 268.446 85.2124 271.444 86.4805 272.64C87.7485 273.836 85.9177 275.183 84.3433 273.836C84.5713 274.784 84.3596 275.791 83.7734 276.546C83.7734 276.546 84.2009 278.181 83.7734 278.93L58.6965 278.93C58.6965 278.93 58.3191 273.836 60.834 270.392Z" fill-rule="evenodd" fill="#FFFFFF"/>
	<path id="Path 5002" d="M63.9329 269.794C65.0657 269.794 72.033 264.321 74.3982 263.912C76.7632 263.503 81.0164 267.25 83.1821 267.848C85.3479 268.446 85.2124 271.444 86.4805 272.64C87.7485 273.836 85.9177 275.183 84.3433 273.836C84.5713 274.784 84.3596 275.791 83.7734 276.546C83.7734 276.546 84.2009 278.181 83.7734 278.93L58.6965 278.93C58.6965 278.93 58.3191 273.836 60.834 270.392C61.8447 270.08 62.8833 269.88 63.9329 269.794Z" stroke="#263238" stroke-linejoin="round"/>
	<path id="Path 5003" d="M84.3931 273.836L82.1348 271.467L76.3572 269.499" stroke="#263238" stroke-linejoin="round" stroke-linecap="round"/>
	<path id="Path 5004" d="M83.8306 276.546L80.3752 274.896L75.6521 273.949" stroke="#263238" stroke-linejoin="round" stroke-linecap="round"/>
	<path id="Path 5005" d="M75.6521 277.855L80.3752 278.082L83.8306 278.93" stroke="#263238" stroke-linejoin="round" stroke-linecap="round"/>
	<path id="Path 5006" d="M74.4194 263.912C72.2822 265.903 74.4194 268 73.4006 269.499C72.3821 270.997 71.2634 271.444 72.1326 273.836" stroke="#263238" stroke-linejoin="round" stroke-linecap="round"/>
	<path id="Path 5007" d="M104.918 280.194L219.031 280.194C219.031 282.423 217.331 284.229 215.234 284.229L114.072 284.229C113.676 284.228 113.281 284.162 112.904 284.032L104.775 281.247C104.535 281.17 104.384 280.919 104.42 280.655C104.456 280.392 104.667 280.196 104.918 280.194Z" fill-rule="evenodd" fill="#352D49"/>
	<mask id="mask1_1160" mask-type="alpha" maskUnits="userSpaceOnUse" x="104.414795" y="280.194336" width="114.616455" height="4.034607">
		<path id="Path 5010" d="M104.918 280.194L219.031 280.194C219.031 282.423 217.331 284.229 215.234 284.229L114.072 284.229C113.676 284.228 113.281 284.162 112.904 284.032L104.775 281.247C104.535 281.17 104.384 280.919 104.42 280.655C104.456 280.392 104.667 280.196 104.918 280.194Z" fill-rule="evenodd" fill="#352D49"/>
		<path id="Path 5010" d="M219.031 280.194C219.031 282.423 217.331 284.229 215.234 284.229L114.072 284.229C113.676 284.228 113.281 284.162 112.904 284.032L104.775 281.247C104.535 281.17 104.384 280.919 104.42 280.655C104.456 280.392 104.667 280.196 104.918 280.194L219.031 280.194Z" stroke="#263238" stroke-linejoin="round"/>
	</mask>
	<g mask="url(#mask1_1160)">
		<g opacity="0.200000">
			<path id="Path 5008" d="M219.031 280.194C219.03 281.264 218.631 282.29 217.92 283.048L217.806 283.154C217.107 283.845 216.188 284.229 215.234 284.229L114.072 284.229C113.676 284.228 113.281 284.162 112.904 284.032L104.775 281.247C104.532 281.169 104.381 280.913 104.421 280.648C104.46 280.382 104.679 280.188 104.932 280.194L219.031 280.194Z" fill-rule="evenodd" fill="#000000"/>
		</g>
	</g>
	<g mask="url(#mask1_1160)">
		<g opacity="0.200000">
			<path id="Path 5009" d="M219.031 280.194C219.03 281.264 218.63 282.29 217.92 283.048L217.806 283.154L152.514 283.154C150.974 283.154 149.725 281.83 149.721 280.194L219.031 280.194Z" fill-rule="evenodd" fill="#000000"/>
		</g>
	</g>
	<path id="Path 5011" d="M219.031 280.194C219.031 282.423 217.331 284.229 215.234 284.229L114.072 284.229C113.676 284.228 113.281 284.162 112.904 284.032L104.775 281.247C104.535 281.17 104.384 280.919 104.42 280.655C104.456 280.392 104.667 280.196 104.918 280.194L219.031 280.194Z" stroke="#263238" stroke-linejoin="round"/>
	<path id="Path 5012" d="M149.721 280.194C149.725 281.83 150.974 283.154 152.514 283.154L163.349 283.154" stroke="#263238" stroke-linejoin="round" stroke-linecap="round"/>
	<path id="Path 5013" d="M239.456 230.424L226.177 279.612C225.771 280.902 224.656 281.792 223.377 281.845L154.202 281.845C153.67 281.889 153.153 281.643 152.83 281.192C152.507 280.74 152.422 280.144 152.606 279.611L165.871 230.523C166.275 229.231 167.391 228.34 168.671 228.29L237.846 228.29C238.361 228.241 238.865 228.469 239.189 228.899C239.513 229.328 239.613 229.9 239.456 230.424Z" fill-rule="evenodd" fill="#352D49"/>
	<mask id="mask1_1163" mask-type="alpha" maskUnits="userSpaceOnUse" x="152.510498" y="228.283173" width="87.018311" height="53.566620">
		<path id="Path 5015" d="M239.456 230.424L226.177 279.612C225.771 280.902 224.656 281.792 223.377 281.845L154.202 281.845C153.67 281.889 153.153 281.643 152.83 281.192C152.507 280.74 152.422 280.144 152.606 279.611L165.871 230.523C166.275 229.231 167.391 228.34 168.671 228.29L237.846 228.29C238.361 228.241 238.865 228.469 239.189 228.899C239.513 229.328 239.613 229.9 239.456 230.424Z" fill-rule="evenodd" fill="#352D49"/>
		<path id="Path 5015" d="M226.177 279.612C225.771 280.902 224.656 281.792 223.377 281.845L154.202 281.845C153.67 281.889 153.153 281.643 152.83 281.192C152.507 280.74 152.422 280.144 152.606 279.611L165.871 230.523C166.275 229.231 167.391 228.34 168.671 228.29L237.846 228.29C238.361 228.241 238.865 228.469 239.189 228.899C239.513 229.328 239.613 229.9 239.456 230.424L226.177 279.612Z" stroke="#263238" stroke-linejoin="round"/>
	</mask>
	<g mask="url(#mask1_1163)">
		<g opacity="0.400000">
			<path id="Path 5014" d="M239.456 230.424L226.177 279.612C225.771 280.902 224.656 281.792 223.377 281.845L154.658 281.845L167.916 232.657C168.321 231.367 169.436 230.477 170.716 230.424L239.456 230.424Z" fill-rule="evenodd" fill="#FFFFFF"/>
		</g>
	</g>
	<path id="Path 5016" d="M226.177 279.612C225.771 280.902 224.656 281.792 223.377 281.845L154.202 281.845C153.67 281.889 153.153 281.643 152.83 281.192C152.507 280.74 152.422 280.144 152.606 279.611L165.871 230.523C166.275 229.231 167.391 228.34 168.671 228.29L237.846 228.29C238.361 228.241 238.865 228.469 239.189 228.899C239.513 229.328 239.613 229.9 239.456 230.424L226.177 279.612Z" stroke="#263238" stroke-linejoin="round"/>
	<path id="Path 5017" d="M201.007 255.972C199.806 258.597 197.341 260.306 194.595 260.415C191.689 260.415 189.972 258.023 190.77 255.071C191.747 251.978 194.42 249.848 197.488 249.719L197.616 249.719C197.482 250.011 197.372 250.315 197.289 250.628C196.469 253.557 198.143 255.926 201.007 255.972Z" fill-rule="evenodd" fill="#FFFFFF"/>
	<path id="Path 5017" d="M194.595 260.415C191.689 260.415 189.972 258.023 190.77 255.071C191.747 251.978 194.42 249.848 197.488 249.719L197.616 249.719C197.482 250.011 197.372 250.315 197.289 250.628C196.469 253.557 198.143 255.926 201.007 255.972C199.806 258.597 197.341 260.306 194.595 260.415Z" stroke="#263238" stroke-linejoin="round"/>
	<path id="Path 5018" d="M155.014 279.437L167.959 231.522C168.195 230.77 168.844 230.251 169.59 230.22L236.642 230.22" stroke="#263238" stroke-linejoin="round" stroke-linecap="round"/>
	<path id="Path 5019" d="M122.877 284.229L27.4148 284.229L28.5688 281.67C28.5688 281.67 37.5879 282.564 44.7334 280.194C47.8894 279.15 52.748 278.68 57.6208 278.741C60.6914 278.786 68.1646 278.817 72.8022 278.794C74.4551 278.794 75.7517 278.794 76.3643 278.749C76.5994 278.749 76.8345 278.749 77.0767 278.749C78.3994 278.732 79.72 278.863 81.0164 279.142C82.2673 278.992 83.5261 278.926 84.7849 278.945C86.9863 278.945 96.4543 278.908 99.0332 278.945C102.431 278.991 106.357 279.702 110.083 280.247C114.585 280.913 118.902 281.383 121.581 280.21L122.877 284.229Z" fill-rule="evenodd" fill="#FFFFFF"/>
	<mask id="mask1_1165" mask-type="alpha" maskUnits="userSpaceOnUse" x="27.414795" y="278.735779" width="95.462646" height="5.493164">
		<path id="Path 5030" d="M122.877 284.229L27.4148 284.229L28.5688 281.67C28.5688 281.67 37.5879 282.564 44.7334 280.194C47.8894 279.15 52.748 278.68 57.6208 278.741C60.6914 278.786 68.1646 278.817 72.8022 278.794C74.4551 278.794 75.7517 278.794 76.3643 278.749C76.5994 278.749 76.8345 278.749 77.0767 278.749C78.3994 278.731 79.72 278.863 81.0164 279.142C82.2673 278.992 83.5261 278.926 84.7849 278.945C86.9863 278.945 96.4543 278.908 99.0332 278.945C102.431 278.991 106.357 279.702 110.083 280.247C114.585 280.913 118.902 281.383 121.581 280.209L122.877 284.229Z" fill-rule="evenodd" fill="#FFFFFF"/>
		<path id="Path 5030" d="M27.4148 284.229L28.5688 281.67C28.5688 281.67 37.5879 282.564 44.7334 280.194C47.8894 279.15 52.748 278.68 57.6208 278.741C60.6914 278.786 68.1646 278.817 72.8022 278.794C74.4551 278.794 75.7517 278.794 76.3643 278.749C76.5994 278.749 76.8345 278.749 77.0767 278.749C78.3994 278.731 79.72 278.863 81.0164 279.142C82.2673 278.992 83.5261 278.926 84.7849 278.945C86.9863 278.945 96.4543 278.908 99.0332 278.945C102.431 278.991 106.357 279.702 110.083 280.247C114.585 280.913 118.902 281.383 121.581 280.209L122.877 284.229L27.4148 284.229Z" stroke="#263238" stroke-linejoin="round"/>
	</mask>
	<g mask="url(#mask1_1165)">
		<g opacity="0.400000">
			<path id="Path 5020" d="M122.877 284.229L48.8796 284.229L50.3828 281.481C50.3828 281.481 54.4221 283.987 58.3689 282.238C62.3157 280.49 66.2908 279.536 72.8022 278.779C74.2222 278.618 75.6533 278.597 77.0767 278.718C79.9111 278.949 82.698 279.623 85.3479 280.717C85.3479 280.717 89.2305 278.915 99.0332 278.915C102.431 278.961 106.357 279.672 110.083 280.217C114.585 280.883 118.902 281.353 121.581 280.179L122.877 284.229Z" fill-rule="evenodd" fill="#352D49"/>
		</g>
	</g>
	<g mask="url(#mask1_1165)">
		<path id="Path 5021" d="M50.3828 281.481L28.5974 281.67L27.4434 284.229L48.8796 284.229L50.3828 281.481Z" fill-rule="evenodd" fill="#352D49"/>
	</g>
	<g mask="url(#mask1_1165)">
		<path id="Path 5022" d="M49.4924 283.101L50.3831 281.481C52.3091 282.372 54.3875 282.831 56.4883 282.829C59.6799 282.73 64.7236 278.529 74.4197 278.733" stroke="#263238" stroke-linejoin="round" stroke-linecap="round"/>
	</g>
	<g mask="url(#mask1_1165)">
		<path id="Path 5023" d="M80.9951 279.127C82.7832 279.823 85.3267 280.732 85.3267 280.732C85.3267 280.732 88.6179 278.718 95.8489 278.93" stroke="#263238" stroke-linejoin="round" stroke-linecap="round"/>
	</g>
	<g mask="url(#mask1_1165)">
		<path id="Path 5024" d="M50.3828 281.481C50.3828 281.481 39.1125 281.693 34.603 281.799" stroke="#263238" stroke-linejoin="round" stroke-linecap="round"/>
	</g>
	<g mask="url(#mask1_1165)">
		<path id="Path 5025" d="M83.8232 284.229C83.9492 283.217 84.6687 282.404 85.6113 282.208C87.2073 281.928 88.2402 284.025 88.2402 284.025" stroke="#263238" stroke-linejoin="round" stroke-linecap="round"/>
	</g>
	<g mask="url(#mask1_1165)">
		<path id="Line 36" d="M85.3264 280.732L85.6113 282.208" stroke="#263238" stroke-linejoin="round" stroke-linecap="round"/>
	</g>
	<g mask="url(#mask1_1165)">
		<path id="Path 5026" d="M86.9294 282.208C86.9294 282.208 92.0017 279.748 96.9031 280.194" stroke="#263238" stroke-linejoin="round" stroke-linecap="round"/>
	</g>
	<g mask="url(#mask1_1165)">
		<path id="Path 5027" d="M84.842 282.503C84.3933 282.132 76.7776 279.634 68.9839 281.481" stroke="#263238" stroke-linejoin="round" stroke-linecap="round"/>
	</g>
	<g mask="url(#mask1_1165)">
		<path id="Path 5028" d="M83.8232 283.525C83.8232 283.525 77.4116 282.231 71.8335 283.131" stroke="#263238" stroke-linejoin="round" stroke-linecap="round"/>
	</g>
	<g mask="url(#mask1_1165)">
		<path id="Path 5029" d="M87.6418 283.146C91.8977 281.885 96.3521 281.566 100.729 282.208C105.039 282.889 109.394 283.198 113.752 283.131" stroke="#263238" stroke-linejoin="round" stroke-linecap="round"/>
	</g>
	<path id="Path 5031" d="M27.4148 284.229L28.5688 281.67C28.5688 281.67 37.5879 282.564 44.7334 280.194C47.8894 279.15 52.748 278.68 57.6208 278.741C60.6914 278.786 68.1646 278.817 72.8022 278.794C74.4551 278.794 75.7517 278.794 76.3643 278.749C76.5994 278.749 76.8345 278.749 77.0767 278.749C78.3994 278.732 79.72 278.863 81.0164 279.142C82.2673 278.992 83.5261 278.926 84.7849 278.945C86.9863 278.945 96.4543 278.908 99.0332 278.945C102.431 278.991 106.357 279.702 110.083 280.247C114.585 280.913 118.902 281.383 121.581 280.21L122.877 284.229L27.4148 284.229Z" stroke="#263238" stroke-linejoin="round"/>
	<path id="Path 5032" d="M97.2805 224.732L97.2805 227.419C95.3516 228.815 93.354 230.101 91.2964 231.272C86.7297 226.814 86.0815 218.343 86.0815 218.343L97.2805 224.732Z" fill-rule="evenodd" fill="#263238"/>
	<path id="Path 5033" d="M77.8176 209.252C72.4463 200.812 73.5432 185.029 80.4465 176.415C90.5913 163.835 117.064 173.024 117.043 190.797C117.022 193.268 116.822 195.733 116.445 198.17C116.095 200.517 114.179 202.886 113.595 205.225C113.011 207.564 113.246 211.281 113.011 213.552C112.483 218.722 105.751 228.979 103.927 230.091C101.377 231.605 87.592 227.495 84.5857 218.101L77.8176 209.252Z" fill-rule="evenodd" fill="#FFFFFF"/>
	<path id="Path 5033" d="M80.4465 176.415C90.5913 163.835 117.064 173.024 117.043 190.797C117.022 193.268 116.822 195.733 116.445 198.17C116.095 200.517 114.179 202.886 113.595 205.225C113.011 207.564 113.246 211.281 113.011 213.552C112.483 218.722 105.751 228.979 103.927 230.091C101.377 231.605 87.592 227.495 84.5857 218.101L77.8176 209.252C72.4463 200.812 73.5432 185.029 80.4465 176.415Z" stroke="#263238" stroke-linejoin="round"/>
	<path id="Path 5034" d="M96.604 198.821C96.604 198.821 100.358 197.368 103.728 198.821" stroke="#263238" stroke-linejoin="round" stroke-linecap="round"/>
	<path id="Path 5035" d="M111.415 198.821C111.415 198.821 114.15 197.368 115.981 198.821" stroke="#263238" stroke-linejoin="round" stroke-linecap="round"/>
	<path id="Path 5036" d="M100.116 205.604C99.9167 206.625 99.2612 207.352 98.6914 207.224C98.1213 207.095 97.7439 206.149 97.9434 205.119C98.1428 204.09 98.7981 203.371 99.4038 203.507C100.009 203.643 100.316 204.597 100.116 205.604Z" fill-rule="evenodd" fill="#263238"/>
	<path id="Path 5037" d="M112.198 205.604C111.999 206.625 111.344 207.352 110.774 207.224C110.204 207.095 109.826 206.149 110.026 205.119C110.225 204.09 110.873 203.371 111.486 203.507C112.099 203.643 112.398 204.597 112.198 205.604Z" fill-rule="evenodd" fill="#263238"/>
	<path id="Path 5038" d="M110.225 200.373C110.225 200.373 108.437 203.666 108.252 206.429C108.067 209.192 111.102 214.914 110.225 216.708C109.349 218.502 105.623 218.411 104.398 217.314L110.225 200.373Z" fill-rule="evenodd" fill="#FFFFFF"/>
	<path id="Path 5038" d="M108.252 206.429C108.067 209.192 111.102 214.914 110.225 216.708C109.349 218.502 105.623 218.411 104.398 217.314L110.225 200.373C110.225 200.373 108.437 203.666 108.252 206.429Z" stroke="#263238" stroke-linejoin="round"/>
	<path id="Path 5039" d="M105.06 220.932C102.598 221.302 100.088 220.921 97.822 219.834" stroke="#263238" stroke-linejoin="round" stroke-linecap="round"/>
	<path id="Path 5040" d="M83.2036 201.471C83.2036 201.471 84.9561 199.669 87.022 200.373C89.0879 201.077 89.4656 207.057 89.4656 207.057L90.9688 205.354C90.9688 205.354 90.406 201.97 92.6572 197.224C94.9084 192.478 93.7827 186.892 93.7827 186.892C93.7827 186.892 97.6653 188.284 99.012 191.479C99.012 191.479 100.479 188.088 99.012 185.491C99.012 185.491 105.06 187.088 106.563 191.88C106.563 191.88 107.753 188.284 107.347 186.49C107.347 186.49 111.443 187.883 112.947 192.077C112.947 192.077 114.314 188.882 113.723 186.286C113.723 186.286 115.376 187.8 116.01 192.281C117.244 189.549 117.607 186.464 117.043 183.493C117.043 183.493 119.18 186.089 119.522 188.284C119.522 188.284 121.26 181.896 111.094 173.312C100.928 164.728 83.5242 166.673 80.8169 173.312C80.8169 173.312 81.7146 168.422 83.5242 166.673C83.5242 166.673 78.5374 169.035 78.644 173.91C78.644 173.91 74.2415 173.312 71.9902 176.309C73.3699 176.198 74.7573 176.265 76.1223 176.506C76.1223 176.506 70.1094 180.291 70.4871 189.284C70.8645 198.276 76.1223 211.235 76.1223 211.235L80.24 209.956C80.24 209.956 80.8953 203.84 83.2036 201.471Z" fill-rule="evenodd" fill="#263238"/>
	<path id="Path 5041" d="M87.77 203.666C87.77 203.666 84.5784 197.678 82.8899 197.277C81.2017 196.876 78.0029 199.275 78.751 202.47C79.499 205.664 80.0688 211.054 81.0093 211.652C81.9497 212.25 83.4529 215.845 84.9561 214.846C85.3569 214.627 85.6365 214.218 85.7095 213.745C85.7825 213.272 85.6404 212.791 85.3264 212.446L87.77 203.666Z" fill-rule="evenodd" fill="#FFFFFF"/>
	<path id="Path 5041" d="M82.8899 197.277C81.2017 196.876 78.0029 199.275 78.751 202.47C79.499 205.664 80.0688 211.054 81.0093 211.652C81.9497 212.25 83.4529 215.845 84.9561 214.846C85.3569 214.627 85.6365 214.218 85.7095 213.745C85.7825 213.272 85.6404 212.791 85.3264 212.446L87.77 203.666C87.77 203.666 84.5784 197.678 82.8899 197.277Z" stroke="#263238" stroke-linejoin="round"/>
	<path id="Path 5042" d="M123.469 249.961C123.146 251.437 122.732 252.889 122.229 254.306" stroke="#263238" stroke-linejoin="round" stroke-linecap="round"/>
	<path id="Path 5043" d="M121.082 257.198C119.947 259.949 118.282 262.416 116.195 264.442" stroke="#263238" stroke-linejoin="round" stroke-linecap="round"/>
	<path id="Path 5044" d="M141.336 265.35C140.36 265.214 138.372 266.524 136.549 268.212" stroke="#263238" stroke-linejoin="round" stroke-linecap="round"/>
	<path id="Path 5045" d="M135.209 269.551C133.784 271.118 132.68 272.776 132.68 273.836" stroke="#263238" stroke-linejoin="round" stroke-linecap="round"/>
	<path id="Path 5046" d="M31.6252 261.27C31.6252 261.27 35.679 262.466 35.7144 266.16" stroke="#263238" stroke-linejoin="round" stroke-linecap="round"/>
	<path id="Path 5047" d="M46.8137 241.105C47.4866 241.905 48.0989 242.761 48.6445 243.664" stroke="#263238" stroke-linejoin="round" stroke-linecap="round"/>
	<path id="Path 5048" d="M50.2476 246.782C51.0449 248.621 51.4741 250.616 51.5085 252.641C51.5085 258.871 49.8201 262.482 49.8201 262.482" stroke="#263238" stroke-linejoin="round" stroke-linecap="round"/>
	<path id="Path 5049" d="M71.4275 234.996C72.5022 236.058 73.6526 237.03 74.8684 237.903" stroke="#263238" stroke-linejoin="round" stroke-linecap="round"/>
	<path id="Path 5050" d="M78.4446 240.174C82.085 242.127 86.7939 243.595 91.6812 242.301" stroke="#263238" stroke-linejoin="round" stroke-linecap="round"/>
	<g opacity="0.200000">
		<path id="Path 5051" d="M86.0818 173.63C87.3545 173.423 88.6416 173.334 89.9287 173.365" stroke="#FFFFFF" stroke-linejoin="round" stroke-linecap="round"/>
		<path id="Path 5052" d="M91.8022 173.471C95.2859 173.819 99.5747 175.113 102.239 179.019" stroke="#FFFFFF" stroke-linejoin="round" stroke-linecap="round"/>
		<path id="Path 5053" d="M94.5378 170.594C94.5378 170.594 101.071 170.67 105.751 174.144" stroke="#FFFFFF" stroke-linejoin="round" stroke-linecap="round"/>
		<path id="Path 5054" d="M107.589 175.832C108.427 176.763 109.098 177.848 109.57 179.034" stroke="#FFFFFF" stroke-linejoin="round" stroke-linecap="round"/>
		<path id="Path 5055" d="M84.3933 176.589C84.3933 176.589 90.8049 178.989 93.0349 183.281" stroke="#FFFFFF" stroke-linejoin="round" stroke-linecap="round"/>
		<path id="Path 5056" d="M81.2871 179.019C82.6765 181.065 83.676 183.379 84.2292 185.832" stroke="#FFFFFF" stroke-linejoin="round" stroke-linecap="round"/>
		<path id="Path 5057" d="M84.6284 189.2C84.637 190.105 84.5581 191.008 84.3933 191.895" stroke="#FFFFFF" stroke-linejoin="round" stroke-linecap="round"/>
		<path id="Path 5058" d="M76.97 181.812C76.6399 182.703 76.3662 183.616 76.1506 184.545" stroke="#FFFFFF" stroke-linejoin="round" stroke-linecap="round"/>
		<path id="Path 5059" d="M75.645 187.187C75.2708 189.547 75.2419 191.955 75.5593 194.325" stroke="#FFFFFF" stroke-linejoin="round" stroke-linecap="round"/>
	</g>
	<path id="Path 5060" d="M161.048 297.688L250.954 297.688L250.954 284.229L0.5 284.229L0.5 297.688L51.1379 297.688L161.048 297.688Z" fill-rule="evenodd" fill="#FFFFFF"/>
	<path id="Path 5060" d="M250.954 297.688L250.954 284.229L0.5 284.229L0.5 297.688L51.1379 297.688L161.048 297.688L250.954 297.688Z" stroke="#263238" stroke-linejoin="round"/>
	<path id="Line 37" d="M154.574 297.208L154.594 297.188C154.874 297.188 155.094 297.408 155.094 297.688C155.094 297.968 154.874 298.188 154.594 298.188L154.574 298.168L154.574 297.208ZM141.848 298.168L141.828 298.188C141.548 298.188 141.328 297.968 141.328 297.688C141.328 297.408 141.548 297.188 141.828 297.188L141.848 297.208L141.848 298.168Z" fill-rule="evenodd" fill="#FFFFFF"/>
	<path id="Line 37" d="M154.594 297.688L141.828 297.688" stroke="#263238" stroke-linejoin="round" stroke-linecap="round"/>
	<defs/>
</svg>
