<svg width="90.842285" height="32.748901" viewBox="0 0 90.8423 32.7489" fill="none" xmlns="http://www.w3.org/2000/svg" xmlns:xlink="http://www.w3.org/1999/xlink">
	<desc>
			Created with Pixso.
	</desc>
	<path id="Path 9" d="M16.3716 0.717468L16.1398 8.54645C14.3377 8.65887 12.626 8.79907 11.0043 8.96759C9.30554 16.7404 8.15967 23.8823 7.56805 30.3917L1.04248 32.2441L4.59473 9.85132C3.89966 9.96381 3.20477 10.0899 2.5097 10.2301L0.463379 10.6506L0 2.7796L16.3716 0.717468Z" fill-rule="evenodd" fill="#FFFFFF"/>
	<path id="Path 10" d="M24.4752 8.74219C24.2694 9.55884 24.0895 10.3611 23.9358 11.1487L23.5117 13.4707L29.6895 12.0396L29.3427 17.8503C26.4142 18.412 24.1152 18.9025 22.4461 19.3234C22.3438 19.8851 22.2537 20.4469 22.1761 21.0074L21.8875 22.6469L29.0721 21.5101L28.5701 29.3391C24.8633 29.6758 20.165 30.644 14.4768 32.2433L19.0724 2.06369L31.9325 0L31.4282 7.8194C28.9039 8.07208 26.5868 8.37927 24.4752 8.74219Z" fill-rule="evenodd" fill="#FFFFFF"/>
	<path id="Path 11" d="M29.1075 32.7489C32.8915 22.2261 35.9543 12.082 38.2969 2.31674L50.0351 0.170105C48.6964 8.67249 48.0912 18.7325 48.2206 30.3492L40.0344 32.4119L40.6139 27.1504L38.0269 27.6973L37.2155 31.4016L29.1075 32.7489ZM41.234 21.4886L43.0081 5.59973L39.34 21.8889L41.234 21.4886Z" fill-rule="evenodd" fill="#FFFFFF"/>
	<path id="Path 12" d="M65.1298 0.422729C67.8064 0.422729 69.7756 2.00827 71.0374 5.17914L66.6741 10.3986C66.0818 9.72504 65.3997 9.38797 64.6277 9.38797C63.2631 9.38797 61.8475 10.6652 60.3802 13.2187C59.1702 15.3228 58.3851 17.2877 58.025 19.1112C57.8447 19.9817 57.7544 20.7676 57.7544 21.4684C57.7544 23.3483 58.3851 24.6396 59.6467 25.3408C60.058 25.5658 60.4958 25.6776 60.9597 25.6776C62.2974 25.6776 63.7011 24.5976 65.1683 22.4362L66.4039 27.445C63.8555 30.5325 61.2685 32.075 58.6427 32.075C55.9649 32.075 54.009 30.5321 52.7734 27.445C52.0271 25.6496 51.6536 23.643 51.6536 21.4263C51.6536 19.7991 51.8467 18.0734 52.2332 16.249C53.0054 12.5171 54.4725 9.10797 56.6346 6.02087C59.2346 2.289 62.0662 0.422729 65.1298 0.422729Z" fill-rule="evenodd" fill="#FFFFFF"/>
	<path id="Path 13" d="M74.5095 2.48489L81.6529 1.13794C80.3677 6.50726 79.3267 11.3983 78.5298 15.8116L81.7293 15.0734L83.6984 2.4845L90.8422 1.13757C88.1132 12.6145 86.3886 22.3658 85.6681 30.3909L79.0267 32.2433L80.8024 20.7943C80.0817 20.9628 78.9879 21.2155 77.5206 21.5522C77.0311 25.0034 76.6837 27.95 76.4783 30.3909L69.8368 32.2433L74.5095 2.48489Z" fill-rule="evenodd" fill="#FFFFFF"/>
	<defs/>
</svg>
